<svg width="120" height="120" fill="none" xmlns="http://www.w3.org/2000/svg"><g clip-path="url(#clip0)"><path d="M59.42 93.094a6.075 6.075 0 004.268 1.767c3.255 0 5.9-2.594 6.014-5.821a6.023 6.023 0 005.8-5.802 6.023 6.023 0 005.802-5.8c3.227-.117 5.823-2.76 5.823-6.014 0-.275-.044-.546-.081-.819l2.775-2.775 2.242 4.487 13.333-6.666-1.731-3.46-9.871 4.938-11.724-23.45 10.177-3.991-1.411-3.602-11.525 4.52-17.243-5.173c-1.293-.386-2.624-.522-3.943-.474v-.043H37.164l-8.824-2.932-1.22 3.67 7.172 2.382L24.17 63.342l-5.94-2.376-1.435 3.59 9.529 3.812 2.392-5.98 3.465 3.468-3.233 3.234a6.075 6.075 0 00-1.767 4.267c0 3.254 2.595 5.9 5.822 6.014a6.023 6.023 0 005.801 5.801 6.023 6.023 0 005.801 5.801c.116 3.228 2.76 5.822 6.015 5.822a6.076 6.076 0 004.267-1.767l3.233-3.233 1.3 1.299zm1.534-53.954l17.082 5.124 9.96 19.923-2.803 2.802-7.948-8.009c.71.067 1.426.108 2.147.108V55.22c-4.502 0-8.81-1.676-12.128-4.719l-4.522-4.142c-2.552-2.343-6.881-2.25-9.331.203l-5.123 5.123a2.17 2.17 0 01-3.07-3.068l7.372-7.37a8.466 8.466 0 018.364-2.108zm-22.795-.356h11.427l-7.1 7.101a5.986 5.986 0 00-1.768 4.268 6.041 6.041 0 006.035 6.034c1.59 0 3.144-.644 4.267-1.767l5.123-5.124c1.048-1.045 2.894-1.085 3.986-.085l4.52 4.144a21.839 21.839 0 004.958 3.419l13.018 13.115a2.17 2.17 0 01-3.067 3.068L63.356 56.754l-2.735 2.734 16.203 16.203a2.17 2.17 0 01-3.067 3.068L57.555 62.554l-2.735 2.734 16.203 16.203a2.17 2.17 0 01-3.067 3.068L51.754 68.355l-2.735 2.735 16.203 16.202a2.17 2.17 0 01-3.067 3.068l-2.181-2.183c.039-.27.081-.54.081-.817 0-3.255-2.596-5.9-5.823-6.014a6.023 6.023 0 00-5.8-5.8 6.023 6.023 0 00-5.802-5.802c-.116-3.227-2.759-5.823-6.014-5.823-.274 0-.545.045-.817.081l-5.521-5.52 7.881-19.699zm-7.11 34.574c0-.572.23-1.13.634-1.535l3.4-3.399a2.171 2.171 0 013.067 3.067l-3.4 3.4a2.17 2.17 0 01-3.701-1.533zm5.801 5.8c0-.57.23-1.129.634-1.534l3.4-3.399a2.17 2.17 0 013.067 3.067l-3.4 3.4a2.17 2.17 0 01-3.701-1.533zm5.802 5.802c0-.572.23-1.13.633-1.535l3.4-3.399a2.171 2.171 0 013.067 3.067l-3.4 3.4a2.17 2.17 0 01-3.701-1.533zm12.901 3.934l-3.399 3.4a2.17 2.17 0 01-3.068-3.068l3.4-3.399a2.171 2.171 0 013.067 3.067zM23.137 94.24l2.734-2.736 2.735 2.735-2.735 2.735-2.734-2.735zm7.377 6.541l2.15-3.215 3.213 2.148-2.15 3.215-3.213-2.148zm8.511 4.982l1.48-3.573 3.574 1.481-1.48 3.573-3.574-1.481zm9.325 3.229l.755-3.791 3.79.756-.755 3.79-3.79-.755zm35.88-88.6l2.15-3.215 3.214 2.148-2.15 3.215-3.213-2.148zm-8.203-3.952l1.48-3.572 3.574 1.48-1.48 3.573-3.574-1.48zm-8.811-2.278l.753-3.793 3.791.753-.753 3.793-3.791-.753z" fill="#043A52"/><path d="M96.796 15.58h-3.868v9.668H83.26v3.867h13.536V15.58zM27.182 83.26H15.58v11.602h3.868v-7.735h7.734v-3.868zm32.873-69.614h1.934V9.778h-1.934a50.113 50.113 0 00-34.19 13.416l2.632 2.836a46.25 46.25 0 0131.558-12.384zm0 92.818H58.12v3.867h1.934c17.676 0 33.731-9.021 42.949-24.13l-3.3-2.013c-8.51 13.948-23.333 22.276-39.65 22.276z" fill="#043A52"/><path d="M10.78 80.12L.113 74.789 0 22.566l30.456 10.121-1.545 3.092-18.13 44.342zm100.77.138L88.825 36.876l31.176-12.231v49.98l-8.451 5.633z" fill="#00BBD3"/></g><defs><clipPath id="clip0"><path fill="#fff" d="M0 0h120v120H0z"/></clipPath></defs></svg>