<svg width="120" height="120" fill="none" xmlns="http://www.w3.org/2000/svg"><path d="M88.731 50.423c-11.616 0-21.069 9.453-21.069 21.07v32.26c.946-.49 1.965-.858 3.04-1.073l12.283-2.457v-3.214a13.418 13.418 0 01-7.508-10.194h-.153a5.746 5.746 0 110-11.492h3.365a19.621 19.621 0 0013.873-5.746l.644.965a10.74 10.74 0 008.933 4.781 5.745 5.745 0 015.746 5.746 5.745 5.745 0 01-5.746 5.746h-.153a13.427 13.427 0 01-7.509 10.194v3.214l12.284 2.457c1.074.215 2.095.583 3.039 1.073v-32.26c0-11.617-9.452-21.07-21.069-21.07zM31.27.624c-11.616 0-21.069 9.452-21.069 21.069v9.576h1.915a5.746 5.746 0 015.747-5.746 10.74 10.74 0 008.933-4.78l.643-.966a19.618 19.618 0 0013.874 5.746h3.365a5.746 5.746 0 015.746 5.747h1.915v-9.577c0-11.617-9.452-21.07-21.069-21.07zm47.884 47.631V35.1H67.662a5.753 5.753 0 01-5.746-5.746V6.37A5.753 5.753 0 0167.662.624h45.969a5.753 5.753 0 015.746 5.746v22.984a5.753 5.753 0 01-5.746 5.746H98.888L79.154 48.255z" fill="#00BBD3"/><path d="M59.936 60.465a13.353 13.353 0 00-10.26-9.462l-10.744-2.15v-.504a15.358 15.358 0 007.194-9.566c3.534-.68 6.214-3.784 6.214-7.514 0-4.225-3.437-7.661-7.662-7.661h-3.365c-4.73 0-9.175-1.84-12.52-5.185l-1.65-1.653-1.94 2.91a8.805 8.805 0 01-7.34 3.928c-4.226 0-7.662 3.436-7.662 7.661 0 3.73 2.68 6.834 6.214 7.516a15.358 15.358 0 007.194 9.566v.503l-10.742 2.15a13.353 13.353 0 00-10.262 9.461L0 69.577h62.539l-2.603-9.112zM27.44 49.92c1.227.318 2.505.504 3.83.504a15.23 15.23 0 003.831-.504v.504a3.835 3.835 0 01-3.83 3.83 3.835 3.835 0 01-3.831-3.83v-.504zm21.069-18.65c0 1.412-.776 2.634-1.916 3.299V27.97c1.14.665 1.916 1.887 1.916 3.298zm-34.477 0c0-1.411.776-2.633 1.915-3.298v6.597c-1.14-.665-1.915-1.887-1.915-3.299zm5.746 3.831v-7.824a12.606 12.606 0 007.995-4.624c3.821 3.101 8.55 4.787 13.54 4.787h1.45v7.66c0 6.338-5.155 11.492-11.493 11.492S19.778 41.438 19.778 35.1zM48.09 65.746l-1.553-6.211-3.716.929 1.32 5.282H18.4l1.32-5.28-3.716-.93-1.553 6.21H5.08l1.208-4.23a9.54 9.54 0 017.33-6.758l10.37-2.075c.971 3.117 3.85 5.402 7.282 5.402 3.433 0 6.311-2.285 7.283-5.402l10.371 2.075a9.542 9.542 0 017.33 6.759l1.207 4.23H48.09zm69.307 44.519a13.355 13.355 0 00-10.261-9.462l-10.743-2.15v-.504a15.357 15.357 0 007.194-9.566c3.534-.68 6.213-3.785 6.213-7.514 0-4.225-3.436-7.661-7.661-7.661-2.956 0-5.7-1.47-7.34-3.929l-1.94-2.91-1.651 1.654a17.587 17.587 0 01-12.519 5.185h-3.365c-4.226 0-7.662 3.436-7.662 7.661 0 3.73 2.68 6.834 6.214 7.516a15.358 15.358 0 007.194 9.566v.503l-10.742 2.149a13.354 13.354 0 00-10.262 9.462l-2.605 9.112H120l-2.603-9.112zM84.901 99.719c1.227.318 2.505.504 3.83.504a15.24 15.24 0 003.831-.504v.504a3.835 3.835 0 01-3.83 3.831 3.835 3.835 0 01-3.831-3.831v-.504zm21.069-18.65c0 1.412-.776 2.634-1.916 3.299V77.77c1.14.665 1.916 1.887 1.916 3.298zm-34.477 0c0-1.411.776-2.633 1.915-3.298v6.597c-1.14-.665-1.915-1.887-1.915-3.299zm5.746 3.83v-7.66h1.45c4.988 0 9.719-1.686 13.54-4.787a12.605 12.605 0 007.995 4.624V84.9c0 6.338-5.155 11.492-11.493 11.492S77.24 91.238 77.24 84.9zm28.311 30.647l-1.553-6.212-3.716.929 1.32 5.283h-25.74l1.32-5.281-3.715-.929-1.554 6.21H62.54l1.21-4.229a9.54 9.54 0 017.33-6.76l10.37-2.074c.97 3.116 3.849 5.401 7.281 5.401 3.433 0 6.312-2.285 7.283-5.401l10.371 2.074a9.543 9.543 0 017.33 6.76l1.207 4.229h-9.372zM19.083 80.947l7.5 3.75 1.715-3.427-13.206-6.602-6.603 13.206 3.427 1.715 3.597-7.194c7.137 14.112 20.868 24.254 36.524 26.773l.607-3.783C38.3 103.077 25.71 93.827 19.084 80.947zm56.24-57.339a5.753 5.753 0 005.746-5.746 5.753 5.753 0 00-5.746-5.746 5.753 5.753 0 00-5.746 5.746 5.753 5.753 0 005.746 5.746zm0-7.662c1.056 0 1.916.86 1.916 1.916 0 1.055-.86 1.915-1.916 1.915a1.919 1.919 0 01-1.915-1.915c0-1.055.86-1.915 1.915-1.915zm15.324 7.662a5.753 5.753 0 005.746-5.746 5.753 5.753 0 00-5.746-5.746 5.753 5.753 0 00-5.747 5.746 5.753 5.753 0 005.746 5.746zm0-7.662c1.055 0 1.915.86 1.915 1.916 0 1.055-.86 1.915-1.915 1.915a1.919 1.919 0 01-1.916-1.915c0-1.055.86-1.915 1.916-1.915zm15.323 7.662a5.753 5.753 0 005.746-5.746 5.753 5.753 0 00-5.746-5.746 5.753 5.753 0 00-5.746 5.746 5.753 5.753 0 005.746 5.746zm0-7.662c1.055 0 1.915.86 1.915 1.916 0 1.055-.86 1.915-1.915 1.915a1.919 1.919 0 01-1.916-1.915c0-1.055.86-1.915 1.916-1.915z" fill="#043A52"/></svg>