<svg width="120" height="120" fill="none" xmlns="http://www.w3.org/2000/svg"><g clip-path="url(#clip0)"><path d="M63.905 14.388c2.284-1.349 3.836-3.809 3.836-6.646C67.741 3.472 64.27 0 60 0s-7.742 3.472-7.742 7.742c0 2.837 1.553 5.297 3.837 6.646-3.393 1.506-5.772 4.893-5.772 8.838v1.935c0 1.069.865 1.936 1.936 1.936h5.807v13.549h3.87v-13.55h5.806c1.07 0 1.936-.866 1.936-1.935v-1.935c0-3.945-2.38-7.332-5.772-8.838zM60 3.871a3.875 3.875 0 013.871 3.87A3.875 3.875 0 0160 11.614a3.875 3.875 0 01-3.871-3.871 3.875 3.875 0 013.87-3.871zm-5.806 19.355A5.814 5.814 0 0160 17.419a5.813 5.813 0 015.807 5.807H54.193zM3.87 40.645h15.485c1.07 0 1.935-.867 1.935-1.935v-.256l20.216 13.479 2.147-3.22L20.638 33.37a9.703 9.703 0 00-5.121-5.433c2.285-1.35 3.838-3.81 3.838-6.647 0-4.27-3.473-7.742-7.742-7.742-4.27 0-7.742 3.472-7.742 7.742 0 2.838 1.552 5.298 3.836 6.647-3.393 1.506-5.771 4.893-5.771 8.837v1.936c0 1.068.865 1.935 1.935 1.935zm7.743-23.225a3.875 3.875 0 013.87 3.87 3.875 3.875 0 01-3.87 3.872 3.875 3.875 0 01-3.871-3.871 3.875 3.875 0 013.87-3.871zm0 13.548a5.814 5.814 0 015.806 5.807H5.806a5.814 5.814 0 015.807-5.807zm100.68-3.031c2.284-1.35 3.836-3.81 3.836-6.647 0-4.27-3.472-7.742-7.742-7.742s-7.742 3.472-7.742 7.742c0 2.838 1.553 5.298 3.837 6.647a9.701 9.701 0 00-5.121 5.433L76.346 48.712l2.146 3.22L98.71 38.455v.256c0 1.068.865 1.935 1.936 1.935h15.484c1.07 0 1.935-.867 1.935-1.935v-1.936c-.001-3.944-2.379-7.331-5.772-8.837zm-3.906-10.517a3.875 3.875 0 013.871 3.87 3.875 3.875 0 01-3.871 3.872 3.875 3.875 0 01-3.871-3.871 3.875 3.875 0 013.871-3.871zm-5.806 19.355a5.814 5.814 0 015.806-5.807 5.814 5.814 0 015.807 5.807h-11.613zm9.712 45.355c2.284-1.347 3.836-3.807 3.836-6.646 0-4.27-3.472-7.742-7.742-7.742s-7.742 3.472-7.742 7.742c0 2.84 1.552 5.299 3.837 6.646a9.709 9.709 0 00-2.867 1.943L78.523 68.086l-2.205 3.184 23.13 16.012a9.61 9.61 0 00-.738 3.685v1.936c0 1.07.865 1.936 1.936 1.936h15.484c1.07 0 1.935-.865 1.935-1.936v-1.936c-.001-3.944-2.379-7.331-5.772-8.837zm-3.906-10.517a3.875 3.875 0 013.871 3.871 3.876 3.876 0 01-3.871 3.871 3.875 3.875 0 01-3.871-3.871 3.875 3.875 0 013.871-3.87zm-5.806 19.355a5.814 5.814 0 015.806-5.807 5.814 5.814 0 015.807 5.807h-11.613zm-38.675 16.324c2.283-1.347 3.836-3.807 3.836-6.647 0-3.598-2.476-6.602-5.807-7.467V79.355h-3.87v13.823c-3.332.865-5.807 3.869-5.807 7.467 0 2.84 1.552 5.299 3.836 6.647-3.393 1.505-5.772 4.892-5.772 8.837v1.936c0 1.07.865 1.935 1.936 1.935h15.484c1.07 0 1.935-.865 1.935-1.935v-1.936c0-3.945-2.379-7.332-5.772-8.837zM60 96.774a3.875 3.875 0 013.87 3.871 3.875 3.875 0 01-3.87 3.871 3.875 3.875 0 01-3.871-3.871 3.875 3.875 0 013.87-3.87zm-5.807 19.355A5.814 5.814 0 0160 110.322a5.813 5.813 0 015.806 5.807H54.194zM41.48 68.086L18.386 84.073a9.71 9.71 0 00-2.867-1.943c2.282-1.347 3.835-3.807 3.835-6.646 0-4.27-3.473-7.742-7.742-7.742-4.27 0-7.742 3.472-7.742 7.742 0 2.84 1.552 5.299 3.836 6.646-3.393 1.506-5.771 4.893-5.771 8.837v1.936c0 1.07.865 1.935 1.935 1.935h15.484c1.07 0 1.936-.865 1.936-1.935v-1.936a9.61 9.61 0 00-.738-3.685l23.13-16.013-2.204-3.183zm-29.867 3.527a3.875 3.875 0 013.87 3.87 3.875 3.875 0 01-3.87 3.872 3.875 3.875 0 01-3.871-3.871 3.875 3.875 0 013.87-3.871zM5.806 90.967a5.814 5.814 0 015.807-5.806 5.813 5.813 0 015.806 5.806H5.806z" fill="#043A52"/><path d="M60 81.29c-11.738 0-21.29-9.552-21.29-21.29 0-11.74 9.552-21.291 21.29-21.291 11.74 0 21.29 9.552 21.29 21.29 0 11.74-9.551 21.29-21.29 21.29z" fill="#00BBD3"/><path d="M63.905 58.904c2.284-1.349 3.836-3.809 3.836-6.647 0-4.27-3.472-7.741-7.742-7.741s-7.742 3.472-7.742 7.742c0 2.837 1.553 5.297 3.837 6.646-3.393 1.506-5.772 4.893-5.772 8.837v1.936c0 1.07.865 1.936 1.936 1.936h15.484c1.07 0 1.935-.865 1.935-1.936v-1.936c0-3.944-2.38-7.331-5.772-8.837zM60 48.387a3.875 3.875 0 013.871 3.871 3.875 3.875 0 01-3.87 3.87 3.875 3.875 0 01-3.871-3.87A3.875 3.875 0 0160 48.387zm-5.806 19.355A5.814 5.814 0 0160 61.935a5.813 5.813 0 015.807 5.807H54.193z" fill="#043A52"/></g><defs><clipPath id="clip0"><path fill="#fff" d="M0 0h120v120H0z"/></clipPath></defs></svg>