<svg width="120" height="120" fill="none" xmlns="http://www.w3.org/2000/svg"><path d="M71.25 63.75h1.022c.495-1.155.853-1.875.853-1.875h10.421a3.748 3.748 0 013.557 2.565l1.022 3.06h.99a4.636 4.636 0 012.072 8.78L90 76.876l3.75 7.5v2.096l3.161-1.579c6.147-3.075 9.964-9.253 9.964-16.124V64.9c0-9.94-8.087-18.026-18.026-18.026-3.267 0-6.473.889-9.274 2.569l-2.325 1.395a11.672 11.672 0 01-6 1.661 5.632 5.632 0 00-5.625 5.625 5.632 5.632 0 005.625 5.625zM37.5 43.125H30c-8.852 0-18.75 7.102-18.75 16.609 0 2.377.407 4.715 1.207 6.95l.445 1.243h.435c.643-2.4 2.81-4.177 5.413-4.177h1.875s7.5-1.875 13.125-7.5c5.625 5.625 13.125 7.5 13.125 7.5h1.875c2.602 0 4.77 1.778 5.413 4.177h.435l.444-1.243a20.554 20.554 0 001.208-6.95c0-9.507-9.898-16.609-18.75-16.609zM20.625 18.75h33.75v7.5h-33.75v-7.5z" fill="#00BBD3"/><path d="M107.156 90.334l-11.531-1.922V83.93l-3.118-6.238a6.472 6.472 0 003.118-5.557 6.517 6.517 0 00-6.144-6.499l-.597-1.79A5.62 5.62 0 0083.548 60H71.966l-.517 1.037C71.287 61.359 67.5 69.002 67.5 75v1.159l3.75 1.875v1.432A6.75 6.75 0 0075 85.534a6.82 6.82 0 003.034.716h2.591v2.162l-11.531 1.92a13.093 13.093 0 00-7.862 4.45 13.175 13.175 0 00-5.78-2.997L41.25 88.507v-2.413a15.036 15.036 0 007.007-9.221h.493c4.136 0 7.5-3.364 7.5-7.5s-3.364-7.5-7.5-7.5h-1.622c-1.15-.326-7.355-2.254-12.052-6.95l-1.326-1.324-1.326 1.325c-4.697 4.697-10.903 6.625-12.052 6.95H18.75c-4.136 0-7.5 3.365-7.5 7.5 0 4.137 3.364 7.5 7.5 7.5h.493a15.04 15.04 0 007.007 9.222v2.413l-14.201 3.278a13.06 13.06 0 00-10.174 12.787v13.551h116.25v-14.844a13.083 13.083 0 00-10.969-12.947zm-12.59 1.704l.774.13-1.099 8.795-3.64-3.637 3.965-5.288zM78.034 82.5a3.05 3.05 0 01-1.358-.32A3.016 3.016 0 0175 79.465v-3.75l-3.698-1.849c.329-3.744 2.136-8.15 3.015-10.117h9.23c.807 0 1.524.514 1.777 1.282l1.45 4.343h2.341a2.762 2.762 0 011.236 5.23l-2.867 1.43 4.391 8.782v4.559l-3.75 4.998-3.75-4.998V86.25h3.75V82.5H78.034zm3.65 9.538l3.964 5.288-3.64 3.637-1.098-8.796.774-.129zm-39.845.456l-1.742 8.703-3.872-3.871 3.917-5.222 1.697.39zM52.5 69.374a3.754 3.754 0 01-3.75 3.75l-.002-7.5h.002a3.754 3.754 0 013.75 3.75zm-37.5 0a3.754 3.754 0 013.75-3.75v7.5a3.754 3.754 0 01-3.75-3.75zm7.5 3.75v-7.981c2.316-.772 7.052-2.666 11.25-6.33 4.198 3.664 8.934 5.558 11.25 6.33v7.982c0 6.204-5.046 11.25-11.25 11.25S22.5 79.329 22.5 73.125zm11.25 15c1.297 0 2.548-.181 3.75-.492v1.745l-3.75 5-3.75-5v-1.745c1.202.311 2.453.493 3.75.493zm-6.392 3.978l3.917 5.222-3.872 3.872-1.742-8.704 1.697-.39zm27.017 22.273v-11.25h-3.75v11.25h-33.75v-11.25h-3.75v11.25h-7.5v-9.801a9.33 9.33 0 017.266-9.135l9.114-2.103 3.094 15.466 8.651-8.651 8.651 8.651 3.094-15.467 9.113 2.104c1.758.407 3.346 1.343 4.597 2.63a13.153 13.153 0 00-1.08 5.212v11.094h-3.75zm60 0h-7.5v-11.25h-3.75v11.25h-30v-11.25h-3.75v11.25h-7.5v-11.094a9.349 9.349 0 017.834-9.25l7.5-1.249 2.032 16.255 8.884-8.886 8.884 8.886 2.032-16.255 7.5 1.25a9.348 9.348 0 017.834 9.249v11.094z" fill="#043A52"/><path d="M78.75 71.25a1.875 1.875 0 100-3.75 1.875 1.875 0 000 3.75zm-37.5 1.875H37.5a3.754 3.754 0 01-3.75 3.75 3.754 3.754 0 01-3.75-3.75h-3.75c0 4.136 3.364 7.5 7.5 7.5s7.5-3.364 7.5-7.5zm-1.875-3.75a1.875 1.875 0 100-3.75 1.875 1.875 0 000 3.75zm-11.25 0a1.875 1.875 0 100-3.75 1.875 1.875 0 000 3.75zm58.125 37.5H90v3.75h-3.75v-3.75zm13.125-93.75h3.75v3.75h-3.75v-3.75zm-15 0h3.75v3.75h-3.75v-3.75zm7.5 0h3.75v3.75h-3.75v-3.75zm15 0h3.75v3.75h-3.75v-3.75z" fill="#043A52"/><path d="M112.5 1.875h-30A5.632 5.632 0 0076.875 7.5v15a5.632 5.632 0 005.625 5.625h1.875v6.821a4.435 4.435 0 004.429 4.429c1.318 0 2.557-.581 3.277-1.459l9.938-9.791H112.5a5.632 5.632 0 005.625-5.625v-15a5.632 5.632 0 00-5.625-5.625zm1.875 20.625c0 1.033-.84 1.875-1.875 1.875h-12.019L89.325 35.381c-.37.443-1.2.139-1.2-.435V24.375H82.5a1.877 1.877 0 01-1.875-1.875v-15c0-1.033.84-1.875 1.875-1.875h30c1.035 0 1.875.842 1.875 1.875v15zM18.75 35.625h18.21l9.81 6.157a4.416 4.416 0 003.176 1.343 4.435 4.435 0 004.429-4.429v-3.071h1.875A5.632 5.632 0 0061.875 30V15a5.632 5.632 0 00-5.625-5.625h-37.5A5.632 5.632 0 0013.125 15v15a5.632 5.632 0 005.625 5.625zM16.875 15c0-1.033.84-1.875 1.875-1.875h37.5c1.035 0 1.875.842 1.875 1.875v15c0 1.033-.84 1.875-1.875 1.875h-5.625v6.821c0 .574-.833.88-1.2.433L38.04 31.875H18.75A1.877 1.877 0 0116.875 30V15z" fill="#043A52"/><path d="M20.625 16.875h33.75v3.75h-33.75v-3.75zm0 7.5h33.75v3.75h-33.75v-3.75z" fill="#043A52"/></svg>