<svg width="120" height="120" fill="none" xmlns="http://www.w3.org/2000/svg"><path d="M27.443 73.996l-2.497-1.882-2.497 1.882-.872-.417a7.983 7.983 0 01-2.545-1.924l-.598-.673.957-3.054-2.495-1.88.1-.9c.122-1.107.516-2.381 1.03-3.324l.454-.834 3.047.013.938-2.843.902-.186a7.705 7.705 0 013.159 0l.896.185.957 2.847 2.866-.02.456.837c.692 1.27 1.095 2.388 1.199 3.323l.1.901-2.495 1.879.957 3.054-.599.674a8.03 8.03 0 01-2.544 1.923l-.876.419zm18.246-.19l-2.438-1.838-2.439 1.838-.852-.407a7.796 7.796 0 01-2.485-1.879l-.584-.658.934-2.982-2.436-1.835.098-.88c.12-1.08.503-2.325 1.006-3.245l.443-.815 2.976.012.916-2.775.88-.182a7.524 7.524 0 013.085 0l.876.18.934 2.78 2.8-.02.444.818c.676 1.241 1.07 2.333 1.17 3.245l.099.88-2.437 1.835.935 2.983-.585.658a7.84 7.84 0 01-2.485 1.878l-.855.409zm17.611 0l-2.438-1.838-2.438 1.838-.852-.407a7.797 7.797 0 01-2.485-1.879l-.585-.658.935-2.982L53 66.045l.098-.88c.12-1.08.504-2.325 1.006-3.245l.443-.815 2.976.012.916-2.775.88-.182a7.524 7.524 0 013.085 0l.876.18.934 2.78 2.8-.02.444.818c.677 1.241 1.07 2.333 1.171 3.245l.098.88-2.437 1.835.935 2.983-.585.658a7.841 7.841 0 01-2.485 1.878l-.855.409z" fill="#00BBD3"/><path d="M116.788 56.375a5.58 5.58 0 001.462-3.75A5.632 5.632 0 00112.625 47h-9.375a1.877 1.877 0 01-1.875-1.875V32c0-4.136-3.364-7.5-7.5-7.5a3.754 3.754 0 00-3.75 3.75v10.116c0 4.777-2.374 9.213-6.35 11.865-2.134 1.423-4.593 2.2-7.139 2.338-.791-2.149-2.84-3.694-5.261-3.694h-2.392c-6.235-11.587-18.132-18.75-31.358-18.75C17.981 30.125 2 46.105 2 65.75c0 10.984 5.003 20.816 12.842 27.356l-6.33 20.575 13.607-4.536 8.981 8.981 4.492-16.854c.677.039 1.347.103 2.033.103.684 0 1.363-.034 2.042-.071l4.485 16.82 8.981-8.981 13.607 4.536-6.313-20.517c3.44-2.87 6.349-6.43 8.557-10.537h2.391c2.441 0 4.504-1.573 5.28-3.75h1.916l3.604 1.202a13.14 13.14 0 004.151.673h26.299a5.632 5.632 0 005.625-5.625c0-1.446-.564-2.752-1.462-3.75a5.58 5.58 0 001.462-3.75c0-1.446-.564-2.752-1.462-3.75a5.58 5.58 0 001.462-3.75c0-1.446-.564-2.752-1.462-3.75zM29.15 110.874l-6.019-6.019-8.893 2.964 3.799-12.345a35.377 35.377 0 0013.785 5.385l-2.672 10.015zm31.862-3.055l-8.893-2.964-6.019 6.019-2.664-9.986a35.347 35.347 0 0013.79-5.372l3.786 12.303zM37.625 97.625C20.049 97.625 5.75 83.326 5.75 65.75s14.299-31.875 31.875-31.875c11.143 0 21.23 5.683 27.032 15h-4.583c-5.306-7.044-13.603-11.25-22.447-11.25-15.508 0-28.125 12.617-28.125 28.125s12.617 28.125 28.125 28.125c8.846 0 17.143-4.206 22.447-11.25h4.583c-5.801 9.317-15.889 15-27.032 15zm17.537-48.75H20.077c4.438-4.612 10.657-7.5 17.548-7.5 6.67 0 12.975 2.767 17.537 7.5zm-35.085 33.75h35.085c-4.562 4.733-10.868 7.5-17.537 7.5-6.89 0-13.11-2.888-17.548-7.5zM73.25 77c0 1.033-.84 1.875-1.875 1.875H17.118c-2.435-3.793-3.868-8.291-3.868-13.125s1.432-9.332 3.868-13.125h54.257c1.035 0 1.875.842 1.875 1.875V77zm39.375 0H86.326a9.324 9.324 0 01-2.964-.482l-4.183-1.393H77V56.292c3.16-.198 6.203-1.173 8.856-2.941a17.977 17.977 0 008.019-14.985V28.25a3.754 3.754 0 013.75 3.75v13.125a5.632 5.632 0 005.625 5.625h9.375c1.035 0 1.875.842 1.875 1.875s-.84 1.875-1.875 1.875H107v3.75h5.625c1.035 0 1.875.842 1.875 1.875S113.66 62 112.625 62H107v3.75h5.625c1.035 0 1.875.842 1.875 1.875s-.84 1.875-1.875 1.875H107v3.75h5.625c1.035 0 1.875.842 1.875 1.875S113.66 77 112.625 77zm-4.037-56.25l2.743-16.447-9.116 4.558-2.072-4.146A4.889 4.889 0 0095.75 2a4.887 4.887 0 00-4.391 2.713L89.287 8.86 80.17 4.303l2.743 16.447h25.676zm-17.625-6.859l3.75-7.5c.396-.793 1.678-.791 2.072 0l3.75 7.5 5.884-2.942L105.412 17H86.088l-1.006-6.053 5.881 2.944z" fill="#043A52"/></svg>