<svg width="120" height="120" fill="none" xmlns="http://www.w3.org/2000/svg"><path d="M38.75 30L37.5 48.75l3.75 3.75L45 48.75 43.75 30h-5zm56.875 9.375c-8.27 0-15-6.73-15-15s6.73-15 15-15c8.271 0 15 6.73 15 15s-6.729 15-15 15z" fill="#00BBD3"/><path d="M118.125 25.63v-1.255c0-12.407-10.093-22.5-22.5-22.5s-22.5 10.093-22.5 22.5v1.254c0 4.46 1.307 8.775 3.78 12.48l9.167 13.752c-5.738 1.62-9.197 4.623-9.197 8.139v24.212c-1.888-1.24-4.429-2.22-7.5-2.85V70.607c0-2.505-.977-4.86-2.747-6.63L54.375 51.724V40.986A20.823 20.823 0 0071.25 20.522V8.438a6.57 6.57 0 00-6.563-6.563 6.57 6.57 0 00-6.562 6.563v9.506a9.339 9.339 0 01-6.6 8.95 13.049 13.049 0 002.85-8.144c0-7.238-5.89-13.125-13.125-13.125-7.236 0-13.125 5.887-13.125 13.125 0 3.776 1.613 7.174 4.172 9.57-8.599.996-16.425 5.957-20.927 13.459L2.771 56.11a6.268 6.268 0 00-.896 3.235 6.287 6.287 0 006.281 6.279h.739a6.268 6.268 0 005.224-2.796L25.73 45.411a5.113 5.113 0 012.394-1.932v20.008l-7.219 25.266c-.005.019-.007.038-.011.055-7.142 1.402-11.52 4.67-11.52 8.692v11.25c0 5.346 8.06 9.375 18.75 9.375 7.627 0 13.898-2.059 16.875-5.175 2.977 3.118 9.248 5.175 16.875 5.175 7.627 0 13.897-2.059 16.875-5.175 2.978 3.118 9.248 5.175 16.875 5.175 10.689 0 18.75-4.029 18.75-9.375V60c0-3.52-3.459-6.52-9.197-8.138l9.167-13.75a22.42 22.42 0 003.78-12.483zM69.293 85.186c4.936 1.145 7.582 3.229 7.582 4.813 0 2.295-5.843 5.625-15 5.625s-15-3.33-15-5.625c0-1.584 2.646-3.668 7.583-4.813.41 3.75 3.558 6.688 7.417 6.688s7.007-2.938 7.418-6.688zm-26.168 6.536c-1.704-1.121-3.943-2.03-6.62-2.662l7.93-25.114 9.94 9.73v7.685c-6.98 1.43-11.25 4.669-11.25 8.638v1.723zM31.875 18.75c0-5.17 4.206-9.375 9.375-9.375 5.17 0 9.375 4.206 9.375 9.375 0 5.17-4.206 9.375-9.375 9.375-5.17 0-9.375-4.206-9.375-9.375zm-7.5 72.007c0-.33.045-.656.137-.973l7.292-25.52.071-24.889H30a8.866 8.866 0 00-7.39 3.954L11 60.75a2.53 2.53 0 01-2.106 1.126h-.737a2.532 2.532 0 01-2.171-3.83l8.6-14.335c4.38-7.301 12.39-11.835 20.903-11.835l5.593-.01c.056.003.11.01.169.01.062 0 .12-.008.18-.01h.012a13.243 13.243 0 002.213-.22l6.4-.64a13.087 13.087 0 0011.819-13.061V8.438a2.816 2.816 0 012.813-2.813A2.816 2.816 0 0167.5 8.438v12.084a17.079 17.079 0 01-15.206 16.991l-1.669.184v15.58l13.352 13.351a5.588 5.588 0 011.648 3.979v13.768a3.754 3.754 0 01-3.75 3.75 3.754 3.754 0 01-3.75-3.75V73.676a3.77 3.77 0 00-1.129-2.681L45.765 60h-4.014L31.28 93.156a3.518 3.518 0 01-3.37 2.469 3.54 3.54 0 01-3.536-3.536v-1.332zm-3.69 1.934c.313 3.733 3.414 6.684 7.226 6.684a7.254 7.254 0 006.945-5.093l.512-1.623c5.035 1.143 7.757 3.258 7.757 4.841 0 2.295-5.843 5.625-15 5.625s-15-3.33-15-5.625c0-1.582 2.638-3.662 7.56-4.81zm7.44 21.684c-9.157 0-15-3.33-15-5.625v-5.505c3.364 2.233 8.72 3.63 15 3.63 6.28 0 11.636-1.397 15-3.63v5.505c0 2.295-5.843 5.625-15 5.625zm33.75 0c-9.157 0-15-3.33-15-5.625V95.745c3.364 2.233 8.72 3.63 15 3.63 6.28 0 11.636-1.397 15-3.63v13.005c0 2.295-5.843 5.625-15 5.625zm33.75 0c-9.157 0-15-3.33-15-5.625V65.745c3.364 2.233 8.72 3.63 15 3.63 6.279 0 11.636-1.397 15-3.63v43.005c0 2.295-5.842 5.625-15 5.625zm15-54.375c0 2.295-5.842 5.625-15 5.625-9.157 0-15-3.33-15-5.625 0-1.543 2.696-3.662 7.663-4.815l2.863 4.294a5.363 5.363 0 004.474 2.396 5.373 5.373 0 004.476-2.394l2.863-4.294c4.967 1.151 7.661 3.266 7.661 4.813zm-13.644-2.6c-.604.907-2.106.907-2.71 0L80.025 36.03a18.678 18.678 0 01-3.15-10.4v-1.255c0-10.339 8.411-18.75 18.75-18.75s18.75 8.411 18.75 18.75v1.254c0 3.715-1.089 7.311-3.15 10.401L96.981 57.4z" fill="#043A52"/><path d="M84.375 73.125h3.75v3.75h-3.75v-3.75zm0 7.5h3.75v26.25h-3.75v-26.25z" fill="#043A52"/></svg>