<svg width="331" height="463" viewBox="0 0 331 463" fill="none" xmlns="http://www.w3.org/2000/svg">
<g filter="url(#filter0_d)">
<rect width="20" height="160" transform="matrix(0 -1 -1 0 246 324)" stroke="#00BBD3" stroke-width="2" stroke-linejoin="round"/>
</g>
<g filter="url(#filter1_d)">
<rect x="11" y="11" width="309" height="441" rx="20" stroke="#00BBD3" stroke-width="2"/>
</g>
<rect opacity="0.2" width="6.08846" height="157.5" transform="matrix(1.02192e-07 -1 -1 3.06159e-08 243.75 353.213)" fill="#00BBD3"/>
<rect opacity="0.2" width="5.62501" height="157.5" transform="matrix(1.02192e-07 -1 -1 3.06159e-08 243.75 362.875)" fill="#00BBD3"/>
<rect opacity="0.2" width="6.29842" height="157.5" transform="matrix(1.02192e-07 -1 -1 3.06159e-08 243.75 373.579)" fill="#00BBD3"/>
<rect opacity="0.2" width="5.625" height="131.625" transform="matrix(1.50553e-08 -1 -1 1.11983e-08 217.875 383.125)" fill="#00BBD3"/>
<path opacity="0.3" d="M163.004 71L179.462 135.659M179.462 135.659L167.706 266.742M179.462 135.659L86 166.814M179.462 135.659L250 175.631" stroke="#00BBD3" stroke-width="2"/>
<g filter="url(#filter2_d)">
<path d="M86 167.401L149.484 212.075M86 167.401L163.591 71M86 167.401L168.294 267.918M149.484 212.075L250 176.806M149.484 212.075L163.591 71M149.484 212.075L168.294 267.918M250 176.806L163.591 71M250 176.806L168.294 267.918" stroke="#00BBD3" stroke-width="2" stroke-linejoin="round"/>
</g>
<defs>
<filter id="filter0_d" x="65" y="287" width="202" height="62" filterUnits="userSpaceOnUse" color-interpolation-filters="sRGB">
<feFlood flood-opacity="0" result="BackgroundImageFix"/>
<feColorMatrix in="SourceAlpha" type="matrix" values="0 0 0 0 0 0 0 0 0 0 0 0 0 0 0 0 0 0 127 0"/>
<feOffset dy="4"/>
<feGaussianBlur stdDeviation="10"/>
<feColorMatrix type="matrix" values="0 0 0 0 0 0 0 0 0 0.733333 0 0 0 0 0.827451 0 0 0 0.36 0"/>
<feBlend mode="normal" in2="BackgroundImageFix" result="effect1_dropShadow"/>
<feBlend mode="normal" in="SourceGraphic" in2="effect1_dropShadow" result="shape"/>
</filter>
<filter id="filter1_d" x="0" y="0" width="331" height="463" filterUnits="userSpaceOnUse" color-interpolation-filters="sRGB">
<feFlood flood-opacity="0" result="BackgroundImageFix"/>
<feColorMatrix in="SourceAlpha" type="matrix" values="0 0 0 0 0 0 0 0 0 0 0 0 0 0 0 0 0 0 127 0"/>
<feOffset/>
<feGaussianBlur stdDeviation="5"/>
<feColorMatrix type="matrix" values="0 0 0 0 0 0 0 0 0 0.733333 0 0 0 0 0.827451 0 0 0 0.36 0"/>
<feBlend mode="normal" in2="BackgroundImageFix" result="effect1_dropShadow"/>
<feBlend mode="normal" in="SourceGraphic" in2="effect1_dropShadow" result="shape"/>
</filter>
<filter id="filter2_d" x="75" y="60" width="186" height="218.918" filterUnits="userSpaceOnUse" color-interpolation-filters="sRGB">
<feFlood flood-opacity="0" result="BackgroundImageFix"/>
<feColorMatrix in="SourceAlpha" type="matrix" values="0 0 0 0 0 0 0 0 0 0 0 0 0 0 0 0 0 0 127 0"/>
<feOffset/>
<feGaussianBlur stdDeviation="5"/>
<feColorMatrix type="matrix" values="0 0 0 0 0 0 0 0 0 0.733333 0 0 0 0 0.827451 0 0 0 0.36 0"/>
<feBlend mode="normal" in2="BackgroundImageFix" result="effect1_dropShadow"/>
<feBlend mode="normal" in="SourceGraphic" in2="effect1_dropShadow" result="shape"/>
</filter>
</defs>
</svg>