<svg width="331" height="463" fill="none" xmlns="http://www.w3.org/2000/svg"><g filter="url(#filter0_d)"><path stroke="#00BBD3" stroke-width="2" stroke-linejoin="round" d="M246 324v-20H86v20z"/></g><g filter="url(#filter1_d)"><rect x="11" y="11" width="309" height="441" rx="20" stroke="#00BBD3" stroke-width="2"/></g><path opacity=".2" fill="#00BBD3" d="M243.75 353.213v-6.088H86.25v6.088zm0 9.662v-5.625H86.25v5.625zm0 10.704v-6.298H86.25v6.298zm-25.875 9.546V377.5H86.25v5.625z"/><path opacity=".3" d="M163.004 71l16.458 64.659m0 0l-11.756 131.083m11.756-131.083L86 166.814m93.462-31.155L250 175.631" stroke="#00BBD3" stroke-width="2"/><g filter="url(#filter2_d)"><path d="M86 167.401l63.484 44.674M86 167.401L163.591 71M86 167.401l82.294 100.517m-18.81-55.843L250 176.806m-100.516 35.269L163.591 71m-14.107 141.075l18.81 55.843M250 176.806L163.591 71M250 176.806l-81.706 91.112" stroke="#00BBD3" stroke-width="2" stroke-linejoin="round"/></g><defs><filter id="filter0_d" x="65" y="287" width="202" height="62" filterUnits="userSpaceOnUse" color-interpolation-filters="sRGB"><feFlood flood-opacity="0" result="BackgroundImageFix"/><feColorMatrix in="SourceAlpha" values="0 0 0 0 0 0 0 0 0 0 0 0 0 0 0 0 0 0 127 0"/><feOffset dy="4"/><feGaussianBlur stdDeviation="10"/><feColorMatrix values="0 0 0 0 0 0 0 0 0 0.733333 0 0 0 0 0.827451 0 0 0 0.36 0"/><feBlend in2="BackgroundImageFix" result="effect1_dropShadow"/><feBlend in="SourceGraphic" in2="effect1_dropShadow" result="shape"/></filter><filter id="filter1_d" x="0" y="0" width="331" height="463" filterUnits="userSpaceOnUse" color-interpolation-filters="sRGB"><feFlood flood-opacity="0" result="BackgroundImageFix"/><feColorMatrix in="SourceAlpha" values="0 0 0 0 0 0 0 0 0 0 0 0 0 0 0 0 0 0 127 0"/><feOffset/><feGaussianBlur stdDeviation="5"/><feColorMatrix values="0 0 0 0 0 0 0 0 0 0.733333 0 0 0 0 0.827451 0 0 0 0.36 0"/><feBlend in2="BackgroundImageFix" result="effect1_dropShadow"/><feBlend in="SourceGraphic" in2="effect1_dropShadow" result="shape"/></filter><filter id="filter2_d" x="75" y="60" width="186" height="218.918" filterUnits="userSpaceOnUse" color-interpolation-filters="sRGB"><feFlood flood-opacity="0" result="BackgroundImageFix"/><feColorMatrix in="SourceAlpha" values="0 0 0 0 0 0 0 0 0 0 0 0 0 0 0 0 0 0 127 0"/><feOffset/><feGaussianBlur stdDeviation="5"/><feColorMatrix values="0 0 0 0 0 0 0 0 0 0.733333 0 0 0 0 0.827451 0 0 0 0.36 0"/><feBlend in2="BackgroundImageFix" result="effect1_dropShadow"/><feBlend in="SourceGraphic" in2="effect1_dropShadow" result="shape"/></filter></defs></svg>