<svg width="331" height="463" fill="none" xmlns="http://www.w3.org/2000/svg"><g filter="url(#filter0_d)"><rect x="11" y="11" width="309" height="441" rx="20" stroke="#00BBD3" stroke-width="2"/></g><g filter="url(#filter1_d)"><rect x="58" y="173" width="47" height="217" rx="4" transform="rotate(-90 58 173)" stroke="#00BBD3" stroke-width="2"/></g><path opacity=".2" fill="#00BBD3" d="M267 65v-6H129.001v6zm0 10v-6H129.001v6zm0 10v-6H129.001v6zm-22.672 10v-6H129v6z"/><path d="M57 77c0 13.807 11.193 25 25 25s25-11.193 25-25-11.193-25-25-25-25 11.193-25 25zm45 0c0 11.046-8.954 20-20 20s-20-8.954-20-20 8.954-20 20-20 20 8.954 20 20z" fill="#00BBD3" fill-opacity=".1"/><path d="M59.5 77c-1.38 0-2.513 1.122-2.375 2.496a25 25 0 1027.37-27.371C83.123 51.987 82 53.119 82 54.5c0 1.38 1.124 2.484 2.494 2.656a20 20 0 11-22.338 22.338C61.984 78.124 60.881 77 59.5 77z" fill="url(#paint0_linear)"/><path d="M59 221.542h15.569v192.011H59zm18.164 0h15.569v192.011H77.164zm18.163 0h15.569v192.011H95.327zm18.163 0h15.569v192.011H113.49zm18.163 0h15.569v192.011h-15.569zm18.162 0h15.569v192.011h-15.569zm18.164 0h15.569v192.011h-15.569zm18.164 0h15.569v192.011h-15.569zm18.163 0h15.569v192.011h-15.569zm18.163 0h15.569v192.011h-15.569zm18.163 0h15.569v192.011h-15.569zm18.163 0h15.569v192.011h-15.569z" opacity=".05" fill="#00BBD3"/><path opacity=".2" d="M94.066 299.188l-18.183 35.496L59 413.956h215.589V221.625h-53.248l-37.014 41.585-35.715 9.747-18.831 26.231H94.066z" fill="url(#paint1_linear)"/><g filter="url(#filter2_d)"><path d="M289.707 414.663a.999.999 0 000-1.414l-6.364-6.364a.999.999 0 10-1.414 1.414l5.657 5.657-5.657 5.657a.999.999 0 101.414 1.414l6.364-6.364zM59 414.956h230v-2H59v2z" fill="#00BBD3"/></g><g filter="url(#filter3_d)"><path d="M59.707 207.293a1 1 0 00-1.414 0l-6.364 6.364a1 1 0 101.414 1.414L59 209.414l5.657 5.657a1 1 0 101.414-1.414l-6.364-6.364zM60 415V208h-2v207h2z" fill="#00BBD3"/></g><path d="M59 413.956l16.883-79.921 18.183-34.597h36.364l18.182-26.481 36.002-9.489 36.727-41.843h53.248" stroke="#00BBD3" stroke-width="2"/><g filter="url(#filter4_d)"><path fill-rule="evenodd" clip-rule="evenodd" d="M109 133.5a1.5 1.5 0 00-3 0v30a1.5 1.5 0 003 0v-30zm24 1a1.5 1.5 0 00-3 0v28a1.5 1.5 0 003 0v-28zm22.5 2.5a1.5 1.5 0 011.5 1.5v20a1.5 1.5 0 01-3 0v-20a1.5 1.5 0 011.5-1.5zm73.5 1.5a1.5 1.5 0 00-3 0v20a1.5 1.5 0 003 0v-20zm-49.5 2.5a1.5 1.5 0 011.5 1.5v12a1.5 1.5 0 01-3 0v-12a1.5 1.5 0 011.5-1.5zm25.5 1.5a1.5 1.5 0 00-3 0v13a1.5 1.5 0 003 0v-13zm-7.5 2.5a1.5 1.5 0 011.5 1.5v4a1.5 1.5 0 01-3 0v-4a1.5 1.5 0 011.5-1.5zm-4.5 1.5a1.5 1.5 0 00-3 0v4a1.5 1.5 0 003 0v-4zm-7.5-2.5a1.5 1.5 0 011.5 1.5v6a1.5 1.5 0 01-3 0v-6a1.5 1.5 0 011.5-1.5zm-22.5 1.5a1.5 1.5 0 00-3 0v6a1.5 1.5 0 003 0v-6zm-25.5-1.5a1.5 1.5 0 011.5 1.5v6a1.5 1.5 0 01-3 0v-6a1.5 1.5 0 011.5-1.5zm73.5 1.5a1.5 1.5 0 00-3 0v6a1.5 1.5 0 003 0v-6zM101.5 144a1.5 1.5 0 011.5 1.5v6a1.5 1.5 0 01-3 0v-6a1.5 1.5 0 011.5-1.5zm43.5 2.5a1.5 1.5 0 00-3 0v4a1.5 1.5 0 003 0v-4zm70.5-1.5a1.5 1.5 0 011.5 1.5v4a1.5 1.5 0 01-3 0v-4a1.5 1.5 0 011.5-1.5zm-46.5 1.5a1.5 1.5 0 00-3 0v4a1.5 1.5 0 003 0v-4zm4.5-1.5a1.5 1.5 0 011.5 1.5v4a1.5 1.5 0 01-3 0v-4a1.5 1.5 0 011.5-1.5zm-58.5 1.5a1.5 1.5 0 00-3 0v4a1.5 1.5 0 003 0v-4zm118.5-1.5a1.5 1.5 0 011.5 1.5v4a1.5 1.5 0 01-3 0v-4a1.5 1.5 0 011.5-1.5zm-82.5 2.5a1.5 1.5 0 00-3 0v2a1.5 1.5 0 003 0v-2zm70.5-1.5a1.5 1.5 0 011.5 1.5v2a1.5 1.5 0 01-3 0v-2a1.5 1.5 0 011.5-1.5zm-94.5 1.5a1.5 1.5 0 00-3 0v2a1.5 1.5 0 003 0v-2zm118.5-1.5a1.5 1.5 0 011.5 1.5v2a1.5 1.5 0 01-3 0v-2a1.5 1.5 0 011.5-1.5zM121 147.5a1.5 1.5 0 00-3 0v2a1.5 1.5 0 003 0v-2zm118.5-1.5a1.5 1.5 0 011.5 1.5v2a1.5 1.5 0 01-3 0v-2a1.5 1.5 0 011.5-1.5zM91 147.5a1.5 1.5 0 00-3 0v2a1.5 1.5 0 003 0v-2zm-7.5-1.5a1.5 1.5 0 011.5 1.5v2a1.5 1.5 0 01-3 0v-2a1.5 1.5 0 011.5-1.5zm13.5 1.5a1.5 1.5 0 00-3 0v2a1.5 1.5 0 003 0v-2z" fill="#00BBD3"/></g><defs><filter id="filter0_d" x="0" y="0" width="331" height="463" filterUnits="userSpaceOnUse" color-interpolation-filters="sRGB"><feFlood flood-opacity="0" result="BackgroundImageFix"/><feColorMatrix in="SourceAlpha" values="0 0 0 0 0 0 0 0 0 0 0 0 0 0 0 0 0 0 127 0"/><feOffset/><feGaussianBlur stdDeviation="5"/><feColorMatrix values="0 0 0 0 0 0 0 0 0 0.733333 0 0 0 0 0.827451 0 0 0 0.36 0"/><feBlend in2="BackgroundImageFix" result="effect1_dropShadow"/><feBlend in="SourceGraphic" in2="effect1_dropShadow" result="shape"/></filter><filter id="filter1_d" x="47" y="115" width="239" height="69" filterUnits="userSpaceOnUse" color-interpolation-filters="sRGB"><feFlood flood-opacity="0" result="BackgroundImageFix"/><feColorMatrix in="SourceAlpha" values="0 0 0 0 0 0 0 0 0 0 0 0 0 0 0 0 0 0 127 0"/><feOffset/><feGaussianBlur stdDeviation="5"/><feColorMatrix values="0 0 0 0 0 0 0 0 0 0.733333 0 0 0 0 0.827451 0 0 0 0.36 0"/><feBlend in2="BackgroundImageFix" result="effect1_dropShadow"/><feBlend in="SourceGraphic" in2="effect1_dropShadow" result="shape"/></filter><filter id="filter2_d" x="49" y="396.592" width="251" height="34.728" filterUnits="userSpaceOnUse" color-interpolation-filters="sRGB"><feFlood flood-opacity="0" result="BackgroundImageFix"/><feColorMatrix in="SourceAlpha" values="0 0 0 0 0 0 0 0 0 0 0 0 0 0 0 0 0 0 127 0"/><feOffset/><feGaussianBlur stdDeviation="5"/><feColorMatrix values="0 0 0 0 0 0 0 0 0 0.733333 0 0 0 0 0.827451 0 0 0 0.36 0"/><feBlend in2="BackgroundImageFix" result="effect1_dropShadow"/><feBlend in="SourceGraphic" in2="effect1_dropShadow" result="shape"/></filter><filter id="filter3_d" x="41.636" y="197" width="34.728" height="228" filterUnits="userSpaceOnUse" color-interpolation-filters="sRGB"><feFlood flood-opacity="0" result="BackgroundImageFix"/><feColorMatrix in="SourceAlpha" values="0 0 0 0 0 0 0 0 0 0 0 0 0 0 0 0 0 0 127 0"/><feOffset/><feGaussianBlur stdDeviation="5"/><feColorMatrix values="0 0 0 0 0 0 0 0 0 0.733333 0 0 0 0 0.827451 0 0 0 0.36 0"/><feBlend in2="BackgroundImageFix" result="effect1_dropShadow"/><feBlend in="SourceGraphic" in2="effect1_dropShadow" result="shape"/></filter><filter id="filter4_d" x="72" y="122" width="185" height="53" filterUnits="userSpaceOnUse" color-interpolation-filters="sRGB"><feFlood flood-opacity="0" result="BackgroundImageFix"/><feColorMatrix in="SourceAlpha" values="0 0 0 0 0 0 0 0 0 0 0 0 0 0 0 0 0 0 127 0"/><feOffset/><feGaussianBlur stdDeviation="5"/><feColorMatrix values="0 0 0 0 0 0 0 0 0 0.733333 0 0 0 0 0.827451 0 0 0 0.36 0"/><feBlend in2="BackgroundImageFix" result="effect1_dropShadow"/><feBlend in="SourceGraphic" in2="effect1_dropShadow" result="shape"/></filter><linearGradient id="paint0_linear" x1="61.839" y1="80.024" x2="84.419" y2="55.226" gradientUnits="userSpaceOnUse"><stop stop-color="#00BBD3"/><stop offset="1" stop-color="#00BBD3" stop-opacity="0"/></linearGradient><linearGradient id="paint1_linear" x1="166.794" y1="221.625" x2="166.794" y2="413.956" gradientUnits="userSpaceOnUse"><stop stop-color="#00BBD3" stop-opacity=".36"/><stop offset="1" stop-color="#00BBD3"/></linearGradient></defs></svg>