<svg width="409" height="480" fill="none" xmlns="http://www.w3.org/2000/svg"><path opacity=".5" d="M211.56 227.515l-72.733 9.038 24.677 61.539m48.056-70.577l61.911 9.038-21.647 61.539m-40.264-70.577l-4.117-26.673m4.117 26.673l-48.056 70.577m48.056-70.577l40.264 70.577m0 0l-47.191 53.793-41.129-53.793m88.32 0h-88.32m88.32 0l21.647 15.062m-109.967-15.062l-24.677 17.214" stroke="#00BBD3" stroke-width="2"/><g filter="url(#filter0_d)"><path d="M207.432 200.842l-69.469 36.147m69.469-36.147l66.038 36.147m-66.038-36.147l33.019 50.778m-33.019-50.778L157.26 251.62m-19.297-14.631v78.749m0-78.749l19.297 14.631m-19.297 64.118l19.297-64.118m-19.297 64.118l66.467 36.147m-66.467-36.147l54.889 7.746M157.26 251.62l35.592 71.864M157.26 251.62h83.191m-47.599 71.864l47.599-71.864m-47.599 71.864l80.618-10.758m-80.618 10.758l11.578 28.401m36.021-100.265l33.019 61.106m-33.019-61.106l33.019-14.631m0 75.737v-75.737m0 75.737l-69.04 39.159" stroke="#00BBD3" stroke-width="2"/></g><g filter="url(#filter1_d)"><path d="M217.628 142.253c34.703 3.49 66.718 20.178 89.383 46.589 22.665 26.411 34.234 60.512 32.303 95.205-1.931 34.694-17.215 67.31-42.673 91.063-25.458 23.752-59.129 36.81-94.007 36.454-34.878-.356-68.274-14.099-93.238-38.366s-39.574-57.189-40.791-91.914c-1.218-34.726 11.05-68.583 34.254-94.526 23.203-25.943 55.554-41.974 90.322-44.754" stroke="#00BBD3" stroke-width="4" stroke-linecap="round"/></g><path opacity=".2" fill-rule="evenodd" clip-rule="evenodd" d="M164.798 130.699A150.322 150.322 0 0058.503 314.808a8 8 0 01-15.455 4.141 166.324 166.324 0 01117.609-203.705 8 8 0 014.141 15.455zM355.099 323.68a8 8 0 01-5.657-9.798 150.327 150.327 0 00-106.295-184.11 8 8 0 014.141-15.455 166.324 166.324 0 01117.609 203.706 8 8 0 01-9.798 5.657zm-257.42 58.054a8 8 0 00-11.314 11.314 166.324 166.324 0 00235.219 0 8 8 0 00-11.314-11.314 150.325 150.325 0 01-212.59 0z" fill="#00BBD3"/><g opacity=".2" fill-rule="evenodd" clip-rule="evenodd" fill="#00BBD3"><path d="M116.14 358.553a4 4 0 015.656.04 117.112 117.112 0 0082.558 34.892 117.106 117.106 0 0083.05-33.706 4 4 0 115.616 5.697 125.095 125.095 0 01-88.723 36.008 125.115 125.115 0 01-88.198-37.274 4 4 0 01.041-5.657zm60.368-200.226a3.999 3.999 0 01-2.812 4.908 117.1 117.1 0 00-70.924 54.801 117.11 117.11 0 00-11.401 88.9 4 4 0 01-7.72 2.097 125.11 125.11 0 0144.241-131.782 125.111 125.111 0 0143.707-21.736 4 4 0 014.909 2.812zm140.448 151.631a4 4 0 007.663 2.299 125.114 125.114 0 00-9.681-95.261 125.113 125.113 0 00-74.205-60.514 4 4 0 00-2.299 7.663 117.102 117.102 0 0178.522 145.813z"/><path d="M116.14 358.553a4 4 0 015.656.04 117.112 117.112 0 0082.558 34.892 117.106 117.106 0 0083.05-33.706 4 4 0 115.616 5.697 125.095 125.095 0 01-88.723 36.008 125.115 125.115 0 01-88.198-37.274 4 4 0 01.041-5.657zm60.368-200.226a3.999 3.999 0 01-2.812 4.908 117.1 117.1 0 00-70.924 54.801 117.11 117.11 0 00-11.401 88.9 4 4 0 01-7.72 2.097 125.11 125.11 0 0144.241-131.782 125.111 125.111 0 0143.707-21.736 4 4 0 014.909 2.812zm140.448 151.631a4 4 0 007.663 2.299 125.114 125.114 0 00-9.681-95.261 125.113 125.113 0 00-74.205-60.514 4 4 0 00-2.299 7.663 117.102 117.102 0 0178.522 145.813z"/></g><circle opacity=".2" r="8" transform="matrix(1 0 0 -1 342 352)" fill="#00BBD3"/><circle opacity=".2" r="8" transform="matrix(1 0 0 -1 67 356)" fill="#00BBD3"/><g filter="url(#filter2_d)"><circle r="2" transform="matrix(1 0 0 -1 206 142)" fill="#00BBD3"/></g><g filter="url(#filter3_d)"><circle r="2" transform="matrix(1 0 0 -1 206 133)" fill="#00BBD3"/></g><g filter="url(#filter4_d)"><circle r="2" transform="matrix(1 0 0 -1 206 102)" fill="#00BBD3"/></g><g filter="url(#filter5_d)"><circle r="8" transform="matrix(1 0 0 -1 206 117)" fill="#00BBD3"/></g><g filter="url(#filter6_d)"><circle r="2" transform="matrix(1 0 0 -1 206 92)" fill="#00BBD3"/></g><g filter="url(#filter7_d)"><circle cx="206.5" cy="49.5" r="33.5" stroke="#00BBD3" stroke-width="2"/></g><path opacity=".2" d="M183.345 87.881a45 45 0 1144.087.688" stroke="#00BBD3" stroke-width="8" stroke-linecap="round"/><g filter="url(#filter8_d)"><path fill-rule="evenodd" clip-rule="evenodd" d="M201.22 40.255c0-3.605 2.475-6.255 5.218-6.255s5.218 2.65 5.218 6.255c0 3.604-2.475 6.254-5.218 6.254s-5.218-2.65-5.218-6.254zM206.438 32c-4.126 0-7.218 3.846-7.218 8.255 0 4.408 3.092 8.254 7.218 8.254 4.126 0 7.218-3.846 7.218-8.254 0-4.41-3.092-8.255-7.218-8.255zm.517 19.691c-5.392 0-8.897 1.624-11.059 3.714C193.761 57.47 193 59.93 193 61.5a1 1 0 00.695.953l12.955 4.145a1 1 0 00.621-.004l12.436-4.145a1 1 0 00.684-.949c0-1.566-.757-4.021-2.819-6.083-2.092-2.093-5.469-3.726-10.617-3.726zm-.007 12.903l-11.879-3.802c.191-1.074.814-2.592 2.217-3.949 1.724-1.667 4.697-3.152 9.669-3.152 4.697 0 7.539 1.476 9.203 3.14 1.363 1.363 1.978 2.892 2.167 3.97l-11.377 3.793z" fill="#00BBD3"/></g><defs><filter id="filter0_d" x="126.963" y="189.709" width="157.507" height="173.321" filterUnits="userSpaceOnUse" color-interpolation-filters="sRGB"><feFlood flood-opacity="0" result="BackgroundImageFix"/><feColorMatrix in="SourceAlpha" values="0 0 0 0 0 0 0 0 0 0 0 0 0 0 0 0 0 0 127 0"/><feOffset/><feGaussianBlur stdDeviation="5"/><feColorMatrix values="0 0 0 0 0 0 0 0 0 0.733333 0 0 0 0 0.827451 0 0 0 0.36 0"/><feBlend in2="BackgroundImageFix" result="effect1_dropShadow"/><feBlend in="SourceGraphic" in2="effect1_dropShadow" result="shape"/></filter><filter id="filter1_d" x="56.522" y="130.003" width="295" height="293.567" filterUnits="userSpaceOnUse" color-interpolation-filters="sRGB"><feFlood flood-opacity="0" result="BackgroundImageFix"/><feColorMatrix in="SourceAlpha" values="0 0 0 0 0 0 0 0 0 0 0 0 0 0 0 0 0 0 127 0"/><feOffset/><feGaussianBlur stdDeviation="5"/><feColorMatrix values="0 0 0 0 0 0 0 0 0 0.733333 0 0 0 0 0.827451 0 0 0 0.36 0"/><feBlend in2="BackgroundImageFix" result="effect1_dropShadow"/><feBlend in="SourceGraphic" in2="effect1_dropShadow" result="shape"/></filter><filter id="filter2_d" x="194" y="130" width="24" height="24" filterUnits="userSpaceOnUse" color-interpolation-filters="sRGB"><feFlood flood-opacity="0" result="BackgroundImageFix"/><feColorMatrix in="SourceAlpha" values="0 0 0 0 0 0 0 0 0 0 0 0 0 0 0 0 0 0 127 0"/><feOffset/><feGaussianBlur stdDeviation="5"/><feColorMatrix values="0 0 0 0 0 0 0 0 0 0.733333 0 0 0 0 0.827451 0 0 0 0.36 0"/><feBlend in2="BackgroundImageFix" result="effect1_dropShadow"/><feBlend in="SourceGraphic" in2="effect1_dropShadow" result="shape"/></filter><filter id="filter3_d" x="194" y="121" width="24" height="24" filterUnits="userSpaceOnUse" color-interpolation-filters="sRGB"><feFlood flood-opacity="0" result="BackgroundImageFix"/><feColorMatrix in="SourceAlpha" values="0 0 0 0 0 0 0 0 0 0 0 0 0 0 0 0 0 0 127 0"/><feOffset/><feGaussianBlur stdDeviation="5"/><feColorMatrix values="0 0 0 0 0 0 0 0 0 0.733333 0 0 0 0 0.827451 0 0 0 0.36 0"/><feBlend in2="BackgroundImageFix" result="effect1_dropShadow"/><feBlend in="SourceGraphic" in2="effect1_dropShadow" result="shape"/></filter><filter id="filter4_d" x="194" y="90" width="24" height="24" filterUnits="userSpaceOnUse" color-interpolation-filters="sRGB"><feFlood flood-opacity="0" result="BackgroundImageFix"/><feColorMatrix in="SourceAlpha" values="0 0 0 0 0 0 0 0 0 0 0 0 0 0 0 0 0 0 127 0"/><feOffset/><feGaussianBlur stdDeviation="5"/><feColorMatrix values="0 0 0 0 0 0 0 0 0 0.733333 0 0 0 0 0.827451 0 0 0 0.36 0"/><feBlend in2="BackgroundImageFix" result="effect1_dropShadow"/><feBlend in="SourceGraphic" in2="effect1_dropShadow" result="shape"/></filter><filter id="filter5_d" x="188" y="99" width="36" height="36" filterUnits="userSpaceOnUse" color-interpolation-filters="sRGB"><feFlood flood-opacity="0" result="BackgroundImageFix"/><feColorMatrix in="SourceAlpha" values="0 0 0 0 0 0 0 0 0 0 0 0 0 0 0 0 0 0 127 0"/><feOffset/><feGaussianBlur stdDeviation="5"/><feColorMatrix values="0 0 0 0 0 0 0 0 0 0.733333 0 0 0 0 0.827451 0 0 0 0.36 0"/><feBlend in2="BackgroundImageFix" result="effect1_dropShadow"/><feBlend in="SourceGraphic" in2="effect1_dropShadow" result="shape"/></filter><filter id="filter6_d" x="194" y="80" width="24" height="24" filterUnits="userSpaceOnUse" color-interpolation-filters="sRGB"><feFlood flood-opacity="0" result="BackgroundImageFix"/><feColorMatrix in="SourceAlpha" values="0 0 0 0 0 0 0 0 0 0 0 0 0 0 0 0 0 0 127 0"/><feOffset/><feGaussianBlur stdDeviation="5"/><feColorMatrix values="0 0 0 0 0 0 0 0 0 0.733333 0 0 0 0 0.827451 0 0 0 0.36 0"/><feBlend in2="BackgroundImageFix" result="effect1_dropShadow"/><feBlend in="SourceGraphic" in2="effect1_dropShadow" result="shape"/></filter><filter id="filter7_d" x="162" y="5" width="89" height="89" filterUnits="userSpaceOnUse" color-interpolation-filters="sRGB"><feFlood flood-opacity="0" result="BackgroundImageFix"/><feColorMatrix in="SourceAlpha" values="0 0 0 0 0 0 0 0 0 0 0 0 0 0 0 0 0 0 127 0"/><feOffset/><feGaussianBlur stdDeviation="5"/><feColorMatrix values="0 0 0 0 0 0 0 0 0 0.733333 0 0 0 0 0.827451 0 0 0 0.36 0"/><feBlend in2="BackgroundImageFix" result="effect1_dropShadow"/><feBlend in="SourceGraphic" in2="effect1_dropShadow" result="shape"/></filter><filter id="filter8_d" x="173" y="14" width="67.391" height="74.646" filterUnits="userSpaceOnUse" color-interpolation-filters="sRGB"><feFlood flood-opacity="0" result="BackgroundImageFix"/><feColorMatrix in="SourceAlpha" values="0 0 0 0 0 0 0 0 0 0 0 0 0 0 0 0 0 0 127 0"/><feOffset dy="2"/><feGaussianBlur stdDeviation="10"/><feColorMatrix values="0 0 0 0 0 0 0 0 0 0.733333 0 0 0 0 0.827451 0 0 0 0.36 0"/><feBlend in2="BackgroundImageFix" result="effect1_dropShadow"/><feBlend in="SourceGraphic" in2="effect1_dropShadow" result="shape"/></filter></defs></svg>