<svg width="331" height="463" fill="none" xmlns="http://www.w3.org/2000/svg"><rect x="57" y="404" width="2" height="226" rx="1" transform="rotate(-90 57 404)" fill="#00BBD3"/><rect x="57" y="244" width="2" height="226" rx="1" transform="rotate(-90 57 244)" fill="#00BBD3"/><g filter="url(#filter0_d)"><rect width="12" height="12" rx="2" transform="matrix(1 0 0 -1 93 379)" stroke="#00BBD3"/></g><g filter="url(#filter1_d)"><rect width="12" height="12" rx="2" transform="matrix(1 0 0 -1 93 359)" stroke="#00BBD3"/></g><g filter="url(#filter2_d)"><rect width="12" height="12" rx="2" transform="matrix(1 0 0 -1 93 339)" stroke="#00BBD3"/></g><g filter="url(#filter3_d)"><rect width="12" height="12" rx="2" transform="matrix(1 0 0 -1 93 319)" stroke="#00BBD3"/></g><g filter="url(#filter4_d)"><rect width="12" height="12" rx="2" transform="matrix(1 0 0 -1 93 299)" stroke="#00BBD3"/></g><g filter="url(#filter5_d)"><rect width="12" height="12" rx="2" transform="matrix(1 0 0 -1 93 279)" stroke="#00BBD3"/></g><g filter="url(#filter6_d)"><path fill="#00BBD3" d="M97 355h4v-4h-4z"/></g><g filter="url(#filter7_d)"><path fill="#00BBD3" d="M97 295h4v-4h-4z"/></g><g filter="url(#filter8_d)"><path fill="#00BBD3" d="M97 275h4v-4h-4z"/></g><path opacity=".2" fill="#00BBD3" d="M199 299v-12h-75v12zm55 0v-12h-50v12zm12-20v-12H124v12zm-8 100v-12H124v12zm-19-60v-12H124v12zm45 20v-12H124v12zm-107 20v-12h-53v12zm99 0v-12h-95v12z"/><g filter="url(#filter9_d)"><rect width="309" height="441" rx="20" transform="matrix(-1 0 0 1 320 11)" stroke="#00BBD3" stroke-width="2"/></g><path opacity=".2" fill="#00BBD3" d="M284 118.132V111H167.001v7.132zm0 11.318v-6.589H167.001v6.589zm0 12.538v-7.378H167.001v7.378zm-19.222 11.183v-6.589H167v6.589zM284 176.132V169H167.001v7.132zm0 11.318v-6.589H167.001v6.589zm0 12.538v-7.378H167.001v7.378zm-19.222 11.183v-6.589H167v6.589z"/><g filter="url(#filter10_d)"><rect width="31" height="226" rx="4" transform="matrix(0 -1 -1 0 283 80)" stroke="#00BBD3" stroke-width="2" stroke-linejoin="round"/></g><path opacity=".3" d="M96.44 111l8.431 33.118m0 0l-6.021 67.14m6.021-67.14L57 160.075m47.871-15.957L141 164.591" stroke="#00BBD3" stroke-width="2"/><g filter="url(#filter11_d)"><path d="M57 160.376l32.516 22.882M57 160.376L96.742 111M57 160.376l42.15 51.484m-9.634-28.602L141 165.194m-51.484 18.064L96.742 111m-7.226 72.258l9.634 28.602M141 165.194L96.742 111M141 165.194L99.15 211.86" stroke="#00BBD3" stroke-width="2" stroke-linejoin="round"/></g><defs><filter id="filter0_d" x="82.5" y="356.5" width="33" height="33" filterUnits="userSpaceOnUse" color-interpolation-filters="sRGB"><feFlood flood-opacity="0" result="BackgroundImageFix"/><feColorMatrix in="SourceAlpha" values="0 0 0 0 0 0 0 0 0 0 0 0 0 0 0 0 0 0 127 0"/><feOffset/><feGaussianBlur stdDeviation="5"/><feColorMatrix values="0 0 0 0 0 0 0 0 0 0.733333 0 0 0 0 0.827451 0 0 0 0.36 0"/><feBlend in2="BackgroundImageFix" result="effect1_dropShadow"/><feBlend in="SourceGraphic" in2="effect1_dropShadow" result="shape"/></filter><filter id="filter1_d" x="82.5" y="336.5" width="33" height="33" filterUnits="userSpaceOnUse" color-interpolation-filters="sRGB"><feFlood flood-opacity="0" result="BackgroundImageFix"/><feColorMatrix in="SourceAlpha" values="0 0 0 0 0 0 0 0 0 0 0 0 0 0 0 0 0 0 127 0"/><feOffset/><feGaussianBlur stdDeviation="5"/><feColorMatrix values="0 0 0 0 0 0 0 0 0 0.733333 0 0 0 0 0.827451 0 0 0 0.36 0"/><feBlend in2="BackgroundImageFix" result="effect1_dropShadow"/><feBlend in="SourceGraphic" in2="effect1_dropShadow" result="shape"/></filter><filter id="filter2_d" x="82.5" y="316.5" width="33" height="33" filterUnits="userSpaceOnUse" color-interpolation-filters="sRGB"><feFlood flood-opacity="0" result="BackgroundImageFix"/><feColorMatrix in="SourceAlpha" values="0 0 0 0 0 0 0 0 0 0 0 0 0 0 0 0 0 0 127 0"/><feOffset/><feGaussianBlur stdDeviation="5"/><feColorMatrix values="0 0 0 0 0 0 0 0 0 0.733333 0 0 0 0 0.827451 0 0 0 0.36 0"/><feBlend in2="BackgroundImageFix" result="effect1_dropShadow"/><feBlend in="SourceGraphic" in2="effect1_dropShadow" result="shape"/></filter><filter id="filter3_d" x="82.5" y="296.5" width="33" height="33" filterUnits="userSpaceOnUse" color-interpolation-filters="sRGB"><feFlood flood-opacity="0" result="BackgroundImageFix"/><feColorMatrix in="SourceAlpha" values="0 0 0 0 0 0 0 0 0 0 0 0 0 0 0 0 0 0 127 0"/><feOffset/><feGaussianBlur stdDeviation="5"/><feColorMatrix values="0 0 0 0 0 0 0 0 0 0.733333 0 0 0 0 0.827451 0 0 0 0.36 0"/><feBlend in2="BackgroundImageFix" result="effect1_dropShadow"/><feBlend in="SourceGraphic" in2="effect1_dropShadow" result="shape"/></filter><filter id="filter4_d" x="82.5" y="276.5" width="33" height="33" filterUnits="userSpaceOnUse" color-interpolation-filters="sRGB"><feFlood flood-opacity="0" result="BackgroundImageFix"/><feColorMatrix in="SourceAlpha" values="0 0 0 0 0 0 0 0 0 0 0 0 0 0 0 0 0 0 127 0"/><feOffset/><feGaussianBlur stdDeviation="5"/><feColorMatrix values="0 0 0 0 0 0 0 0 0 0.733333 0 0 0 0 0.827451 0 0 0 0.36 0"/><feBlend in2="BackgroundImageFix" result="effect1_dropShadow"/><feBlend in="SourceGraphic" in2="effect1_dropShadow" result="shape"/></filter><filter id="filter5_d" x="82.5" y="256.5" width="33" height="33" filterUnits="userSpaceOnUse" color-interpolation-filters="sRGB"><feFlood flood-opacity="0" result="BackgroundImageFix"/><feColorMatrix in="SourceAlpha" values="0 0 0 0 0 0 0 0 0 0 0 0 0 0 0 0 0 0 127 0"/><feOffset/><feGaussianBlur stdDeviation="5"/><feColorMatrix values="0 0 0 0 0 0 0 0 0 0.733333 0 0 0 0 0.827451 0 0 0 0.36 0"/><feBlend in2="BackgroundImageFix" result="effect1_dropShadow"/><feBlend in="SourceGraphic" in2="effect1_dropShadow" result="shape"/></filter><filter id="filter6_d" x="87" y="341" width="24" height="24" filterUnits="userSpaceOnUse" color-interpolation-filters="sRGB"><feFlood flood-opacity="0" result="BackgroundImageFix"/><feColorMatrix in="SourceAlpha" values="0 0 0 0 0 0 0 0 0 0 0 0 0 0 0 0 0 0 127 0"/><feOffset/><feGaussianBlur stdDeviation="5"/><feColorMatrix values="0 0 0 0 0 0 0 0 0 0.733333 0 0 0 0 0.827451 0 0 0 0.36 0"/><feBlend in2="BackgroundImageFix" result="effect1_dropShadow"/><feBlend in="SourceGraphic" in2="effect1_dropShadow" result="shape"/></filter><filter id="filter7_d" x="87" y="281" width="24" height="24" filterUnits="userSpaceOnUse" color-interpolation-filters="sRGB"><feFlood flood-opacity="0" result="BackgroundImageFix"/><feColorMatrix in="SourceAlpha" values="0 0 0 0 0 0 0 0 0 0 0 0 0 0 0 0 0 0 127 0"/><feOffset/><feGaussianBlur stdDeviation="5"/><feColorMatrix values="0 0 0 0 0 0 0 0 0 0.733333 0 0 0 0 0.827451 0 0 0 0.36 0"/><feBlend in2="BackgroundImageFix" result="effect1_dropShadow"/><feBlend in="SourceGraphic" in2="effect1_dropShadow" result="shape"/></filter><filter id="filter8_d" x="87" y="261" width="24" height="24" filterUnits="userSpaceOnUse" color-interpolation-filters="sRGB"><feFlood flood-opacity="0" result="BackgroundImageFix"/><feColorMatrix in="SourceAlpha" values="0 0 0 0 0 0 0 0 0 0 0 0 0 0 0 0 0 0 127 0"/><feOffset/><feGaussianBlur stdDeviation="5"/><feColorMatrix values="0 0 0 0 0 0 0 0 0 0.733333 0 0 0 0 0.827451 0 0 0 0.36 0"/><feBlend in2="BackgroundImageFix" result="effect1_dropShadow"/><feBlend in="SourceGraphic" in2="effect1_dropShadow" result="shape"/></filter><filter id="filter9_d" x="0" y="0" width="331" height="463" filterUnits="userSpaceOnUse" color-interpolation-filters="sRGB"><feFlood flood-opacity="0" result="BackgroundImageFix"/><feColorMatrix in="SourceAlpha" values="0 0 0 0 0 0 0 0 0 0 0 0 0 0 0 0 0 0 127 0"/><feOffset/><feGaussianBlur stdDeviation="5"/><feColorMatrix values="0 0 0 0 0 0 0 0 0 0.733333 0 0 0 0 0.827451 0 0 0 0.36 0"/><feBlend in2="BackgroundImageFix" result="effect1_dropShadow"/><feBlend in="SourceGraphic" in2="effect1_dropShadow" result="shape"/></filter><filter id="filter10_d" x="36" y="32" width="268" height="73" filterUnits="userSpaceOnUse" color-interpolation-filters="sRGB"><feFlood flood-opacity="0" result="BackgroundImageFix"/><feColorMatrix in="SourceAlpha" values="0 0 0 0 0 0 0 0 0 0 0 0 0 0 0 0 0 0 127 0"/><feOffset dy="4"/><feGaussianBlur stdDeviation="10"/><feColorMatrix values="0 0 0 0 0 0 0 0 0 0.733333 0 0 0 0 0.827451 0 0 0 0.36 0"/><feBlend in2="BackgroundImageFix" result="effect1_dropShadow"/><feBlend in="SourceGraphic" in2="effect1_dropShadow" result="shape"/></filter><filter id="filter11_d" x="46" y="100" width="106" height="122.86" filterUnits="userSpaceOnUse" color-interpolation-filters="sRGB"><feFlood flood-opacity="0" result="BackgroundImageFix"/><feColorMatrix in="SourceAlpha" values="0 0 0 0 0 0 0 0 0 0 0 0 0 0 0 0 0 0 127 0"/><feOffset/><feGaussianBlur stdDeviation="5"/><feColorMatrix values="0 0 0 0 0 0 0 0 0 0.733333 0 0 0 0 0.827451 0 0 0 0.36 0"/><feBlend in2="BackgroundImageFix" result="effect1_dropShadow"/><feBlend in="SourceGraphic" in2="effect1_dropShadow" result="shape"/></filter></defs></svg>