<svg width="453" height="457" fill="none" xmlns="http://www.w3.org/2000/svg"><g filter="url(#filter0_d)"><path stroke="#00BBD3" stroke-width="2" stroke-linejoin="round" d="M287.301 366.177v-17.311H150.736v17.311z"/></g><g filter="url(#filter1_d)"><rect x="119" y="446" width="124.062" height="201" rx="8" transform="rotate(-90 119 446)" stroke="#00BBD3" stroke-width="2"/></g><path opacity=".2" fill="#00BBD3" d="M286.341 391.578v-5.205H151.7v5.205zm0 8.259v-4.809H151.7v4.809zm0 9.15v-5.384H151.7v5.384zm-22.12 8.161v-4.809H151.699v4.809z"/><g filter="url(#filter2_d)"><path d="M89.5 128.853c-.269-.806 1.391-2.508 3.038-3.396 1.701-.918 9.732-4.801 25.016-12.006M89.5 128.853l.187 2.725m-.187-2.725c-.947-.474-3.648-1.19-7.144-.468a8.199 8.199 0 00-2.754 1.098c-4.408 2.81-5.546 7.542-5.54 9.723m139.944-12.079l-3.437-45.54c-.258-3.425-1.358-7.418-4.777-7.74-3.383-.319-7.452 1.451-10.114 2.517a27601.735 27601.735 0 01-46.713 22.224m65.041 28.539c-.266-3.3-3.826-2.96-8.658-1.67-3.808 1.016-50.239 21.704-86.635 37.924-12.705 5.662-27.141-3.067-28.052-16.946l-.974-14.857m124.319-4.451c0 1.612-1.723 2.17-3.831 3.242m-120.488 1.209v0a14.373 14.373 0 00-8.363 13.681l1.598 37.1m0 0v0a4.582 4.582 0 004.17.28l6.3-2.715m-10.47 2.435l118.591-52.643m-1.724 3.877c1.892-.857 4.308-2.152 1.724-3.877m-1.724 3.877l-67.738 29.673m67.738-29.673c.431 7.339 4.843 8.197 6.893 7.77 5.273-1.097 3.493-8.86 3.493-10.994m-8.662-.653c2.214-1.108 9.122-3.991 8.662.653m-61.21-31.781c3.49-3.244 9.059-8.923 16.108-12.955 2.836-1.622 8.153-4.373 17.483-9.27m-33.591 22.225c-8.642 4.1-17.188 8.149-24.968 11.823m128.059-70.32c10.47-9.27 22.793-5.238 31.249-3.626 6.766 1.29 40.532 11.33 55.03 16.838 15.973 5.509 48.734 20.805 52.277 23.06 4.43 2.82 20.178 8.232 27.606 37.08M252.056 40.092c-5.906 4.433-16.591 23.134-12.081 62.469 4.51 39.336 14.115 62.733 19.485 69.719 3.624 5.643 14.601 18.16 31.183 22.953 14.497 4.19 45.309 11.04 58.867 14.13 19.732 3.627 57.989 10.279 65.865 8.866M252.056 40.091l-4.832 2.515m183.743 159.099c-.639 11.754-16.509 12.808-21.095 12.808-5.502 0-46.671-7.569-60.362-9.987-13.692-2.419-55.646-13.996-58.867-14.802-3.222-.806-15.434-5.398-27.515-21.116-12.081-15.718-19.26-57.397-19.26-87.22 0-29.824 11.923-38.782 18.343-41.297 17.426-6.044 86.087 20.173 121.528 36.6 11.225 5.202 18.848 12.26 20.689 14.199 3.883 4.091 9.445 9.922 13.79 22.553m12.749 88.262c-.699 12.854-10.226 15.562-15.592 16.524m15.592-16.524s6.42-13.817-12.749-88.262m-286.167 49.823c1.074 6.499 6.202 22.157 18.122 32.797 14.9 13.3 41.075 23.375 78.929 22.166 37.854-1.209 72.084-7.657 83.762-8.866 11.678-1.209 19.33-.403 22.551 2.015 2.577 1.934.269 6.717-1.208 8.866a45.755 45.755 0 01-3.08 3.225m-199.076-60.203l-23.558 10.151m306.882 44.812l-29.22 5.24-53.69 12.109a7.547 7.547 0 01-6.312-1.42v0m-217.66-60.741c1.544 5.802 6.162 19.583 12.283 28.288 4.573 6.505 14.903 13.586 24.967 18.66m-37.25-46.948l-10.671 4.598m66.043 49.081c11.678 2.015 49.958 6.764 68.08 3.943m-68.08-3.943c-62.419 25.39-91.518 16.927-109.132 12.494-14.092-3.547-23.378-14.644-26.26-19.749m135.392 7.255c-4.698-.811-11.35-3.317-18.122-6.731m86.202 10.674c3.494-.544 6.289-.793 11.006-1.836m-11.006 1.836c-13.289 6.045-18.952 9.648-37.603 17.444-20.793 8.691-41.553 16.991-63.284 22.952-19.045 5.225-44.512 9.969-65.05 2.815-20.537-7.155-34.099-22.879-37.534-35.869-1.938-7.326-1.778-11.601 0-18.54m302.653 3.628c-1.522 1.444-4.275 2.771-4.668 2.957l-.094.042c-.371.157-2.865 1.214-4.733 1.949-.774.305-.967 1.442-.311 1.956v0m9.806-6.904c2.156-1.884 1.906-7.099-2.523-7.905-5.601-1.019-9.975-.749-23.264.863-4.071.494-11.491 1.682-19.054 3.47m0 0c.671 3.474 2.496 11.632 4.429 16.468 3.009 7.527 6.439 14.143 9.262 13.3l8.054-2.418m-21.745-27.35c-12.37 2.923-31.083 6.595-43.335 9.306m65.08 18.044v0a3.205 3.205 0 004.006-.974c1.564-2.113 3.659-4.857 5.257-6.683 2.255-2.58 6.846-4.696 8.859-5.432m-18.122 13.089c-1.399-1.053-3.553-2.779-3.553-5.367 0-4.837 4.508-5.515 6.775-6.724 3.889-2.073 7.786-4.129 10.068-4.783m4.832 3.785l-4.832-3.785M182.556 76.363c-7.573 1.46-23.983 5.313-34.799 13.302-9.665 7.138-19.867 16.805-23.76 20.746m58.559-34.047a19805.8 19805.8 0 0144.13-23.06M123.997 110.41a9621.052 9621.052 0 01-6.443 3.04m-43.492 25.755l2.82 47.184m-2.82-47.184l-1.971 1.079m.36 48.121l4.43-2.016m-4.43 2.016v-3.225m0 3.225c-.704.267-1.047.397-2.332.892m6.762-2.908c.269 1.747 2.255 5.079 8.054 4.434 7.249-.806 7.25-7.291 8.457-10.9M70.12 143.267v0a3.21 3.21 0 011.67-2.817l.302-.165m-1.972 2.982l2.333 41.914m-2.333-41.914c-1.037.51-1.77.498-3.022 1.116m175.854 84.82c-12.84 7.344-36.803 19.28-68.787 32.133-26.939 10.827-52.277 18.636-71.537 20.199-29.8 2.418-44.672-4.867-58.364-15.346-10.087-7.719-15.584-18.062-18.584-27.808m12.543-33.451c-5.06 3.563-8.201 8.872-9.748 14.911m9.748-14.911c6.194-.449 13.963-.18 22.551.571 1.37.12 2.762.252 4.17.395m-26.72-.966c8.454-5.955 18.437-10.258 28.013-14.106m6.216-5.643c-6.812 2.553-21.746 9.512-26.579 12.091-7.447 3.469-15.883 8.978-19.33 18.942-3.22 9.316-2.092 18.539-.864 22.167m0 0a77.639 77.639 0 01-2.357-10.076c-2.013-12.091-2.819-31.033-2.013-43.124.805-12.09 10.733-22.082 16.913-25.793 2.862-1.719 18.911-10.086 28.875-15.005m26.295 35.541l4.43-1.909m47.921 42.35c-11.976-2.886-31.332-7.057-51.143-10.368m3.222-31.982c-.269 2.389-1.047 9.343-2.014 18.048a376.903 376.903 0 00-.78 7.658m-.428 6.276c0-.655.1-2.631.429-6.276m-.429 6.276c-10.07-1.683-20.26-3.144-29.657-4.101m30.086-2.175c-2.693-.672-7.485-1.977-13.284-2.944-4.027-.672-8.622-.863-12.063-1.295m159.51-147.474c-1.197.624-1.289.66-2.507 1.295m2.507-1.295c-12.84-15.543-22.215-20.825-31.904-23.563m31.904 23.563c.54-.28 2.194-1.155 2.728-1.433m-5.235 2.728c-3.57-5.51-8.588-10.103-12.69-13.211m0 0c-2.192-1.661-4.123-2.899-5.431-3.627-8.189-4.03-29.398-10.156-48.727-2.418-24.162 9.673-44.962 29.897-62.016 53.603-8.135 12.61-23.76 36.578-25.731 52.635M213.996 40.091c-4.898-.549-17.351-.35-27.983 4.838-13.289 6.485-40.27 18.708-68.459 68.522m129.67-70.845c-2.014-1.644-15.303-8.559-21.137-11.783m21.137 11.783c-4.632 2.41-9.83 5.117-15.303 7.969m-5.834-19.752c-.477-1.292-1.292-2.559-2.623-3.224-2.577-1.29-21.745-7.523-31.008-10.479-2.145-.684-3.463 1.693-2.818 3.627.805 2.419 6.04 7.212 7.651 7.698m28.798 2.378l-27.268-8.719c-1.826-.584-3.239 1.638-1.934 3.044v0c.263.284.607.476.984.564 3.03.703 8.91 2.55 13.983 5.584.809.484 1.597.998 2.35 1.542 5.799 4.192 14.229 13.571 17.719 17.737m-34.632-22.13c-10.33-2.92-19.456-2.553-27.71-.846-15.592 3.224-43.715 15.837-71.032 52.506-5.906 7.928-16.95 25.452-21.666 35.375-7.65 16.098-8.922 22.279-9.784 28.903m-.861 46.441l-1.293 15.072m1.293-15.072c1.232-.495 2.598-1.03 3.883-1.526m0 0c0 2.164-.38 8.434-.437 10.184m-.43 6.982c.43-2.743.374-5.232.43-6.982" stroke="#00BBD3" stroke-width="2"/></g><defs><filter id="filter0_d" x="129.736" y="331.866" width="178.565" height="59.311" filterUnits="userSpaceOnUse" color-interpolation-filters="sRGB"><feFlood flood-opacity="0" result="BackgroundImageFix"/><feColorMatrix in="SourceAlpha" values="0 0 0 0 0 0 0 0 0 0 0 0 0 0 0 0 0 0 127 0"/><feOffset dy="4"/><feGaussianBlur stdDeviation="10"/><feColorMatrix values="0 0 0 0 0 0 0 0 0 0.733333 0 0 0 0 0.827451 0 0 0 0.36 0"/><feBlend in2="BackgroundImageFix" result="effect1_dropShadow"/><feBlend in="SourceGraphic" in2="effect1_dropShadow" result="shape"/></filter><filter id="filter1_d" x="108" y="310.938" width="223" height="146.062" filterUnits="userSpaceOnUse" color-interpolation-filters="sRGB"><feFlood flood-opacity="0" result="BackgroundImageFix"/><feColorMatrix in="SourceAlpha" values="0 0 0 0 0 0 0 0 0 0 0 0 0 0 0 0 0 0 127 0"/><feOffset/><feGaussianBlur stdDeviation="5"/><feColorMatrix values="0 0 0 0 0 0 0 0 0 0.733333 0 0 0 0 0.827451 0 0 0 0.36 0"/><feBlend in2="BackgroundImageFix" result="effect1_dropShadow"/><feBlend in="SourceGraphic" in2="effect1_dropShadow" result="shape"/></filter><filter id="filter2_d" x="0" y="-.001" width="453" height="307.001" filterUnits="userSpaceOnUse" color-interpolation-filters="sRGB"><feFlood flood-opacity="0" result="BackgroundImageFix"/><feColorMatrix in="SourceAlpha" values="0 0 0 0 0 0 0 0 0 0 0 0 0 0 0 0 0 0 127 0"/><feOffset dy="4"/><feGaussianBlur stdDeviation="10"/><feColorMatrix values="0 0 0 0 0 0 0 0 0 0.733333 0 0 0 0 0.827451 0 0 0 0.3 0"/><feBlend in2="BackgroundImageFix" result="effect1_dropShadow"/><feBlend in="SourceGraphic" in2="effect1_dropShadow" result="shape"/></filter></defs></svg>