<svg width="14" height="14" xmlns="http://www.w3.org/2000/svg"><path d="M7.053 8.286c-1.949 0-3.527-1.892-3.527-4.225C3.526 1.73 5.104 0 7.053 0 9 0 10.58 1.729 10.58 4.061c0 2.333-1.58 4.225-3.528 4.225zm-5.486 5.711s-.748.05-1.078-.404c-.178-.246-.054-.743.068-1.02l.298-.68S1.68 10.05 2.618 8.98c.577-.655 1.263-.506 1.706-.292.274.13.582.513.808.715.311.28.86.596 1.758.614h.551C8.34 10 8.888 9.682 9.2 9.403c.225-.202.525-.596.796-.732.407-.203 1.027-.329 1.589.31.939 1.068 1.682 2.946 1.682 2.946l.306.666c.126.276.256.77.083 1.019-.31.444-1.003.385-1.003.385H1.567z"/></svg>