<svg xmlns="http://www.w3.org/2000/svg" fill="#00BBD3" viewBox="0 0 101 89">
	<path d="M50.7,47C62.5,47,72,37.6,72,25.8S62.5,4.1,50.7,4.1s-21.3,9.5-21.3,21.3S38.9,47,50.7,47z M75.9,25.8c0,13-9.9,23.6-22.5,25.2v18.1c16.9,0.4,30.7,5.1,45.7,15.8c0.8,0.8,1.2,2,0.4,2.8c-0.8,0.8-2,1.2-2.8,0.4c-15-10.6-28.8-15.4-46.1-15S19.6,77.4,4.2,88c-0.8,0.4-2,0.4-2.8-0.4c-0.8-0.8-0.4-2,0.4-2.8c15.4-11,30-15.4,47.7-15.8V51c-13.4-0.4-24.4-11.8-24.4-25.2c0-14.2,11.4-25.2,25.2-25.2C64.9,0.1,75.9,11.6,75.9,25.8z M56.2,31.3c5.9,0,11-5.1,11-11s-5.1-11-11-11s-11,5.1-11,11S50.3,31.3,56.2,31.3z"/>
</svg>
