<svg width="220" height="220" fill="none" xmlns="http://www.w3.org/2000/svg"><path d="M132.64 137.5h8.589a1.093 1.093 0 100-2.188h-8.589a1.096 1.096 0 00-.774 1.868c.205.205.484.32.774.32zm-6.563 6.875h-5.312a1.095 1.095 0 00-1.094 1.094v5.312a1.095 1.095 0 001.094 1.094h5.312a1.095 1.095 0 001.094-1.094v-5.312a1.095 1.095 0 00-1.094-1.094zm-1.094 5.313h-3.125v-3.126h3.125v3.126zm7.657-.468h16.25a1.093 1.093 0 100-2.188h-16.25a1.096 1.096 0 00-.774 1.868c.205.205.484.32.774.32zm-6.563 6.876h-5.312a1.092 1.092 0 00-1.094 1.094v5.31a1.093 1.093 0 001.094 1.094h5.312a1.098 1.098 0 001.094-1.094v-5.313a1.093 1.093 0 00-1.094-1.091zm-1.094 5.313h-3.125v-3.125h3.125v3.125zm7.657-.471h8.589a1.094 1.094 0 000-2.188h-8.589a1.095 1.095 0 00-.774 1.867c.205.205.484.321.774.321zm-6.563 6.878h-5.312a1.096 1.096 0 00-1.094 1.094v5.313a1.093 1.093 0 001.094 1.093h5.312a1.093 1.093 0 001.094-1.093v-5.313a1.093 1.093 0 00-1.094-1.094zm-1.094 5.313h-3.125v-3.125h3.125v3.125z" fill="#fff"/><path d="M172.8 131.652a5.445 5.445 0 00-7.9-2.925 5.449 5.449 0 00-2.15 2.32l-2.356 4.843-2.597 5.337v-15.133c0-.29-.115-.568-.32-.773l-9.22-9.219a1.094 1.094 0 00-.773-.321h-33.49a1.094 1.094 0 00-1.094 1.094v66.25a1.094 1.094 0 001.094 1.094h42.708a1.092 1.092 0 001.094-1.094v-16.987l14.75-30.323a5.398 5.398 0 00.254-4.163zm-16.945 33.476l-5.711 4.285-.155-7.139 11.891-24.443 5.87 2.857-11.895 24.44zm-7.278-45.612l5.485 5.484h-5.485v-5.484zm-33.489 62.515v-64.062h31.302v8.125a1.093 1.093 0 001.094 1.094h8.125v18.536l-7.702 15.831a1.097 1.097 0 00-.111.5l.182 8.415H132.64a1.095 1.095 0 00-.774 1.867c.205.205.484.321.774.321h16.25c.036-.002.073-.006.109-.012.033 0 .063.012.097.012.237 0 .467-.077.656-.22l5.857-4.394v13.987h-40.521zm55.494-47.173l-1.878 3.86-5.867-2.854 1.875-3.86a3.267 3.267 0 014.361-1.507 3.279 3.279 0 011.656 1.868 3.256 3.256 0 01-.15 2.493h.003z" fill="#fff"/><path d="M126.971 134.401a1.092 1.092 0 00-1.533.208l-2.125 2.795-1.01-1.01a1.096 1.096 0 00-1.549-.005 1.095 1.095 0 00-.004 1.548l1.895 1.896c.205.205.483.32.773.321h.073a1.1 1.1 0 00.797-.429l2.891-3.788a1.1 1.1 0 00.076-1.215 1.092 1.092 0 00-.284-.321z" fill="#fff"/><circle cx="110" cy="110" r="108" stroke="#00BBD3" stroke-width="4"/><g clip-path="url(#clip0)" fill="#fff"><path d="M76.999 50a1 1 0 000 2c11.028 0 20 8.972 20 20a1 1 0 002 0c0-12.131-9.869-22-22-22z"/><path d="M76.999 56a1 1 0 000 2c7.72 0 14 6.28 14 14a1 1 0 002 0c0-8.822-7.177-16-16-16z"/><path d="M76.999 62a1 1 0 000 2c4.411 0 8 3.589 8 8a1 1 0 002 0c0-5.514-4.486-10-10-10zm16.114 25.525a36.549 36.549 0 01-7.974-1.983 6.863 6.863 0 00-7.211 1.538l-3.161 3.154a45.632 45.632 0 01-16.082-16.049l3.163-3.156a6.83 6.83 0 001.539-7.195 36.397 36.397 0 01-1.988-7.968c-.48-3.378-3.404-5.879-6.823-5.866h-8.75a6.795 6.795 0 00-5.241 2.451 6.778 6.778 0 00-1.556 5 58.793 58.793 0 009.104 25.665 58.182 58.182 0 0017.798 17.765 59.084 59.084 0 0025.622 9.092c.206.018.413.027.62.027h.02c3.768-.016 6.82-3.088 6.805-6.845v-8.72a6.825 6.825 0 00-5.885-6.91zm3.885 6.875v8.76a4.834 4.834 0 01-4.812 4.841c-.156-.006-.306-.006-.438-.018a57.076 57.076 0 01-24.74-8.786 56.187 56.187 0 01-17.193-17.163 56.785 56.785 0 01-8.796-24.779 4.78 4.78 0 011.102-3.52A4.804 4.804 0 0145.827 52h8.806c2.396 0 4.449 1.775 4.784 4.137a38.396 38.396 0 002.097 8.4 4.825 4.825 0 01-1.083 5.081l-3.704 3.696a1 1 0 00-.163 1.203 47.623 47.623 0 0017.872 17.837.999.999 0 001.2-.162l3.7-3.692a4.86 4.86 0 015.102-1.084 38.503 38.503 0 008.404 2.091 4.823 4.823 0 014.156 4.893z"/></g><path fill="#00BBD3" d="M33.207 31.793l154.5 154.5-2.829 2.828-154.5-154.5z"/><defs><clipPath id="clip0"><path fill="#fff" transform="translate(39 50)" d="M0 0h60v60H0z"/></clipPath></defs></svg>