<svg width="116" height="106" fill="none" xmlns="http://www.w3.org/2000/svg"><path d="M56.386 8.637l.707.707.707-.707 4.288-4.289c4.465-4.464 11.728-4.464 16.192 0 4.465 4.465 4.465 11.728 0 16.193L57.708 41.112a.865.865 0 01-1.23 0L35.904 20.541c-4.465-4.465-4.465-11.728 0-16.193 4.465-4.464 11.728-4.464 16.192 0l4.289 4.289z" stroke="#fff" stroke-width="2"/><path d="M84.873 56.76L74.69 46.579a4.007 4.007 0 00-5.67 0l-5.958 5.958a17.294 17.294 0 00-1.812-.946.875.875 0 10-.717 1.595c1.176.529 1.864 1.005 2.196 1.21 2.007 1.325 2.803 2.447 5.487 5.045 1.665 1.665 1.717 4.47.114 6.124a4.318 4.318 0 01-6.157.049l-4.268-4.268a.875.875 0 00-.93-.199 9.72 9.72 0 01-9.626-1.578.875.875 0 00-1.04-.062c-.16.115.836-.857-12.435 12.409a10.569 10.569 0 01.735-4.458.875.875 0 00-.195-.941l-5.67-5.67a2.26 2.26 0 010-3.197l10.183-10.183a2.263 2.263 0 013.197 0c5.939 5.931 5.605 5.626 5.738 5.716.012.003.452.325.947.019 2.493-1.366 5.134-1.629 7.916-1.166a.875.875 0 10.288-1.726c-3.021-.502-5.842-.219-8.498 1.075l-5.154-5.155a4.014 4.014 0 00-5.671 0L27.507 56.412a4.008 4.008 0 000 5.67l5.274 5.274a12.326 12.326 0 00-.488 6.14l-2.45 2.45a5.19 5.19 0 003.36 8.853l-.016.015a5.19 5.19 0 000 7.344 5.202 5.202 0 006.132.901 5.183 5.183 0 002.462 4.404.875.875 0 00.921-1.487 3.445 3.445 0 01-.625-5.365l9.925-9.925a.875.875 0 00-1.237-1.237L39.294 90.921a3.447 3.447 0 01-4.87 0 3.447 3.447 0 010-4.87l2.762-2.761 9.23-9.231a.875.875 0 10-1.236-1.237l-9.231 9.23a3.447 3.447 0 01-4.87 0 3.447 3.447 0 010-4.869l15.786-15.786a11.468 11.468 0 0010.192 1.575l3.879 3.878a6.065 6.065 0 008.65-.069c2.286-2.358 2.203-6.242-.132-8.578-2.745-2.692-3.373-3.513-4.914-4.67l5.717-5.718a2.259 2.259 0 013.197 0l10.182 10.183a2.263 2.263 0 010 3.197l-6.573 6.573a.875.875 0 00-.194.942 10.599 10.599 0 01-2.353 11.415L55.663 98.978a3.442 3.442 0 01-4.87 0 3.441 3.441 0 010-4.87l8.848-8.847a.875.875 0 00-1.237-1.237L46.947 95.48a3.45 3.45 0 01-.985.69.875.875 0 10.737 1.586 5.157 5.157 0 001.346-.905 5.155 5.155 0 001.512 3.363 5.192 5.192 0 006.774.493 5.2 5.2 0 007.165-.17 5.18 5.18 0 001.517-3.744c3.604 1.768 7.74-1.054 7.463-5.03a5.193 5.193 0 005.469-1.203 5.193 5.193 0 00.566-6.676 5.173 5.173 0 003.458-1.514 5.199 5.199 0 000-7.343l-2.6-2.6a12.343 12.343 0 00-.673-3.82l6.177-6.176a4.015 4.015 0 000-5.671zM62.258 99.3a3.447 3.447 0 01-4.647.203l4.85-4.85a3.447 3.447 0 01-.203 4.647zm7.475-4.738a3.441 3.441 0 01-4.87 0l-1.155-1.156 4.87-4.869 1.155 1.156a3.447 3.447 0 010 4.87zm6.974-5.239a3.441 3.441 0 01-4.869 0L69.815 87.3l4.87-4.87 2.022 2.024a3.441 3.441 0 010 4.87zm2.484-14.6l1.54 1.541a3.447 3.447 0 010 4.87 3.446 3.446 0 01-4.811.055 12.33 12.33 0 003.27-6.465z" fill="#fff"/><path d="M37.357 104.78A57 57 0 0122.961 6.69m54.218 97.541a56.994 56.994 0 0036.414-44.32A56.995 56.995 0 0093.026 6.367" stroke="#00BBD3" stroke-width="2"/></svg>