<svg width="148" height="148" fill="none" xmlns="http://www.w3.org/2000/svg"><g clip-path="url(#clip0)"><path d="M93.654 116.782H54.343c-.64 0-1.157.517-1.157 1.156v16.188c0 .307.122.6.34.817l4.624 4.625c.217.217.51.339.818.339H89.03c.306 0 .6-.122.817-.339l4.625-4.625c.217-.217.339-.51.339-.817v-16.188c0-.639-.52-1.156-1.157-1.156zm-1.156 16.865l-3.947 3.947H59.447l-3.948-3.947v-14.553h37v14.553z" fill="#fff"/><path d="M95.904 121.409l-43.934 2.313a1.156 1.156 0 00.06 2.31c.02 0 .041 0 .062-.003l43.934-2.312a1.154 1.154 0 001.093-1.215c-.031-.637-.564-1.185-1.215-1.093zm0 6.937l-43.934 2.313a1.156 1.156 0 00.06 2.31c.02 0 .041 0 .062-.002l43.934-2.313a1.154 1.154 0 001.093-1.215c-.031-.636-.564-1.167-1.215-1.093zM74 38.156c-21.678 0-39.313 17.636-39.313 39.313 0 13.656 6.903 26.057 18.5 33.301v7.168c0 .639.517 1.156 1.156 1.156h39.311c.638 0 1.157-.517 1.157-1.156v-7.168c11.594-7.244 18.5-19.645 18.5-33.3 0-21.679-17.637-39.314-39.312-39.314zm19.058 70.977a1.16 1.16 0 00-.56.991v6.658H55.5v-6.658a1.16 1.16 0 00-.56-.991C43.707 102.362 37 90.524 37 77.469c0-20.402 16.598-37 37-37 20.4 0 36.999 16.598 36.999 37 0 13.055-6.708 24.893-17.94 31.664zm-8.13 28.595a1.16 1.16 0 00-1.553.497c-.086.162-2.182 3.995-9.376 3.995-7.186 0-9.286-3.821-9.376-3.995a1.155 1.155 0 00-1.547-.509c-.572.287-.802.98-.518 1.552.109.214 2.733 5.264 11.441 5.264 8.707 0 11.331-5.05 11.44-5.264a1.15 1.15 0 00-.51-1.54zM24.28 76.312H1.155a1.155 1.155 0 100 2.313H24.28a1.155 1.155 0 100-2.313zm122.563 0h-23.125c-.642 0-1.156.518-1.156 1.157s.514 1.156 1.156 1.156h23.125a1.157 1.157 0 000-2.313zm-114.9 25.438a1.15 1.15 0 00-1.579-.422l-20.031 11.563a1.153 1.153 0 00-.422 1.578 1.152 1.152 0 001.579.422l20.03-11.562a1.154 1.154 0 00.423-1.579zm106.138-61.281a1.147 1.147 0 00-1.577-.423L116.482 51.61a1.152 1.152 0 00-.425 1.578 1.16 1.16 0 001.581.423l20.023-11.563c.55-.318.74-1.025.42-1.578zm-27.083-27.085a1.153 1.153 0 00-1.581.422L97.859 33.833c-.32.554-.13 1.26.425 1.579a1.15 1.15 0 001.576-.422l11.558-20.027a1.154 1.154 0 00-.42-1.579zm-35.842-8.76a1.156 1.156 0 10-2.313 0l.004 23.121a1.156 1.156 0 102.313 0l-.004-23.12zM50.145 33.829L38.583 13.806a1.152 1.152 0 00-1.579-.422 1.153 1.153 0 00-.422 1.579l11.563 20.022a1.153 1.153 0 001.578.422 1.153 1.153 0 00.422-1.578zm87.521 79.057l-20.027-11.563a1.156 1.156 0 10-1.156 2.001l20.027 11.563a1.151 1.151 0 001.576-.422 1.155 1.155 0 00-.42-1.579zM31.52 51.6L11.498 40.04a1.156 1.156 0 00-1.156 2.001L30.364 53.6a1.154 1.154 0 001.579-.422c.32-.553.13-1.26-.423-1.578z" fill="#fff"/><path d="M73.997 54.344c-12.75 0-23.125 10.375-23.125 23.125s10.375 23.125 23.125 23.125c12.752 0 23.126-10.375 23.126-23.125S86.75 54.344 73.997 54.344zm0 43.937c-11.477 0-20.813-9.335-20.813-20.812s9.337-20.813 20.813-20.813c11.478 0 20.814 9.336 20.814 20.813 0 11.477-9.336 20.812-20.814 20.812z" fill="#00BBD3"/><path d="M92.336 73.753c.317-.212.705-.603.868-1.291.325-.271 1.228-.766 1.775-.836l-.299-2.295c-.998.13-3.536 1.184-3.595 2.482-.311.106-1.395-.187-1.982-.343-1.51-.404-3.216-.858-4.138.393-.474.648-.47 1.558.014 2.432.682 1.233 2.394 2.464 5.24 2.532-.299.731-.945 2.012-2.241 4.24l-.235.403c-.673 1.16-.899 2.36-1.115 3.52-.181.974-.358 1.895-.787 2.684-.379.688-.97 1.293-1.598 1.934-.33.34-.66.678-.962 1.033-1.193 1.382-2.042 2.107-3.284 2.005-.524-.045-.845-1.118-.958-1.576-.266-1.066-.352-2.168-.442-3.336-.1-1.323-.208-2.691-.587-4.069-.953-3.455-3.942-3.458-6.126-3.458l-.648-.002c-2.268-.025-3.618-1.366-3.704-3.683-.081-2.197.481-3.898 1.671-5.059 1.378-1.341 3.173-1.556 3.52-1.517 3.17.555 3.995.829 4.202.942 2.042 1.124 4.12.54 5.276-.3.957-.699 1.431-1.616 1.264-2.47-.496-2.434-9.553-3.52-9.642-3.527-.42-.031-.847.05-1.305.132-.192.033-.487.085-.727.11.04-.079.097-.167.167-.26 1.574-2.073 3.98-3.026 6.526-4.033.998-.397 1.996-.792 3.008-1.285.731-.409 1.206-2.005 1.228-2.073l-2.218-.655c-.1.332-.239.628-.338.8-.822.386-1.676.722-2.53 1.061-2.731 1.082-5.554 2.2-7.523 4.792-.899 1.2-.991 2.464-.233 3.309.831.905 2.114.675 3.05.508.252-.043.57-.136.727-.097 1.986.142 5.845 1.109 7.259 1.761-.167.133-.407.28-.718.391a2.568 2.568 0 01-2.15-.188c-.623-.345-2.052-.69-5.022-1.214-.659-.114-3.08.101-5.117 1.865-1.303 1.129-2.827 3.277-2.687 7.093.133 3.553 2.484 5.872 5.989 5.91l.675.002c2.475 0 3.45.154 3.896 1.762.323 1.163.415 2.362.512 3.632.096 1.21.191 2.461.503 3.712.641 2.593 1.992 3.239 3.003 3.325.154.013.298.02.443.02 2.168 0 3.604-1.446 4.792-2.82.27-.318.57-.62.867-.925.71-.725 1.441-1.475 1.97-2.442.61-1.11.822-2.258 1.03-3.369.189-1.011.37-1.97.844-2.787l.23-.397c2.611-4.476 3.18-6.064 2.543-7.078-.293-.463-.826-.689-1.377-.664-1.78.147-2.837-.255-3.41-.61a2.407 2.407 0 01-.583-.494c.415.068.975.217 1.36.319 1.372.368 2.795.745 3.83.05zM60.077 87.327c-.183-5.605-2.92-9.499-7.71-10.964l-.677 2.213c2.317.706 3.995 2.073 4.986 4.056 1.913 3.832.813 8.93.53 9.708l1.057.456.41 1.082c1.454-.55 1.406-6.49 1.404-6.551z" fill="#00BBD3"/></g><defs><clipPath id="clip0"><path fill="#fff" transform="translate(-.001)" d="M0 0h148v148H0z"/></clipPath></defs></svg>