<svg width="862" height="768" fill="none" xmlns="http://www.w3.org/2000/svg"><path d="M336.615 374.828c5.301 5.746 5.301 14.599 0 20.344L0 760V10l336.615 364.828z" fill="url(#paint0_linear)"/><path d="M480.863 4v2.2h-5.9v3.92h5.7v2.2h-5.7V18h-2.3V4h8.2zm6.851 8.02v3.78h6.2V18h-8.5V4h8.4v2.2h-6.1v3.64h5.6v2.18h-5.6zm13.006 0v3.78h6.2V18h-8.5V4h8.4v2.2h-6.1v3.64h5.6v2.18h-5.6zM511.425 4h5.5c1.92 0 3.514.673 4.78 2.02 1.28 1.347 1.92 3.007 1.92 4.98 0 1.96-.64 3.62-1.92 4.98-1.266 1.347-2.86 2.02-4.78 2.02h-5.5V4zm2.3 11.8h3.2c1.32 0 2.394-.453 3.22-1.36.84-.907 1.26-2.053 1.26-3.44s-.42-2.533-1.26-3.44c-.826-.907-1.9-1.36-3.22-1.36h-3.2v9.6zm22.637-5.06c.613.32 1.093.767 1.44 1.34.347.56.52 1.2.52 1.92 0 1.147-.407 2.1-1.22 2.86-.813.76-1.807 1.14-2.98 1.14h-6V4h5.56c1.147 0 2.113.373 2.9 1.12.8.747 1.2 1.667 1.2 2.76 0 1.2-.473 2.153-1.42 2.86zm-2.68-4.58h-3.26v3.68h3.26a1.74 1.74 0 001.28-.52c.347-.36.52-.8.52-1.32s-.173-.953-.52-1.3a1.707 1.707 0 00-1.28-.54zm-3.26 9.68h3.7c.533 0 .98-.187 1.34-.56.373-.387.56-.853.56-1.4 0-.547-.187-1.007-.56-1.38a1.757 1.757 0 00-1.34-.58h-3.7v3.92zM554.329 18h-2.48l-.98-2.82h-5.96l-.98 2.82h-2.5l5.08-14h2.76l5.06 14zm-6.44-11.3l-2.22 6.32h4.44l-2.22-6.32zm16.438 11.56c-2.106 0-3.853-.693-5.24-2.08-1.386-1.413-2.08-3.14-2.08-5.18 0-2.053.694-3.773 2.08-5.16 1.374-1.4 3.12-2.1 5.24-2.1 1.267 0 2.434.3 3.5.9 1.08.6 1.92 1.413 2.52 2.44l-2 1.16a4.044 4.044 0 00-1.64-1.64c-.706-.413-1.5-.62-2.38-.62-1.48 0-2.693.473-3.64 1.42-.92.933-1.38 2.133-1.38 3.6s.46 2.667 1.38 3.6c.947.947 2.16 1.42 3.64 1.42.88 0 1.68-.2 2.4-.6.72-.413 1.26-.967 1.62-1.66l2 1.14c-.573 1.013-1.406 1.833-2.5 2.46-1.053.6-2.226.9-3.52.9zm15.031-7.44l5.86 7.18h-2.74l-5.52-6.66V18h-2.3V4h2.3v6.28l5.32-6.28h2.74l-5.66 6.82zm-64.875 737.94h7v.96c0 1.92-.633 3.493-1.9 4.72-1.253 1.213-2.907 1.82-4.96 1.82-2.16 0-3.947-.7-5.36-2.1-1.4-1.4-2.1-3.12-2.1-5.16 0-2.027.7-3.74 2.1-5.14 1.413-1.413 3.16-2.12 5.24-2.12 1.293 0 2.48.3 3.56.9 1.093.587 1.94 1.393 2.54 2.42l-1.98 1.14c-.373-.68-.927-1.22-1.66-1.62-.733-.4-1.553-.6-2.46-.6-1.467 0-2.673.48-3.62 1.44-.947.973-1.42 2.173-1.42 3.6 0 1.44.473 2.633 1.42 3.58.973.947 2.227 1.42 3.76 1.42 1.227 0 2.233-.287 3.02-.86.787-.573 1.287-1.353 1.5-2.34h-4.68v-2.06zm11.503 7.24v-14h2.3v14h-2.3zm15.697-14v2.2h-5.9v3.92h5.7v2.2h-5.7V756h-2.3v-14h8.2zm3.452 0h10.2v2.2h-3.94V756h-2.3v-11.8h-3.96V742z" fill="#fff"/><g clip-path="url(#clip0)" filter="url(#filter0_d)" fill="#00BBD3"><path d="M518.563 100.199h19.8a.899.899 0 100-1.8h-19.8a.9.9 0 100 1.8zm10.8 9h-10.8a.9.9 0 000 1.8h10.8a.899.899 0 100-1.8z"/><path d="M548.418 93c-.052 0-.103.013-.155.015v-.016c0-1.985-1.615-3.6-3.6-3.6h-32.4a3.605 3.605 0 00-3.6 3.6v35.1a.901.901 0 001.536.637l8.737-8.737h25.727c1.985 0 3.6-1.614 3.6-3.6v-14.927l2.591-2.59v-.002a3.466 3.466 0 001.009-2.435 3.45 3.45 0 00-3.445-3.446zm-1.955 23.399c0 .993-.807 1.8-1.8 1.8h-26.1a.897.897 0 00-.636.264l-7.464 7.464V92.999c0-.992.807-1.8 1.8-1.8h32.4c.993 0 1.8.808 1.8 1.8v.615a3.414 3.414 0 00-.482.394l-9.792 9.791h-17.626a.9.9 0 000 1.801h16.182l-.864 4.323a.897.897 0 001.058 1.059l4.498-.9a.892.892 0 00.461-.246l6.565-6.565v13.128zm-7.645-8.028l-2.907.581.582-2.91 8.17-8.17 2.327 2.327-8.172 8.172zm10.763-10.763l-1.318 1.319-2.328-2.328 1.319-1.319a1.647 1.647 0 012.327 2.328z"/></g><g filter="url(#filter1_d)" fill="#00BBD3"><circle cx="254.179" cy="368.413" r="5.423"/><path d="M250.609 382.363v9.979a41.36 41.36 0 00-23.917 7.746l-.001.001a.667.667 0 00-.251.73s0 0 0 0l.24-.07m23.929-18.386l-23.868 18.511a.414.414 0 01-.061-.125m23.929-18.386c-6.081-.548-10.846-5.658-10.846-11.882 0-6.59 5.341-11.931 11.93-11.931 6.59 0 11.931 5.341 11.931 11.931 0 6.506-5.207 11.795-11.681 11.928v9.946l-1.334-9.992zm-23.929 18.386a.419.419 0 01.157-.458l-.157.458zm35.61-30.268c0 5.852-4.744 10.596-10.597 10.596-5.852 0-10.596-4.744-10.596-10.596 0-5.853 4.744-10.597 10.596-10.597 5.853 0 10.597 4.744 10.597 10.597z" stroke="#00BBD3" stroke-width=".5"/></g><g filter="url(#filter2_d)"><circle cx="250.663" cy="382.799" r="39.6" stroke="#00BBD3" stroke-width="2"/></g><g filter="url(#filter3_d)"><circle cx="529.063" cy="661.2" r="39.6" stroke="#00BBD3" stroke-width="2"/></g><g filter="url(#filter4_d)"><circle cx="529.063" cy="106.799" r="39.6" stroke="#00BBD3" stroke-width="2"/></g><path opacity=".2" d="M298.026 408.739a53.999 53.999 0 01-89.744 7.525 53.999 53.999 0 1189.164-60.433m257.556 258.007A53.994 53.994 0 01581.45 674.3a53.993 53.993 0 01-51.795 40.897 54.005 54.005 0 01-33.119-10.892 54.005 54.005 0 01-17.408-63.657 53.995 53.995 0 0122.966-26.231m52.908-460.256a53.994 53.994 0 0026.448-60.462 53.994 53.994 0 00-51.795-40.897 54.003 54.003 0 00-52.679 39.752 53.996 53.996 0 002.152 34.797 53.995 53.995 0 0022.966 26.231" stroke="#00BBD3" stroke-width="8" stroke-linecap="round"/><g filter="url(#filter5_d)"><circle cx="803.864" cy="385.2" r="39.6" stroke="#00BBD3" stroke-width="2"/></g><path opacity=".2" d="M756.935 358.483a54.003 54.003 0 0160.891-25.447 53.997 53.997 0 0128.599 85.397 53.995 53.995 0 01-63.935 16.356 53.997 53.997 0 01-25.848-23.396" stroke="#00BBD3" stroke-width="8" stroke-linecap="round"/><g filter="url(#filter6_d)"><path fill-rule="evenodd" clip-rule="evenodd" d="M797.927 374.705c0-4.406 3.032-7.706 6.461-7.706 3.43 0 6.462 3.3 6.462 7.706 0 4.405-3.032 7.705-6.462 7.705-3.429 0-6.461-3.3-6.461-7.705zm6.461-9.706c-4.812 0-8.461 4.496-8.461 9.706 0 5.21 3.649 9.705 8.461 9.705 4.813 0 8.462-4.495 8.462-9.705s-3.649-9.706-8.462-9.706zm.621 23.629c-6.429 0-10.581 1.935-13.132 4.401-2.524 2.44-3.414 5.341-3.414 7.17 0 .435.281.82.695.953l15.546 4.974a.999.999 0 00.621-.003l14.924-4.975a1 1 0 00.683-.949c0-1.825-.886-4.721-3.324-7.158-2.468-2.469-6.467-4.413-12.599-4.413zm-.007 15.494l-14.482-4.634c.2-1.341.958-3.292 2.747-5.021 2.113-2.043 5.734-3.839 11.742-3.839 5.682 0 9.145 1.787 11.185 3.827 1.736 1.736 2.486 3.697 2.683 5.042l-13.875 4.625z" fill="#00BBD3"/></g><path opacity=".5" d="M534.579 324.756l-87.28 10.844 29.613 73.847m57.667-84.691l74.293 10.844-25.977 73.847m-48.316-84.691l-4.94-32.008m4.94 32.008l-57.667 84.691m57.667-84.691l48.316 84.691m0 0l-56.628 64.552-49.355-64.552m105.983 0H476.912m105.983 0l25.977 18.075m-131.96-18.075l-29.613 20.657" stroke="#00BBD3" stroke-width="2"/><g filter="url(#filter7_d)"><path d="M529.625 292.748l-83.362 43.377m83.362-43.377l79.246 43.377m-79.246-43.377l39.623 60.934m-39.623-60.934l-60.206 60.934m-23.156-17.557v94.498m0-94.498l23.156 17.557m-23.156 76.941l23.156-76.941m-23.156 76.941L526.023 474m-79.76-43.377l65.867 9.295m-42.711-86.236l42.711 86.236m-42.711-86.236h99.829m-57.118 86.236l57.118-86.236m-57.118 86.236l96.741-12.909m-96.741 12.909L526.023 474m43.225-120.318l39.623 73.327m-39.623-73.327l39.623-17.557m0 90.884v-90.884m0 90.884L526.023 474" stroke="#00BBD3" stroke-width="2"/></g><g filter="url(#filter8_d)"><path d="M366.284 368.232c3.827-38.067 20.875-73.568 48.155-100.289 27.28-26.721 63.055-42.958 101.06-45.87" stroke="#00BBD3" stroke-width="4" stroke-linecap="round"/></g><g filter="url(#filter9_d)"><path d="M255.796 307.264a2 2 0 103.849 1.089l-3.849-1.089zm72.458-120.583l1.424 1.405-1.424-1.405zm120.111-71.968l-22.616-4.676 7.258 21.924 15.358-17.248zm-188.72 193.64a279.532 279.532 0 0170.033-120.267l-2.847-2.81a283.533 283.533 0 00-71.035 121.988l3.849 1.089zm70.033-120.267a278.733 278.733 0 01102.291-65.839l-1.378-3.755a282.736 282.736 0 00-103.76 66.784l2.847 2.81z" fill="#00BBD3"/></g><g filter="url(#filter10_d)"><path d="M447.176 654.132l-15.281-17.316-7.356 21.892 22.637-4.576zm-119.792-72.499l1.429-1.399-1.429 1.399zm-68.072-121.976a2 2 0 00-3.854 1.072l3.854-1.072zm171.501 186.868a278.728 278.728 0 01-102-66.291l-2.859 2.797a282.734 282.734 0 00103.464 67.243l1.395-3.749zm-102-66.291a279.532 279.532 0 01-69.501-120.577l-3.854 1.072a283.539 283.539 0 0070.496 122.302l2.859-2.797z" fill="#00BBD3"/></g><g filter="url(#filter11_d)"><path d="M798.647 459.086l-16.93 15.706 22.067 6.809-5.137-22.515zm-69.503 121.725l1.435 1.393-1.435-1.393zm-120.079 71.076a2 2 0 101.167 3.826l-1.167-3.826zm182.384-176.251a279.51 279.51 0 01-63.74 103.782l2.87 2.786a283.516 283.516 0 0064.652-105.267l-3.782-1.301zm-63.74 103.782a278.699 278.699 0 01-118.644 72.469l1.167 3.826a282.708 282.708 0 00120.347-73.509l-2.87-2.786z" fill="#00BBD3"/></g><g filter="url(#filter12_d)"><path d="M611.538 113.89a2 2 0 10-1.186 3.82l1.186-3.82zm118.549 75.477l-1.441 1.386 1.441-1.386zm68.916 122.06l5.246-22.491-22.1 6.703 16.854 15.788zM610.352 117.71a278.704 278.704 0 01118.294 73.043l2.883-2.772a282.688 282.688 0 00-119.991-74.091l-1.186 3.82zm118.294 73.043a279.502 279.502 0 0163.238 104.089l3.789-1.283a283.5 283.5 0 00-64.144-105.578l-2.883 2.772z" fill="#00BBD3"/></g><g filter="url(#filter13_d)"><path d="M510.854 546.703c-37.906-4.007-73.201-21.268-99.706-48.764-26.505-27.496-42.529-63.474-45.266-101.636" stroke="#00BBD3" stroke-width="4" stroke-linecap="round"/></g><g filter="url(#filter14_d)"><path d="M689.759 397.435c-3.002 38.142-19.276 74.007-45.971 101.317-26.694 27.31-62.109 44.324-100.042 48.066" stroke="#00BBD3" stroke-width="4" stroke-linecap="round"/></g><g filter="url(#filter15_d)"><path d="M542.971 222.306c37.95 3.559 73.446 20.403 100.27 47.584 26.826 27.182 43.27 62.968 46.454 101.095" stroke="#00BBD3" stroke-width="4" stroke-linecap="round"/></g><path opacity=".2" fill-rule="evenodd" clip-rule="evenodd" d="M397.122 512.35a181.991 181.991 0 01-47.203-84.087 8 8 0 00-15.529 3.856 197.995 197.995 0 00142.238 143.88 8 8 0 009.758-5.725 8 8 0 00-5.724-9.758 181.994 181.994 0 01-83.54-48.166zm85.636-305.502a8 8 0 00-3.752-15.554A197.988 197.988 0 00334.19 332.52a8 8 0 0015.455 4.141 181.997 181.997 0 0148.727-83.189 182 182 0 0184.386-46.624zm83.584 363.504a8 8 0 015.744-9.748 181.991 181.991 0 00130.999-131.998 8 8 0 1115.521 3.886A197.998 197.998 0 01576.09 576.095a8 8 0 01-9.748-5.743zm7.738-378.331a8 8 0 00-3.886 15.521A181.986 181.986 0 01702.19 338.544a8 8 0 1015.491-4.003 197.984 197.984 0 00-143.601-142.52z" fill="#00BBD3"/><path opacity=".2" fill-rule="evenodd" clip-rule="evenodd" d="M426.281 483.427a140.94 140.94 0 01-36.559-65.126 4 4 0 00-7.764 1.928 148.946 148.946 0 00107.007 108.244 4.001 4.001 0 002.017-7.742 140.935 140.935 0 01-64.701-37.304zm66.338-236.604a4 4 0 00-1.876-7.777 148.957 148.957 0 00-108.948 106.247 4 4 0 007.728 2.07 140.946 140.946 0 01103.096-100.54zm66.3 278.851a4 4 0 012.872-4.874A140.954 140.954 0 00663.25 418.567a4 4 0 017.76 1.943 148.95 148.95 0 01-107.217 108.036 4.001 4.001 0 01-4.874-2.872zm3.356-286.078a4 4 0 10-1.943 7.76 140.955 140.955 0 01102.231 101.462 4.001 4.001 0 007.745-2.002 148.937 148.937 0 00-39.287-68.451 148.937 148.937 0 00-68.746-38.769z" fill="#00BBD3"/><g filter="url(#filter16_d)"><circle r="2.4" transform="matrix(0 -1 -1 0 365.863 381.652)" fill="#00BBD3"/></g><g filter="url(#filter17_d)"><circle r="2.4" transform="matrix(0 -1 -1 0 355.063 381.652)" fill="#00BBD3"/></g><g filter="url(#filter18_d)"><circle r="2.4" transform="matrix(0 -1 -1 0 317.863 381.652)" fill="#00BBD3"/></g><g filter="url(#filter19_d)"><circle r="9.6" transform="matrix(0 -1 -1 0 335.863 381.652)" fill="#00BBD3"/></g><g filter="url(#filter20_d)"><circle r="2.4" transform="matrix(0 -1 -1 0 305.863 381.652)" fill="#00BBD3"/></g><g filter="url(#filter21_d)"><circle r="2.4" transform="matrix(1 0 0 -1 529.063 607.2)" fill="#00BBD3"/></g><g filter="url(#filter22_d)"><circle r="2.4" transform="matrix(1 0 0 -1 529.063 596.4)" fill="#00BBD3"/></g><g filter="url(#filter23_d)"><circle r="2.4" transform="matrix(1 0 0 -1 529.063 559.2)" fill="#00BBD3"/></g><g filter="url(#filter24_d)"><circle r="9.6" transform="matrix(1 0 0 -1 529.063 577.2)" fill="#00BBD3"/></g><g filter="url(#filter25_d)"><circle r="2.4" transform="matrix(1 0 0 -1 529.063 547.2)" fill="#00BBD3"/></g><g filter="url(#filter26_d)"><circle cx="529.063" cy="160.799" r="2.4" fill="#00BBD3"/></g><g filter="url(#filter27_d)"><circle cx="529.063" cy="171.599" r="2.4" fill="#00BBD3"/></g><g filter="url(#filter28_d)"><circle cx="529.063" cy="208.799" r="2.4" fill="#00BBD3"/></g><g filter="url(#filter29_d)"><circle cx="529.063" cy="190.799" r="9.6" fill="#00BBD3"/></g><g filter="url(#filter30_d)"><circle cx="529.063" cy="220.799" r="2.4" fill="#00BBD3"/></g><g filter="url(#filter31_d)"><circle r="2.4" transform="matrix(0 -1 -1 0 751.063 384.052)" fill="#00BBD3"/></g><g filter="url(#filter32_d)"><circle r="2.4" transform="matrix(0 -1 -1 0 740.263 384.052)" fill="#00BBD3"/></g><g filter="url(#filter33_d)"><circle r="2.4" transform="matrix(0 -1 -1 0 703.063 384.052)" fill="#00BBD3"/></g><g filter="url(#filter34_d)"><circle r="9.6" transform="matrix(0 -1 -1 0 721.063 384.052)" fill="#00BBD3"/></g><g filter="url(#filter35_d)"><circle r="2.4" transform="matrix(0 -1 -1 0 691.063 384.052)" fill="#00BBD3"/></g><g clip-path="url(#clip1)" filter="url(#filter36_d)" fill="#00BBD3"><path d="M547.063 653.399h-36a.9.9 0 00-.9.9v25.2a.9.9 0 00.9.9h36a.9.9 0 00.9-.9v-25.2a.9.9 0 00-.9-.9zm-.9 25.2h-34.2v-23.4h34.2v23.4z"/><path d="M548.862 646.199h-39.6a.9.9 0 00-.9.9v7.2a.9.9 0 00.9.9h39.6a.9.9 0 00.9-.9v-7.2a.9.9 0 00-.9-.9zm-.9 7.2h-37.8v-5.4h37.8v5.4z"/><path d="M529.063 646.199a.9.9 0 00-.9.9v32.4a.9.9 0 001.8 0v-32.4a.9.9 0 00-.9-.9z"/><path d="M529.982 646.887c-.925-4.34-6.444-8.997-10.121-9.619a3.604 3.604 0 00-4.299 3.531c0 .83.29 1.64.816 2.283.007.005.012.014.018.021 2.673 3.415 11.57 4.724 12.582 4.862a.902.902 0 001.004-1.078zm-12.193-4.927c-.016-.023-.034-.043-.052-.063a1.773 1.773 0 01-.375-1.098 1.803 1.803 0 012.175-1.762c2.698.457 6.771 3.722 8.235 6.908-3.134-.577-8.424-1.926-9.983-3.985z"/><path d="M538.963 637.199c-.24 0-.472.024-.674.063-3.7.628-9.219 5.285-10.144 9.625a.902.902 0 00.88 1.087c.04 0 .081-.004.121-.007 1.011-.139 9.909-1.447 12.582-4.862l.019-.023a3.614 3.614 0 00.816-2.283c0-1.985-1.615-3.6-3.6-3.6zm1.425 4.7a.645.645 0 00-.052.063c-1.557 2.056-6.847 3.407-9.983 3.985 1.465-3.189 5.541-6.453 8.26-6.914a1.802 1.802 0 011.775 2.866z"/></g><defs><filter id="filter0_d" x="498.663" y="77.6" width="63.2" height="63.2" filterUnits="userSpaceOnUse" color-interpolation-filters="sRGB"><feFlood flood-opacity="0" result="BackgroundImageFix"/><feColorMatrix in="SourceAlpha" values="0 0 0 0 0 0 0 0 0 0 0 0 0 0 0 0 0 0 127 0"/><feOffset/><feGaussianBlur stdDeviation="5"/><feColorMatrix values="0 0 0 0 0 0 0 0 0 0.733333 0 0 0 0 0.827451 0 0 0 0.36 0"/><feBlend in2="BackgroundImageFix" result="effect1_dropShadow"/><feBlend in="SourceGraphic" in2="effect1_dropShadow" result="shape"/></filter><filter id="filter1_d" x="216.163" y="348.3" width="69.392" height="63.248" filterUnits="userSpaceOnUse" color-interpolation-filters="sRGB"><feFlood flood-opacity="0" result="BackgroundImageFix"/><feColorMatrix in="SourceAlpha" values="0 0 0 0 0 0 0 0 0 0 0 0 0 0 0 0 0 0 127 0"/><feOffset/><feGaussianBlur stdDeviation="5"/><feColorMatrix values="0 0 0 0 0 0 0 0 0 0.733333 0 0 0 0 0.827451 0 0 0 0.36 0"/><feBlend in2="BackgroundImageFix" result="effect1_dropShadow"/><feBlend in="SourceGraphic" in2="effect1_dropShadow" result="shape"/></filter><filter id="filter2_d" x="200.063" y="332.199" width="101.2" height="101.2" filterUnits="userSpaceOnUse" color-interpolation-filters="sRGB"><feFlood flood-opacity="0" result="BackgroundImageFix"/><feColorMatrix in="SourceAlpha" values="0 0 0 0 0 0 0 0 0 0 0 0 0 0 0 0 0 0 127 0"/><feOffset/><feGaussianBlur stdDeviation="5"/><feColorMatrix values="0 0 0 0 0 0 0 0 0 0.733333 0 0 0 0 0.827451 0 0 0 0.36 0"/><feBlend in2="BackgroundImageFix" result="effect1_dropShadow"/><feBlend in="SourceGraphic" in2="effect1_dropShadow" result="shape"/></filter><filter id="filter3_d" x="478.463" y="610.6" width="101.2" height="101.2" filterUnits="userSpaceOnUse" color-interpolation-filters="sRGB"><feFlood flood-opacity="0" result="BackgroundImageFix"/><feColorMatrix in="SourceAlpha" values="0 0 0 0 0 0 0 0 0 0 0 0 0 0 0 0 0 0 127 0"/><feOffset/><feGaussianBlur stdDeviation="5"/><feColorMatrix values="0 0 0 0 0 0 0 0 0 0.733333 0 0 0 0 0.827451 0 0 0 0.36 0"/><feBlend in2="BackgroundImageFix" result="effect1_dropShadow"/><feBlend in="SourceGraphic" in2="effect1_dropShadow" result="shape"/></filter><filter id="filter4_d" x="478.463" y="56.199" width="101.2" height="101.2" filterUnits="userSpaceOnUse" color-interpolation-filters="sRGB"><feFlood flood-opacity="0" result="BackgroundImageFix"/><feColorMatrix in="SourceAlpha" values="0 0 0 0 0 0 0 0 0 0 0 0 0 0 0 0 0 0 127 0"/><feOffset/><feGaussianBlur stdDeviation="5"/><feColorMatrix values="0 0 0 0 0 0 0 0 0 0.733333 0 0 0 0 0.827451 0 0 0 0.36 0"/><feBlend in2="BackgroundImageFix" result="effect1_dropShadow"/><feBlend in="SourceGraphic" in2="effect1_dropShadow" result="shape"/></filter><filter id="filter5_d" x="753.264" y="334.6" width="101.2" height="101.2" filterUnits="userSpaceOnUse" color-interpolation-filters="sRGB"><feFlood flood-opacity="0" result="BackgroundImageFix"/><feColorMatrix in="SourceAlpha" values="0 0 0 0 0 0 0 0 0 0 0 0 0 0 0 0 0 0 127 0"/><feOffset/><feGaussianBlur stdDeviation="5"/><feColorMatrix values="0 0 0 0 0 0 0 0 0 0.733333 0 0 0 0 0.827451 0 0 0 0.36 0"/><feBlend in2="BackgroundImageFix" result="effect1_dropShadow"/><feBlend in="SourceGraphic" in2="effect1_dropShadow" result="shape"/></filter><filter id="filter6_d" x="768.463" y="344.999" width="72.469" height="81.175" filterUnits="userSpaceOnUse" color-interpolation-filters="sRGB"><feFlood flood-opacity="0" result="BackgroundImageFix"/><feColorMatrix in="SourceAlpha" values="0 0 0 0 0 0 0 0 0 0 0 0 0 0 0 0 0 0 127 0"/><feOffset/><feGaussianBlur stdDeviation="10"/><feColorMatrix values="0 0 0 0 0 0 0 0 0 0.733333 0 0 0 0 0.827451 0 0 0 0.36 0"/><feBlend in2="BackgroundImageFix" result="effect1_dropShadow"/><feBlend in="SourceGraphic" in2="effect1_dropShadow" result="shape"/></filter><filter id="filter7_d" x="435.263" y="281.614" width="184.609" height="203.529" filterUnits="userSpaceOnUse" color-interpolation-filters="sRGB"><feFlood flood-opacity="0" result="BackgroundImageFix"/><feColorMatrix in="SourceAlpha" values="0 0 0 0 0 0 0 0 0 0 0 0 0 0 0 0 0 0 127 0"/><feOffset/><feGaussianBlur stdDeviation="5"/><feColorMatrix values="0 0 0 0 0 0 0 0 0 0.733333 0 0 0 0 0.827451 0 0 0 0.36 0"/><feBlend in2="BackgroundImageFix" result="effect1_dropShadow"/><feBlend in="SourceGraphic" in2="effect1_dropShadow" result="shape"/></filter><filter id="filter8_d" x="354.283" y="210.072" width="173.215" height="170.16" filterUnits="userSpaceOnUse" color-interpolation-filters="sRGB"><feFlood flood-opacity="0" result="BackgroundImageFix"/><feColorMatrix in="SourceAlpha" values="0 0 0 0 0 0 0 0 0 0 0 0 0 0 0 0 0 0 127 0"/><feOffset/><feGaussianBlur stdDeviation="5"/><feColorMatrix values="0 0 0 0 0 0 0 0 0 0.733333 0 0 0 0 0.827451 0 0 0 0.36 0"/><feBlend in2="BackgroundImageFix" result="effect1_dropShadow"/><feBlend in="SourceGraphic" in2="effect1_dropShadow" result="shape"/></filter><filter id="filter9_d" x="245.72" y="100.037" width="212.644" height="219.772" filterUnits="userSpaceOnUse" color-interpolation-filters="sRGB"><feFlood flood-opacity="0" result="BackgroundImageFix"/><feColorMatrix in="SourceAlpha" values="0 0 0 0 0 0 0 0 0 0 0 0 0 0 0 0 0 0 127 0"/><feOffset/><feGaussianBlur stdDeviation="5"/><feColorMatrix values="0 0 0 0 0 0 0 0 0 0.733333 0 0 0 0 0.827451 0 0 0 0.36 0"/><feBlend in2="BackgroundImageFix" result="effect1_dropShadow"/><feBlend in="SourceGraphic" in2="effect1_dropShadow" result="shape"/></filter><filter id="filter10_d" x="245.384" y="448.192" width="211.791" height="220.515" filterUnits="userSpaceOnUse" color-interpolation-filters="sRGB"><feFlood flood-opacity="0" result="BackgroundImageFix"/><feColorMatrix in="SourceAlpha" values="0 0 0 0 0 0 0 0 0 0 0 0 0 0 0 0 0 0 127 0"/><feOffset/><feGaussianBlur stdDeviation="5"/><feColorMatrix values="0 0 0 0 0 0 0 0 0 0.733333 0 0 0 0 0.827451 0 0 0 0.36 0"/><feBlend in2="BackgroundImageFix" result="effect1_dropShadow"/><feBlend in="SourceGraphic" in2="effect1_dropShadow" result="shape"/></filter><filter id="filter11_d" x="597.647" y="449.086" width="216.136" height="216.715" filterUnits="userSpaceOnUse" color-interpolation-filters="sRGB"><feFlood flood-opacity="0" result="BackgroundImageFix"/><feColorMatrix in="SourceAlpha" values="0 0 0 0 0 0 0 0 0 0 0 0 0 0 0 0 0 0 127 0"/><feOffset/><feGaussianBlur stdDeviation="5"/><feColorMatrix values="0 0 0 0 0 0 0 0 0 0.733333 0 0 0 0 0.827451 0 0 0 0.36 0"/><feBlend in2="BackgroundImageFix" result="effect1_dropShadow"/><feBlend in="SourceGraphic" in2="effect1_dropShadow" result="shape"/></filter><filter id="filter12_d" x="598.944" y="103.799" width="215.304" height="217.628" filterUnits="userSpaceOnUse" color-interpolation-filters="sRGB"><feFlood flood-opacity="0" result="BackgroundImageFix"/><feColorMatrix in="SourceAlpha" values="0 0 0 0 0 0 0 0 0 0 0 0 0 0 0 0 0 0 127 0"/><feOffset/><feGaussianBlur stdDeviation="5"/><feColorMatrix values="0 0 0 0 0 0 0 0 0 0.733333 0 0 0 0 0.827451 0 0 0 0.36 0"/><feBlend in2="BackgroundImageFix" result="effect1_dropShadow"/><feBlend in="SourceGraphic" in2="effect1_dropShadow" result="shape"/></filter><filter id="filter13_d" x="353.882" y="384.303" width="168.973" height="174.401" filterUnits="userSpaceOnUse" color-interpolation-filters="sRGB"><feFlood flood-opacity="0" result="BackgroundImageFix"/><feColorMatrix in="SourceAlpha" values="0 0 0 0 0 0 0 0 0 0 0 0 0 0 0 0 0 0 127 0"/><feOffset/><feGaussianBlur stdDeviation="5"/><feColorMatrix values="0 0 0 0 0 0 0 0 0 0.733333 0 0 0 0 0.827451 0 0 0 0.36 0"/><feBlend in2="BackgroundImageFix" result="effect1_dropShadow"/><feBlend in="SourceGraphic" in2="effect1_dropShadow" result="shape"/></filter><filter id="filter14_d" x="531.746" y="385.435" width="170.013" height="173.384" filterUnits="userSpaceOnUse" color-interpolation-filters="sRGB"><feFlood flood-opacity="0" result="BackgroundImageFix"/><feColorMatrix in="SourceAlpha" values="0 0 0 0 0 0 0 0 0 0 0 0 0 0 0 0 0 0 127 0"/><feOffset/><feGaussianBlur stdDeviation="5"/><feColorMatrix values="0 0 0 0 0 0 0 0 0 0.733333 0 0 0 0 0.827451 0 0 0 0.36 0"/><feBlend in2="BackgroundImageFix" result="effect1_dropShadow"/><feBlend in="SourceGraphic" in2="effect1_dropShadow" result="shape"/></filter><filter id="filter15_d" x="530.971" y="210.307" width="170.725" height="172.679" filterUnits="userSpaceOnUse" color-interpolation-filters="sRGB"><feFlood flood-opacity="0" result="BackgroundImageFix"/><feColorMatrix in="SourceAlpha" values="0 0 0 0 0 0 0 0 0 0 0 0 0 0 0 0 0 0 127 0"/><feOffset/><feGaussianBlur stdDeviation="5"/><feColorMatrix values="0 0 0 0 0 0 0 0 0 0.733333 0 0 0 0 0.827451 0 0 0 0.36 0"/><feBlend in2="BackgroundImageFix" result="effect1_dropShadow"/><feBlend in="SourceGraphic" in2="effect1_dropShadow" result="shape"/></filter><filter id="filter16_d" x="353.463" y="369.252" width="24.8" height="24.8" filterUnits="userSpaceOnUse" color-interpolation-filters="sRGB"><feFlood flood-opacity="0" result="BackgroundImageFix"/><feColorMatrix in="SourceAlpha" values="0 0 0 0 0 0 0 0 0 0 0 0 0 0 0 0 0 0 127 0"/><feOffset/><feGaussianBlur stdDeviation="5"/><feColorMatrix values="0 0 0 0 0 0 0 0 0 0.733333 0 0 0 0 0.827451 0 0 0 0.36 0"/><feBlend in2="BackgroundImageFix" result="effect1_dropShadow"/><feBlend in="SourceGraphic" in2="effect1_dropShadow" result="shape"/></filter><filter id="filter17_d" x="342.663" y="369.252" width="24.8" height="24.8" filterUnits="userSpaceOnUse" color-interpolation-filters="sRGB"><feFlood flood-opacity="0" result="BackgroundImageFix"/><feColorMatrix in="SourceAlpha" values="0 0 0 0 0 0 0 0 0 0 0 0 0 0 0 0 0 0 127 0"/><feOffset/><feGaussianBlur stdDeviation="5"/><feColorMatrix values="0 0 0 0 0 0 0 0 0 0.733333 0 0 0 0 0.827451 0 0 0 0.36 0"/><feBlend in2="BackgroundImageFix" result="effect1_dropShadow"/><feBlend in="SourceGraphic" in2="effect1_dropShadow" result="shape"/></filter><filter id="filter18_d" x="305.463" y="369.252" width="24.8" height="24.8" filterUnits="userSpaceOnUse" color-interpolation-filters="sRGB"><feFlood flood-opacity="0" result="BackgroundImageFix"/><feColorMatrix in="SourceAlpha" values="0 0 0 0 0 0 0 0 0 0 0 0 0 0 0 0 0 0 127 0"/><feOffset/><feGaussianBlur stdDeviation="5"/><feColorMatrix values="0 0 0 0 0 0 0 0 0 0.733333 0 0 0 0 0.827451 0 0 0 0.36 0"/><feBlend in2="BackgroundImageFix" result="effect1_dropShadow"/><feBlend in="SourceGraphic" in2="effect1_dropShadow" result="shape"/></filter><filter id="filter19_d" x="316.263" y="362.052" width="39.2" height="39.2" filterUnits="userSpaceOnUse" color-interpolation-filters="sRGB"><feFlood flood-opacity="0" result="BackgroundImageFix"/><feColorMatrix in="SourceAlpha" values="0 0 0 0 0 0 0 0 0 0 0 0 0 0 0 0 0 0 127 0"/><feOffset/><feGaussianBlur stdDeviation="5"/><feColorMatrix values="0 0 0 0 0 0 0 0 0 0.733333 0 0 0 0 0.827451 0 0 0 0.36 0"/><feBlend in2="BackgroundImageFix" result="effect1_dropShadow"/><feBlend in="SourceGraphic" in2="effect1_dropShadow" result="shape"/></filter><filter id="filter20_d" x="293.463" y="369.252" width="24.8" height="24.8" filterUnits="userSpaceOnUse" color-interpolation-filters="sRGB"><feFlood flood-opacity="0" result="BackgroundImageFix"/><feColorMatrix in="SourceAlpha" values="0 0 0 0 0 0 0 0 0 0 0 0 0 0 0 0 0 0 127 0"/><feOffset/><feGaussianBlur stdDeviation="5"/><feColorMatrix values="0 0 0 0 0 0 0 0 0 0.733333 0 0 0 0 0.827451 0 0 0 0.36 0"/><feBlend in2="BackgroundImageFix" result="effect1_dropShadow"/><feBlend in="SourceGraphic" in2="effect1_dropShadow" result="shape"/></filter><filter id="filter21_d" x="516.663" y="594.8" width="24.8" height="24.8" filterUnits="userSpaceOnUse" color-interpolation-filters="sRGB"><feFlood flood-opacity="0" result="BackgroundImageFix"/><feColorMatrix in="SourceAlpha" values="0 0 0 0 0 0 0 0 0 0 0 0 0 0 0 0 0 0 127 0"/><feOffset/><feGaussianBlur stdDeviation="5"/><feColorMatrix values="0 0 0 0 0 0 0 0 0 0.733333 0 0 0 0 0.827451 0 0 0 0.36 0"/><feBlend in2="BackgroundImageFix" result="effect1_dropShadow"/><feBlend in="SourceGraphic" in2="effect1_dropShadow" result="shape"/></filter><filter id="filter22_d" x="516.663" y="584" width="24.8" height="24.8" filterUnits="userSpaceOnUse" color-interpolation-filters="sRGB"><feFlood flood-opacity="0" result="BackgroundImageFix"/><feColorMatrix in="SourceAlpha" values="0 0 0 0 0 0 0 0 0 0 0 0 0 0 0 0 0 0 127 0"/><feOffset/><feGaussianBlur stdDeviation="5"/><feColorMatrix values="0 0 0 0 0 0 0 0 0 0.733333 0 0 0 0 0.827451 0 0 0 0.36 0"/><feBlend in2="BackgroundImageFix" result="effect1_dropShadow"/><feBlend in="SourceGraphic" in2="effect1_dropShadow" result="shape"/></filter><filter id="filter23_d" x="516.663" y="546.8" width="24.8" height="24.8" filterUnits="userSpaceOnUse" color-interpolation-filters="sRGB"><feFlood flood-opacity="0" result="BackgroundImageFix"/><feColorMatrix in="SourceAlpha" values="0 0 0 0 0 0 0 0 0 0 0 0 0 0 0 0 0 0 127 0"/><feOffset/><feGaussianBlur stdDeviation="5"/><feColorMatrix values="0 0 0 0 0 0 0 0 0 0.733333 0 0 0 0 0.827451 0 0 0 0.36 0"/><feBlend in2="BackgroundImageFix" result="effect1_dropShadow"/><feBlend in="SourceGraphic" in2="effect1_dropShadow" result="shape"/></filter><filter id="filter24_d" x="509.463" y="557.6" width="39.2" height="39.2" filterUnits="userSpaceOnUse" color-interpolation-filters="sRGB"><feFlood flood-opacity="0" result="BackgroundImageFix"/><feColorMatrix in="SourceAlpha" values="0 0 0 0 0 0 0 0 0 0 0 0 0 0 0 0 0 0 127 0"/><feOffset/><feGaussianBlur stdDeviation="5"/><feColorMatrix values="0 0 0 0 0 0 0 0 0 0.733333 0 0 0 0 0.827451 0 0 0 0.36 0"/><feBlend in2="BackgroundImageFix" result="effect1_dropShadow"/><feBlend in="SourceGraphic" in2="effect1_dropShadow" result="shape"/></filter><filter id="filter25_d" x="516.663" y="534.8" width="24.8" height="24.8" filterUnits="userSpaceOnUse" color-interpolation-filters="sRGB"><feFlood flood-opacity="0" result="BackgroundImageFix"/><feColorMatrix in="SourceAlpha" values="0 0 0 0 0 0 0 0 0 0 0 0 0 0 0 0 0 0 127 0"/><feOffset/><feGaussianBlur stdDeviation="5"/><feColorMatrix values="0 0 0 0 0 0 0 0 0 0.733333 0 0 0 0 0.827451 0 0 0 0.36 0"/><feBlend in2="BackgroundImageFix" result="effect1_dropShadow"/><feBlend in="SourceGraphic" in2="effect1_dropShadow" result="shape"/></filter><filter id="filter26_d" x="516.663" y="148.399" width="24.8" height="24.8" filterUnits="userSpaceOnUse" color-interpolation-filters="sRGB"><feFlood flood-opacity="0" result="BackgroundImageFix"/><feColorMatrix in="SourceAlpha" values="0 0 0 0 0 0 0 0 0 0 0 0 0 0 0 0 0 0 127 0"/><feOffset/><feGaussianBlur stdDeviation="5"/><feColorMatrix values="0 0 0 0 0 0 0 0 0 0.733333 0 0 0 0 0.827451 0 0 0 0.36 0"/><feBlend in2="BackgroundImageFix" result="effect1_dropShadow"/><feBlend in="SourceGraphic" in2="effect1_dropShadow" result="shape"/></filter><filter id="filter27_d" x="516.663" y="159.199" width="24.8" height="24.8" filterUnits="userSpaceOnUse" color-interpolation-filters="sRGB"><feFlood flood-opacity="0" result="BackgroundImageFix"/><feColorMatrix in="SourceAlpha" values="0 0 0 0 0 0 0 0 0 0 0 0 0 0 0 0 0 0 127 0"/><feOffset/><feGaussianBlur stdDeviation="5"/><feColorMatrix values="0 0 0 0 0 0 0 0 0 0.733333 0 0 0 0 0.827451 0 0 0 0.36 0"/><feBlend in2="BackgroundImageFix" result="effect1_dropShadow"/><feBlend in="SourceGraphic" in2="effect1_dropShadow" result="shape"/></filter><filter id="filter28_d" x="516.663" y="196.399" width="24.8" height="24.8" filterUnits="userSpaceOnUse" color-interpolation-filters="sRGB"><feFlood flood-opacity="0" result="BackgroundImageFix"/><feColorMatrix in="SourceAlpha" values="0 0 0 0 0 0 0 0 0 0 0 0 0 0 0 0 0 0 127 0"/><feOffset/><feGaussianBlur stdDeviation="5"/><feColorMatrix values="0 0 0 0 0 0 0 0 0 0.733333 0 0 0 0 0.827451 0 0 0 0.36 0"/><feBlend in2="BackgroundImageFix" result="effect1_dropShadow"/><feBlend in="SourceGraphic" in2="effect1_dropShadow" result="shape"/></filter><filter id="filter29_d" x="509.463" y="171.199" width="39.2" height="39.2" filterUnits="userSpaceOnUse" color-interpolation-filters="sRGB"><feFlood flood-opacity="0" result="BackgroundImageFix"/><feColorMatrix in="SourceAlpha" values="0 0 0 0 0 0 0 0 0 0 0 0 0 0 0 0 0 0 127 0"/><feOffset/><feGaussianBlur stdDeviation="5"/><feColorMatrix values="0 0 0 0 0 0 0 0 0 0.733333 0 0 0 0 0.827451 0 0 0 0.36 0"/><feBlend in2="BackgroundImageFix" result="effect1_dropShadow"/><feBlend in="SourceGraphic" in2="effect1_dropShadow" result="shape"/></filter><filter id="filter30_d" x="516.663" y="208.399" width="24.8" height="24.8" filterUnits="userSpaceOnUse" color-interpolation-filters="sRGB"><feFlood flood-opacity="0" result="BackgroundImageFix"/><feColorMatrix in="SourceAlpha" values="0 0 0 0 0 0 0 0 0 0 0 0 0 0 0 0 0 0 127 0"/><feOffset/><feGaussianBlur stdDeviation="5"/><feColorMatrix values="0 0 0 0 0 0 0 0 0 0.733333 0 0 0 0 0.827451 0 0 0 0.36 0"/><feBlend in2="BackgroundImageFix" result="effect1_dropShadow"/><feBlend in="SourceGraphic" in2="effect1_dropShadow" result="shape"/></filter><filter id="filter31_d" x="738.663" y="371.652" width="24.8" height="24.8" filterUnits="userSpaceOnUse" color-interpolation-filters="sRGB"><feFlood flood-opacity="0" result="BackgroundImageFix"/><feColorMatrix in="SourceAlpha" values="0 0 0 0 0 0 0 0 0 0 0 0 0 0 0 0 0 0 127 0"/><feOffset/><feGaussianBlur stdDeviation="5"/><feColorMatrix values="0 0 0 0 0 0 0 0 0 0.733333 0 0 0 0 0.827451 0 0 0 0.36 0"/><feBlend in2="BackgroundImageFix" result="effect1_dropShadow"/><feBlend in="SourceGraphic" in2="effect1_dropShadow" result="shape"/></filter><filter id="filter32_d" x="727.863" y="371.652" width="24.8" height="24.8" filterUnits="userSpaceOnUse" color-interpolation-filters="sRGB"><feFlood flood-opacity="0" result="BackgroundImageFix"/><feColorMatrix in="SourceAlpha" values="0 0 0 0 0 0 0 0 0 0 0 0 0 0 0 0 0 0 127 0"/><feOffset/><feGaussianBlur stdDeviation="5"/><feColorMatrix values="0 0 0 0 0 0 0 0 0 0.733333 0 0 0 0 0.827451 0 0 0 0.36 0"/><feBlend in2="BackgroundImageFix" result="effect1_dropShadow"/><feBlend in="SourceGraphic" in2="effect1_dropShadow" result="shape"/></filter><filter id="filter33_d" x="690.663" y="371.652" width="24.8" height="24.8" filterUnits="userSpaceOnUse" color-interpolation-filters="sRGB"><feFlood flood-opacity="0" result="BackgroundImageFix"/><feColorMatrix in="SourceAlpha" values="0 0 0 0 0 0 0 0 0 0 0 0 0 0 0 0 0 0 127 0"/><feOffset/><feGaussianBlur stdDeviation="5"/><feColorMatrix values="0 0 0 0 0 0 0 0 0 0.733333 0 0 0 0 0.827451 0 0 0 0.36 0"/><feBlend in2="BackgroundImageFix" result="effect1_dropShadow"/><feBlend in="SourceGraphic" in2="effect1_dropShadow" result="shape"/></filter><filter id="filter34_d" x="701.463" y="364.452" width="39.2" height="39.2" filterUnits="userSpaceOnUse" color-interpolation-filters="sRGB"><feFlood flood-opacity="0" result="BackgroundImageFix"/><feColorMatrix in="SourceAlpha" values="0 0 0 0 0 0 0 0 0 0 0 0 0 0 0 0 0 0 127 0"/><feOffset/><feGaussianBlur stdDeviation="5"/><feColorMatrix values="0 0 0 0 0 0 0 0 0 0.733333 0 0 0 0 0.827451 0 0 0 0.36 0"/><feBlend in2="BackgroundImageFix" result="effect1_dropShadow"/><feBlend in="SourceGraphic" in2="effect1_dropShadow" result="shape"/></filter><filter id="filter35_d" x="678.663" y="371.652" width="24.8" height="24.8" filterUnits="userSpaceOnUse" color-interpolation-filters="sRGB"><feFlood flood-opacity="0" result="BackgroundImageFix"/><feColorMatrix in="SourceAlpha" values="0 0 0 0 0 0 0 0 0 0 0 0 0 0 0 0 0 0 127 0"/><feOffset/><feGaussianBlur stdDeviation="5"/><feColorMatrix values="0 0 0 0 0 0 0 0 0 0.733333 0 0 0 0 0.827451 0 0 0 0.36 0"/><feBlend in2="BackgroundImageFix" result="effect1_dropShadow"/><feBlend in="SourceGraphic" in2="effect1_dropShadow" result="shape"/></filter><filter id="filter36_d" x="497.463" y="627.199" width="63.2" height="63.2" filterUnits="userSpaceOnUse" color-interpolation-filters="sRGB"><feFlood flood-opacity="0" result="BackgroundImageFix"/><feColorMatrix in="SourceAlpha" values="0 0 0 0 0 0 0 0 0 0 0 0 0 0 0 0 0 0 127 0"/><feOffset/><feGaussianBlur stdDeviation="5"/><feColorMatrix values="0 0 0 0 0 0 0 0 0 0.733333 0 0 0 0 0.827451 0 0 0 0.36 0"/><feBlend in2="BackgroundImageFix" result="effect1_dropShadow"/><feBlend in="SourceGraphic" in2="effect1_dropShadow" result="shape"/></filter><clipPath id="clip0"><path fill="#fff" transform="translate(508.663 87.6)" d="M0 0h43.2v43.2H0z"/></clipPath><clipPath id="clip1"><path fill="#fff" transform="translate(507.463 637.199)" d="M0 0h43.2v43.2H0z"/></clipPath><linearGradient id="paint0_linear" x1="564.837" y1="403.982" x2="21.884" y2="403.982" gradientUnits="userSpaceOnUse"><stop stop-color="#00BBD3" stop-opacity=".36"/><stop offset="1" stop-color="#043A52" stop-opacity=".1"/></linearGradient></defs></svg>