<svg width="619" height="184" fill="none" xmlns="http://www.w3.org/2000/svg"><path d="M0 180.705h29.169V3.295H0v177.41zM123.806 184c18.769 0 33.988-4.562 45.401-13.939 11.668-9.378 17.502-22.303 17.502-38.27 1.268-16.981-8.878-29.146-18.262-36.496-2.79-2.281-7.102-4.816-12.936-7.097-5.58-2.28-9.892-4.055-13.189-5.069-3.044-1.267-7.863-2.787-14.711-5.068-27.14-8.364-35.764-14.447-35.764-27.626 0-13.432 10.907-22.05 27.901-22.05 17.501 0 29.929 8.364 37.285 24.838l24.603-14.193C170.222 14.7 148.155 0 119.748 0c-15.726 0-29.169 4.562-40.329 13.94-11.16 9.123-16.74 21.542-16.74 37.256 0 15.966 5.834 27.625 17.247 35.735 11.921 7.857 20.291 11.152 37.285 16.221 14.965 4.562 25.618 8.87 31.452 12.672 5.833 3.801 8.877 9.124 8.877 16.474 0 13.939-10.906 23.316-32.973 23.316-22.32 0-37.031-9.884-44.133-29.906l-25.11 14.7C64.707 167.526 89.563 184 123.805 184zm89.331-3.295h29.168V3.295h-29.168v177.41zm65.409-58.799c0 19.009 6.341 33.962 18.769 45.367C309.744 178.424 325.977 184 345.761 184c19.783 0 36.016-5.576 48.445-16.727 12.428-11.405 18.769-26.358 18.769-45.367V3.295h-29.168v116.837c0 21.543-12.682 35.482-38.046 35.482-25.364 0-38.046-13.939-38.046-35.482V3.295h-29.169v118.611zM587.802 3.295L534.031 92 480.513 3.295h-31.452v177.41h29.169V53.983l54.025 89.466h3.551l54.025-89.212v126.468H619V3.295h-31.198z" fill="#00BBD3"/></svg>