<svg version="1.0" xmlns="http://www.w3.org/2000/svg" width="1077.333" height="1077.333" viewBox="0 0 808 808"><path d="M400.9 48.4c-.2.2-3.5.6-7.2 1-3.8.3-7.2.8-7.6 1-.4.3-2.5.7-4.7.9-2.2.3-9.2 1.9-15.6 3.6-40.7 10.8-79.5 36.3-104.3 68.5-1.6 2.1-3.5 4.4-4 5-1.5 1.6-9.7 14.3-13.1 20.1-6.6 11.4-14.8 30.1-16.9 38.5-.2.8-1.3 4.6-2.4 8.5-2.5 8.9-4.8 21-5.8 30-1.3 12.5-.7 44.3 1.1 52.5.3 1.3.8 4.1 1.1 6.1.3 2 1 5 1.5 6.8.5 1.7.9 3.4.9 3.6.1.3.1.6.2.7 0 .2.2 1.4.5 2.8 1.4 8 10.5 31.4 16.5 42.1 2.1 4 3.9 7.4 3.9 7.6 0 1.4 15.7 23.2 22.4 31 3.6 4.3 16.9 17.4 21 20.7 2.1 1.7 4.3 3.5 5 4.1 11 9.7 42.7 27.6 55.1 31.1.6.1 3.4 1.2 6.3 2.3 2.9 1 9.4 2.9 14.5 4.1 11.5 2.7 12.3 2.9 17.2 3.5 2.2.3 5.1.7 6.5 1l2.5.5-.1 77.2v77.1l-11.5.3c-12.6.3-29.7 1.2-36.2 1.9-2.3.2-7.1.7-10.7 1-3.6.3-7.8.7-9.5.9-1.6.2-7.4 1-12.9 1.6-5.4.6-10.8 1.4-12 1.6-2.3.5-7.3 1.3-12.1 1.9-1.6.2-3 .4-3 .5 0 .1-.9.3-2 .5-4.4.8-11.1 1.9-12.5 2-.8.1-2.5.5-3.7.9-1.3.4-3.4.9-4.8 1.2-3.2.5-6.5 1.2-9 1.8-1.1.2-4.2 1-7 1.6-2.7.6-6.1 1.4-7.5 1.6-1.4.3-3.2.7-4 1-1.5.6-10.6 3-14.8 4-5.2 1.1-41 12.4-45.7 14.4-1.1.4-4.9 1.8-8.5 3-3.6 1.3-7.8 2.9-9.5 3.5-13.5 5.6-17.1 7-17.7 6.8-.5-.2-.8.2-.8.7 0 .6-.6 1-1.4 1-.8 0-5.7 2-11 4.5s-9.9 4.5-10.2 4.5c-.7 0-32.3 15.8-37.3 18.6-31.6 17.9-39.5 22.7-58.1 35.3C1.8 730.6.6 731.9.5 740.1c0 4.6.5 6.2 2.8 9.3 5.4 7 15.9 8.2 22.1 2.4 1.1-1 2.5-1.8 3.2-1.8.7 0 1.4-.4 1.6-.8.6-1.6 29-20 48.3-31.4 11.3-6.6 54.3-28.8 55.9-28.8.3 0 3.5-1.4 7.1-3 3.6-1.7 6.8-3 7-3 .2 0 2.8-1.1 5.7-2.4 6.6-3 35.6-13.9 42.3-15.9 2.8-.8 10.2-3.2 16.5-5.2 6.3-2 12.6-3.9 13.9-4.1 1.3-.3 3.2-.9 4.1-1.4 1-.5 2-.7 2.3-.4.3.3 1.2.2 1.9-.2.7-.5 1.8-.9 2.3-1 .6-.1 3.7-.9 7-1.7 3.3-.9 7.4-1.9 9.2-2.2 1.8-.3 4.4-1 5.9-1.5 1.5-.6 2.9-.8 3.1-.6.3.3 1.5.1 2.7-.4 1.3-.4 4-1.1 6.2-1.5 4.7-.8 6.9-1.3 6.9-1.5 0-.1 1.1-.3 2.5-.5 1.4-.1 6.6-1 11.5-1.8 15.3-2.7 16.1-2.8 27.5-4.2 3-.3 6.6-.8 8-1 3.3-.5 14.5-1.7 19-2 19.5-1.5 29.9-1.9 57.5-1.8 17.6 0 35.8.3 40.5.6 16 1.1 23.5 1.7 27 2.2 1.9.3 5.4.7 7.8 1 4.7.6 11.2 1.4 15.7 2 14.1 1.8 31.4 4.9 43 7.5 5 1.1 9.9 2.2 11 2.4 1.1.2 4.9 1.1 8.5 2 3.6.9 7.5 1.8 8.8 2.1 1.2.2 2.6.6 3 .9.5.3 1.9.7 3.3.9 1.3.3 4.4 1.1 6.9 1.8s4.7 1.3 5 1.4c.8.1 15.3 4.5 17 5.1.8.3 1.7.6 2 .6 2.6.3 37.4 13.3 52.8 19.7 26.3 11 63.6 29.8 79.7 40.1 1.7 1.1 3.7 2.3 4.5 2.6.8.4 10.7 6.8 22 14.3 11.3 7.5 21 13.8 21.5 14 .6.2 1.2.7 1.5 1.1.3.4 2.3 1 4.5 1.3 10 1.3 18.4-7 17.1-17-.3-2.5-1.1-5.2-1.8-6.1-2.1-2.9-7.2-7.2-8.5-7.2-.6 0-1.3-.4-1.5-.8-.1-.4-3.2-2.8-6.8-5.2-3.6-2.5-6.6-4.8-6.8-5.3-.2-.4-.7-.7-1.2-.7s-3.6-1.8-6.8-4c-19.3-12.8-66-38.8-69.9-39-.7 0-1.3-.3-1.3-.8 0-.4-2.7-1.8-6-3.1s-6-2.8-6-3.3c0-.4-.6-.8-1.4-.8-1.1 0-10.2-3.8-19.1-8-1.1-.5-4.5-1.9-7.5-3.1-3-1.1-6.6-2.6-8-3.2-1.4-.5-2.9-1.1-3.5-1.3-.5-.1-8.2-2.9-17-6.2-20.1-7.4-62.4-20-76.5-22.7-.8-.2-6-1.2-11.5-2.4-11.8-2.4-12.6-2.6-27.5-5.2-11.7-2.1-14.4-2.5-21.5-3.3-2.2-.2-5.1-.6-6.5-.9-1.4-.3-5.2-.8-8.5-1.1-9.9-.9-17.8-1.7-22-2.2-2.2-.2-10-.7-17.2-1-7.3-.3-14.1-.7-15-.8-1.7-.3-1.8-4.4-1.9-76.9-.1-55.2.2-76.7 1-76.8.6-.1 2.7-.3 4.6-.4 7.4-.6 18.8-2.1 25-3.4 7.6-1.6 17.1-4 21.8-5.6.7-.3 1.6-.5 2-.6.4-.1 3-1 5.7-2.1 19.9-7.7 36.5-16.9 52-28.7 26.5-20.2 48.8-48.6 61.8-78.6 3.7-8.7 4.8-11.4 5.3-13 .1-.6 1.4-4.5 2.8-8.8 2.3-7.2 5.1-19 6.2-26.2.2-1.7.8-5.7 1.3-9 .9-6.3.7-43.5-.3-49.5-2.9-17.2-8.1-36.9-12.6-47.5-9-21-18.1-36.4-32-53.9-2.1-2.7-22.2-22.7-25.1-25.1-11.3-9.1-26-19-34.9-23.4-2.5-1.2-5.2-2.6-6-3.1-3.5-2-21.6-9.2-27.5-11-5.5-1.6-15.6-4.1-18-4.5-1.1-.2-4.5-.8-7.5-1.4-3-.6-7.3-1.3-9.5-1.7-4.4-.7-41-1.5-41.6-1zM429 79.5c4.7.3 9.9.7 11.5.9 6.1.8 12 1.8 12.6 2.1.3.2 2.1.7 4 1 11.5 2 46.2 16.9 50.5 21.6.9 1 2.1 1.6 2.5 1.3.5-.3 1.2.2 1.5 1 .3.9 1.1 1.6 1.8 1.6 2 0 14.8 10.8 24.1 20.3 10 10.3 11.5 12 16.5 19.2 1.9 2.7 3.8 5.1 4.3 5.3.4.2.7.8.7 1.2 0 .5 1.2 2.6 2.6 4.7 6.1 8.9 18.8 39.3 19.8 47.3.1.8.5 2.6.9 4 .3 1.4.9 4.2 1.2 6.4.3 2.1.7 4.1.9 4.5.2.3.7 4.6 1.1 9.6 1.5 18.1.6 34.1-2.9 51-4.9 24-18 51.6-33.8 71-4.1 5-20 20.9-25.3 25.3-6.2 5-19.2 13.5-27.5 17.9-14.5 7.8-36.9 15.3-49.9 16.9-2.5.3-4.8.7-5.2.9-.5.4-20.8 1.8-24.4 1.7-4.7-.1-20.5-1.3-22.5-1.7-1.4-.3-4.5-.8-6.9-1.1-2.4-.2-4.8-.7-5.3-1-.5-.3-2.3-.8-4-1.1-5.2-.8-20.9-6.3-30.3-10.6-32.6-14.9-60.4-40.9-77.9-72.6-8.5-15.4-15.7-35.8-18.1-51.6-.3-1.7-.9-5.7-1.4-9-1-6.4-.7-37.5.4-43.8.6-3.4 4.9-22 5.9-25.7 3.4-12.3 15.4-37.2 21.8-45.5.5-.6 2.5-3.3 4.5-6 5.4-7.2 5-6.8 14.8-16.8 11.4-11.8 23.5-21.4 34.5-27.6 14.3-7.9 36.8-17 46.2-18.6 1.8-.3 4-.8 4.8-1 4.9-1.4 12.2-2.3 24-3.1 5.2-.3 9.6-.7 9.8-.9.2-.2 1.1-.1 2 .1.9.2 5.5.6 10.2.9z"/><path d="M449.8 118.6c-.2.1-2.6.5-5.4.8-2.9.4-8 1.6-11.5 2.7-3.5 1.2-6.8 2.2-7.4 2.3-5.2 1-22.1 12.3-29.8 19.9-11.5 11.3-21.2 29-24.1 44.2-.4 1.6-.9 4.1-1.2 5.5-.3 1.4-.5 6.5-.6 11.5 0 9.8.6 15 2.7 23.5.3 1.1.7 2.8.9 3.7.2 1 1.2 3.8 2.2 6.3 11.9 29.5 37.6 50.3 68.9 55.6 8.8 1.5 24.4.8 34.7-1.5 7.7-1.8 23.8-8.5 24.6-10.4.2-.4 1-.7 1.7-.7s1.5-.3 1.7-.8c.2-.4 2.6-2.4 5.3-4.4 14.3-10.4 26.9-29.5 31.4-47.3 2.1-8.5 2.3-10.4 2.4-22 .1-17-1.7-25-8.9-40.3-3.5-7.2-14.4-21.8-19.2-25.7-10.2-8.2-18.9-13.5-28.7-17.6-2.8-1.1-12.3-3.7-16.5-4.5-3.6-.6-22.8-1.3-23.2-.8z"/></svg>