<?xml version="1.0" standalone="no"?>
<!DOCTYPE svg PUBLIC "-//W3C//DTD SVG 20010904//EN"
 "http://www.w3.org/TR/2001/REC-SVG-20010904/DTD/svg10.dtd">
<svg version="1.0" xmlns="http://www.w3.org/2000/svg"
 width="808.000000pt" height="808.000000pt" viewBox="0 0 808.000000 808.000000"
 preserveAspectRatio="xMidYMid meet">
<metadata>
Created by potrace 1.11, written by Peter Selinger 2001-2013
</metadata>
<g transform="translate(0.000000,808.000000) scale(0.100000,-0.100000)"
fill="#000000" stroke="none">
<path d="M4009 7596 c-2 -2 -35 -6 -72 -10 -38 -3 -72 -8 -76 -10 -4 -3 -25
-7 -47 -9 -22 -3 -92 -19 -156 -36 -407 -108 -795 -363 -1043 -685 -16 -21
-35 -44 -40 -50 -15 -16 -97 -143 -131 -201 -66 -114 -148 -301 -169 -385 -2
-8 -13 -46 -24 -85 -25 -89 -48 -210 -58 -300 -13 -125 -7 -443 11 -525 3 -13
8 -41 11 -61 3 -20 10 -50 15 -68 5 -17 9 -34 9 -36 1 -3 1 -6 2 -7 0 -2 2
-14 5 -28 14 -80 105 -314 165 -421 21 -40 39 -74 39 -76 0 -14 157 -232 224
-310 36 -43 169 -174 210 -207 21 -17 43 -35 50 -41 110 -97 427 -276 551
-311 6 -1 34 -12 63 -23 29 -10 94 -29 145 -41 115 -27 123 -29 172 -35 22 -3
51 -7 65 -10 l25 -5 -1 -772 0 -771 -115 -3 c-126 -3 -297 -12 -362 -19 -23
-2 -71 -7 -107 -10 -36 -3 -78 -7 -95 -9 -16 -2 -74 -10 -129 -16 -54 -6 -108
-14 -120 -16 -23 -5 -73 -13 -121 -19 -16 -2 -30 -4 -30 -5 0 -1 -9 -3 -20 -5
-44 -8 -111 -19 -125 -20 -8 -1 -25 -5 -37 -9 -13 -4 -34 -9 -48 -12 -32 -5
-65 -12 -90 -18 -11 -2 -42 -10 -70 -16 -27 -6 -61 -14 -75 -16 -14 -3 -32 -7
-40 -10 -15 -6 -106 -30 -148 -40 -52 -11 -410 -124 -457 -144 -11 -4 -49 -18
-85 -30 -36 -13 -78 -29 -95 -35 -135 -56 -171 -70 -177 -68 -5 2 -8 -2 -8 -7
0 -6 -6 -10 -14 -10 -8 0 -57 -20 -110 -45 -53 -25 -99 -45 -102 -45 -7 0
-323 -158 -373 -186 -316 -179 -395 -227 -581 -353 -202 -137 -214 -150 -215
-232 0 -46 5 -62 28 -93 54 -70 159 -82 221 -24 11 10 25 18 32 18 7 0 14 4
16 8 6 16 290 200 483 314 113 66 543 288 559 288 3 0 35 14 71 30 36 17 68
30 70 30 2 0 28 11 57 24 66 30 356 139 423 159 28 8 102 32 165 52 63 20 126
39 139 41 13 3 32 9 41 14 10 5 20 7 23 4 3 -3 12 -2 19 2 7 5 18 9 23 10 6 1
37 9 70 17 33 9 74 19 92 22 18 3 44 10 59 15 15 6 29 8 31 6 3 -3 15 -1 27 4
13 4 40 11 62 15 47 8 69 13 69 15 0 1 11 3 25 5 14 1 66 10 115 18 153 27
161 28 275 42 30 3 66 8 80 10 33 5 145 17 190 20 195 15 299 19 575 18 176 0
358 -3 405 -6 160 -11 235 -17 270 -22 19 -3 54 -7 78 -10 47 -6 112 -14 157
-20 141 -18 314 -49 430 -75 50 -11 99 -22 110 -24 11 -2 49 -11 85 -20 36 -9
75 -18 88 -21 12 -2 26 -6 30 -9 5 -3 19 -7 33 -9 13 -3 44 -11 69 -18 25 -7
47 -13 50 -14 8 -1 153 -45 170 -51 8 -3 17 -6 20 -6 26 -3 374 -133 528 -197
263 -110 636 -298 797 -401 17 -11 37 -23 45 -26 8 -4 107 -68 220 -143 113
-75 210 -138 215 -140 6 -2 12 -7 15 -11 3 -4 23 -10 45 -13 100 -13 184 70
171 170 -3 25 -11 52 -18 61 -21 29 -72 72 -85 72 -6 0 -13 4 -15 8 -1 4 -32
28 -68 52 -36 25 -66 48 -68 53 -2 4 -7 7 -12 7 -5 0 -36 18 -68 40 -193 128
-660 388 -699 390 -7 0 -13 3 -13 8 0 4 -27 18 -60 31 -33 13 -60 28 -60 33 0
4 -6 8 -14 8 -11 0 -102 38 -191 80 -11 5 -45 19 -75 31 -30 11 -66 26 -80 32
-14 5 -29 11 -35 13 -5 1 -82 29 -170 62 -201 74 -624 200 -765 227 -8 2 -60
12 -115 24 -118 24 -126 26 -275 52 -117 21 -144 25 -215 33 -22 2 -51 6 -65
9 -14 3 -52 8 -85 11 -99 9 -178 17 -220 22 -22 2 -100 7 -172 10 -73 3 -141
7 -150 8 -17 3 -18 44 -19 769 -1 552 2 767 10 768 6 1 27 3 46 4 74 6 188 21
250 34 76 16 171 40 218 56 7 3 16 5 20 6 4 1 30 10 57 21 199 77 365 169 520
287 265 202 488 486 618 786 37 87 48 114 53 130 1 6 14 45 28 88 23 72 51
190 62 262 2 17 8 57 13 90 9 63 7 435 -3 495 -29 172 -81 369 -126 475 -90
210 -181 364 -320 539 -21 27 -222 227 -251 251 -113 91 -260 190 -349 234
-25 12 -52 26 -60 31 -35 20 -216 92 -275 110 -55 16 -156 41 -180 45 -11 2
-45 8 -75 14 -30 6 -73 13 -95 17 -44 7 -410 15 -416 10z m281 -311 c47 -3 99
-7 115 -9 61 -8 120 -18 126 -21 3 -2 21 -7 40 -10 115 -20 462 -169 505 -216
9 -10 21 -16 25 -13 5 3 12 -2 15 -10 3 -9 11 -16 18 -16 20 0 148 -108 241
-203 100 -103 115 -120 165 -192 19 -27 38 -51 43 -53 4 -2 7 -8 7 -12 0 -5
12 -26 26 -47 61 -89 188 -393 198 -473 1 -8 5 -26 9 -40 3 -14 9 -42 12 -64
3 -21 7 -41 9 -45 2 -3 7 -46 11 -96 15 -181 6 -341 -29 -510 -49 -240 -180
-516 -338 -710 -41 -50 -200 -209 -253 -253 -62 -50 -192 -135 -275 -179 -145
-78 -369 -153 -499 -169 -25 -3 -48 -7 -52 -9 -5 -4 -208 -18 -244 -17 -47 1
-205 13 -225 17 -14 3 -45 8 -69 11 -24 2 -48 7 -53 10 -5 3 -23 8 -40 11 -52
8 -209 63 -303 106 -326 149 -604 409 -779 726 -85 154 -157 358 -181 516 -3
17 -9 57 -14 90 -10 64 -7 375 4 438 6 34 49 220 59 257 34 123 154 372 218
455 5 6 25 33 45 60 54 72 50 68 148 168 114 118 235 214 345 276 143 79 368
170 462 186 18 3 40 8 48 10 49 14 122 23 240 31 52 3 96 7 98 9 2 2 11 1 20
-1 9 -2 55 -6 102 -9z"/>
<path d="M4498 6894 c-2 -1 -26 -5 -54 -8 -29 -4 -80 -16 -115 -27 -35 -12
-68 -22 -74 -23 -52 -10 -221 -123 -298 -199 -115 -113 -212 -290 -241 -442
-4 -16 -9 -41 -12 -55 -3 -14 -5 -65 -6 -115 0 -98 6 -150 27 -235 3 -11 7
-28 9 -37 2 -10 12 -38 22 -63 119 -295 376 -503 689 -556 88 -15 244 -8 347
15 77 18 238 85 246 104 2 4 10 7 17 7 7 0 15 3 17 8 2 4 26 24 53 44 143 104
269 295 314 473 21 85 23 104 24 220 1 170 -17 250 -89 403 -35 72 -144 218
-192 257 -102 82 -189 135 -287 176 -28 11 -123 37 -165 45 -36 6 -228 13
-232 8z"/>
</g>
</svg>
