<svg width="80" height="80" fill="none" xmlns="http://www.w3.org/2000/svg"><g clip-path="url(#clip0)"><path d="M78.038 49.855a9.781 9.781 0 01-1.383.8c-.578.294-1.543.788-1.611 1.134-.085.456-.03.926.156 1.35.198.426.408.793.587 1.11.489.862 1.305 2.306.073 3.314-.288.266-.785.652-1.24 1a3.36 3.36 0 01.434 1.924c-.07.524-.353.997-.782 1.306-.3.214-.622.4-.934.58-.783.447-1.09.655-1.2 1.067a3.681 3.681 0 00.147 1.615c.079.346.155.692.204 1.046a7.836 7.836 0 01-.45 3.592 4.996 4.996 0 01-4.725 3.64 5.418 5.418 0 01-1.089-.114 101.089 101.089 0 01-11.241-3.364c-3.003 1.762-4.901 7.122-5.396 9.134A1.333 1.333 0 0148.293 80l-33.467-.093a1.333 1.333 0 01-1.269-1.734 10.3 10.3 0 011.35-2.533c.321-.46.61-.941.865-1.44a25.38 25.38 0 001.505-3.796 44.94 44.94 0 001.578-7.888 22.57 22.57 0 00-1.753-11.708c-.985-2.04-2.2-3.96-3.62-5.724-.8-1.08-1.631-2.199-2.377-3.373a20.621 20.621 0 01-2.746-6.494 1.333 1.333 0 012.597-.602 17.997 17.997 0 002.4 5.666c.692 1.095 1.492 2.172 2.267 3.215a32.214 32.214 0 013.924 6.247A25.224 25.224 0 0121.5 62.836a47.327 47.327 0 01-1.68 8.364 27.808 27.808 0 01-1.655 4.176c-.304.601-.65 1.18-1.033 1.733l-.09.134 30.243.09a21.261 21.261 0 014.695-8.514l-1.2-.418c-.896-.313-1.572-.549-1.922-.666-5.709-1.82-8.565-4.42-8.486-7.734a1.309 1.309 0 011.361-1.294 1.333 1.333 0 011.302 1.364c-.032 1.364 1.092 3.361 6.634 5.126.363.116 1.067.36 1.988.684.99.346 2.247.786 3.634 1.256h.009a103.824 103.824 0 0011.459 3.467 2.375 2.375 0 002.746-1.775c.287-.752.4-1.56.33-2.362a10.94 10.94 0 00-.163-.819 5.82 5.82 0 01-.133-2.87 4.42 4.42 0 012.46-2.722l.288-.164a4.913 4.913 0 00-.515-.827 1.333 1.333 0 01.257-1.898 65.79 65.79 0 001.627-1.246c-.064-.116-.134-.244-.202-.358-.209-.368-.449-.8-.68-1.29a4.977 4.977 0 01-.356-2.982c.32-1.627 1.878-2.424 3.015-3.006a7.71 7.71 0 001.099-.638c.286-.192.553-.409.8-.648 0-.203-.217-.692-1.232-1.928a53.794 53.794 0 01-6.1-9.914 3.962 3.962 0 01-.515-1.802 4.667 4.667 0 011.956-3.334c.54-.496 1.05-.962 1.108-1.356a2.62 2.62 0 00-.216-.948c-.217-.57-.47-1.13-.72-1.692a19.568 19.568 0 01-1.333-3.614A35.781 35.781 0 0069.08 18a22.863 22.863 0 00-4.784-7.815c-2.55-2.7-6.563-4.609-11.95-5.678a86.642 86.642 0 00-12.509-1.803 29.186 29.186 0 00-4.247.09 1.336 1.336 0 01-.248-2.66 32.307 32.307 0 014.635-.093 89 89 0 0112.896 1.851c6.012 1.2 10.382 3.308 13.363 6.46a25.504 25.504 0 015.35 8.724 38.98 38.98 0 011.313 4.819 17.273 17.273 0 001.144 3.04c.266.606.54 1.213.78 1.844.304.705.429 1.474.364 2.238a5.126 5.126 0 01-1.951 2.968c-.654.599-1.084 1.02-1.09 1.388.05.203.125.398.227.579a51.462 51.462 0 005.835 9.481c.965 1.178 1.978 2.55 1.767 3.923a4.085 4.085 0 01-1.936 2.499z" fill="#fff"/><path d="M36.188 7.466l.8 3.99c.77.253 1.522.565 2.245.933l3.385-2.267a2.667 2.667 0 013.35.348l2.213 2.212a2.667 2.667 0 01.352 3.38l-2.256 3.37c.368.723.68 1.474.933 2.245l3.984.8a2.667 2.667 0 012.139 2.616v3.147a2.667 2.667 0 01-2.133 2.614l-3.99.8a15.866 15.866 0 01-.933 2.246l2.267 3.385a2.667 2.667 0 01-.348 3.35l-2.214 2.213a2.675 2.675 0 01-3.378.35l-3.37-2.256c-.723.368-1.474.68-2.245.934l-.8 3.984A2.667 2.667 0 0133.573 48h-3.147a2.667 2.667 0 01-2.614-2.134l-.8-3.989a15.878 15.878 0 01-2.246-.933l-3.385 2.266a2.666 2.666 0 01-3.35-.348L15.82 40.65a2.667 2.667 0 01-.352-3.38l2.256-3.369a15.877 15.877 0 01-.934-2.245l-3.984-.8a2.656 2.656 0 01-1.836-1.39l-2.009 1.347a2.435 2.435 0 01-1.295.375 2.4 2.4 0 01-1.702-.708L4.19 28.706a2.421 2.421 0 01-.31-3.032l1.72-2.573a12.53 12.53 0 01-.646-1.55l-3.017-.6A2.4 2.4 0 010 18.585V16.08a2.4 2.4 0 011.926-2.362l3.031-.604c.179-.53.394-1.048.643-1.549L3.853 8.961a2.41 2.41 0 01.333-2.997L5.96 4.19a2.42 2.42 0 013.032-.31l2.573 1.72c.501-.25 1.019-.465 1.55-.646l.602-3.017A2.4 2.4 0 0116.08 0h2.506a2.4 2.4 0 012.362 1.926l.604 3.031c.53.18 1.048.396 1.549.647l2.604-1.747a2.412 2.412 0 012.997.333l1.2 1.2a2.72 2.72 0 01.524-.057h3.147c1.268 0 2.361.891 2.615 2.133zm-20.384 5.227l.622-.623a5.305 5.305 0 00-1.657 10.01l2.024-.4a15.89 15.89 0 01.933-2.246L15.46 16.05a2.667 2.667 0 01.344-3.352v-.004zm11.16-6.475l-3.048 2.048a1.333 1.333 0 01-1.424.04 9.755 9.755 0 00-2.44-1.02 1.333 1.333 0 01-.96-1.028l-.716-3.592H16.29l-.716 3.6c-.099.497-.47.895-.96 1.027a9.755 9.755 0 00-2.44 1.02c-.444.26-.998.243-1.424-.047L7.702 6.221l-1.48 1.48 2.044 3.05c.287.427.302.981.039 1.423a9.755 9.755 0 00-1.02 2.44c-.132.49-.53.861-1.027.96l-3.6.716v2.086l3.594.716c.496.099.894.47 1.026.96a9.768 9.768 0 001.02 2.44c.263.442.248.996-.038 1.424l-2.046 3.048 1.48 1.48 2.972-1.988v-1.363c0-.78.341-1.522.934-2.03a7.981 7.981 0 015.56-13.73 7.716 7.716 0 012.372.39 2.704 2.704 0 011.866.41l3.367 2.256c.723-.368 1.474-.68 2.245-.933l.8-3.984c.024-.107.055-.212.092-.315l-.938-.939zm7.569 6.551L33.573 8h-3.147l-.958 4.774c-.1.495-.471.892-.959 1.024-1.102.297-2.16.736-3.148 1.307-.44.255-.988.238-1.41-.046l-4.035-2.698-2.235 2.222 2.707 4.04c.283.422.3.97.045 1.41-.57.988-1.01 2.046-1.307 3.148a1.333 1.333 0 01-1.024.958l-4.769.954v3.148l4.773.958c.496.1.892.471 1.024.96.297 1.1.737 2.159 1.307 3.147.255.44.238.988-.045 1.41l-2.699 4.035 2.223 2.235 4.038-2.707c.423-.283.97-.3 1.411-.045.988.57 2.046 1.01 3.148 1.307.488.132.859.528.959 1.024l.954 4.77h3.147l.959-4.774c.1-.496.47-.892.958-1.024a13.135 13.135 0 003.148-1.307c.44-.255.988-.238 1.411.045l4.035 2.7 2.234-2.224-2.706-4.038a1.331 1.331 0 01-.046-1.41 13.17 13.17 0 001.307-3.149 1.333 1.333 0 011.024-.959l4.77-.954v-3.147l-4.774-.959c-.495-.1-.892-.47-1.024-.958a13.131 13.131 0 00-1.307-3.148 1.333 1.333 0 01.046-1.41l2.698-4.036-2.222-2.234-4.039 2.706c-.423.284-.97.301-1.41.046a13.131 13.131 0 00-3.149-1.307 1.333 1.333 0 01-.953-1.024z" fill="#fff"/><path d="M32 36a9.333 9.333 0 119.333-9.333A9.344 9.344 0 0132 36zm0-16a6.667 6.667 0 106.666 6.667A6.675 6.675 0 0032 20z" fill="#00BBD3"/><path d="M32 28a1.333 1.333 0 110-2.667A1.333 1.333 0 0132 28z" fill="#fff"/></g><defs><clipPath id="clip0"><path fill="#fff" transform="matrix(-1 0 0 1 80 0)" d="M0 0h80v80H0z"/></clipPath></defs></svg>