<svg width="80" height="80" fill="none" xmlns="http://www.w3.org/2000/svg"><g clip-path="url(#clip0)"><path d="M67.974 26.733H1.145c-.631 0-1.144.511-1.145 1.143v32.079c0 .632.51 1.145 1.143 1.145h45.444a1.146 1.146 0 000-2.29H2.291V29.024h64.535v2.864c0 .632.51 1.145 1.143 1.145h.002a1.144 1.144 0 001.146-1.142v-4.013c0-.631-.511-1.144-1.143-1.145zm-7.771-5.318L6.743 9.387a1.15 1.15 0 00-.865.15 1.152 1.152 0 00-.506.718L2.7 22.284a1.146 1.146 0 002.238.497L7.36 11.874 59.7 23.65a1.146 1.146 0 00.502-2.235zm-6.491-6.627L21.635 1.422a1.15 1.15 0 00-1.47.547l-2.673 5.346a1.15 1.15 0 102.056 1.026v.003l2.193-4.389 31.086 12.952a1.149 1.149 0 00.885-2.12z" fill="#fff"/><path d="M54.522 32.08H43.914a1.145 1.145 0 000 2.29h10.608a1.146 1.146 0 000-2.29z" fill="#fff"/><path d="M33.222 32.156c-6.495 0-11.761 5.265-11.761 11.76.007 6.494 5.269 11.756 11.761 11.762 6.496 0 11.762-5.265 11.762-11.761 0-6.496-5.266-11.761-11.762-11.761zm0 21.384a9.623 9.623 0 01-9.623-9.623 9.634 9.634 0 019.623-9.623 9.623 9.623 0 019.623 9.623 9.623 9.623 0 01-9.623 9.623z" fill="#00BBD3"/><path d="M65.298 35.898c-7.083 0-14.701 1.673-14.701 5.346V73.32c0 3.673 7.618 5.346 14.701 5.346C72.382 78.666 80 76.993 80 73.32V41.244c0-3.673-7.618-5.346-14.702-5.346zM77.327 73.3c-.202.742-4.21 2.693-12.029 2.693-7.818 0-11.827-1.951-12.028-2.673v-2.1c2.844 1.432 7.542 2.1 12.028 2.1 4.487 0 9.186-.675 12.029-2.102V73.3zm0-5.346c-.202.742-4.21 2.693-12.029 2.693-7.818 0-11.827-1.951-12.028-2.673v-2.1c2.844 1.432 7.542 2.1 12.028 2.1 4.487 0 9.186-.675 12.029-2.102v2.082zm0-5.346c-.202.742-4.21 2.693-12.029 2.693-7.818 0-11.827-1.951-12.028-2.673v-2.1c2.844 1.432 7.542 2.1 12.028 2.1 4.487 0 9.186-.675 12.029-2.102v2.082zm0-5.346c-.202.742-4.21 2.693-12.029 2.693-7.818 0-11.827-1.951-12.028-2.673v-2.101c2.844 1.433 7.542 2.101 12.028 2.101 4.487 0 9.186-.675 12.029-2.102v2.082zm0-5.346c-.202.742-4.21 2.693-12.029 2.693-7.818 0-11.827-1.951-12.028-2.673v-2.101c2.844 1.426 7.542 2.1 12.028 2.1 4.487 0 9.186-.674 12.029-2.101v2.082zm0-5.346c-.202.742-4.21 2.693-12.029 2.693-7.818 0-11.827-1.951-12.028-2.673v-2.101c2.844 1.426 7.542 2.1 12.028 2.1 4.487 0 9.186-.674 12.029-2.102v2.083zm-12.029-2.653c-7.806 0-11.813-1.946-12.028-2.65v-.007c.215-.745 4.222-2.69 12.028-2.69 7.752 0 11.762 1.917 12.029 2.674-.267.756-4.277 2.673-12.029 2.673zM22.53 53.462H12.427l-4.79-5.239v-8.687l5.29-5.166h9.603a1.145 1.145 0 000-2.29H12.462c-.3-.001-.588.115-.802.324l-5.97 5.823a1.435 1.435 0 00-.345.936v9.505c0 .286.106.562.3.773l5.43 5.94c.216.237.524.372.845.372h10.61a1.146 1.146 0 000-2.29zM33.89 42.58h-1.337c-.415 0-.668-.232-.668-.334 0-.102.253-.334.668-.334h3.342a1.337 1.337 0 000-2.673h-1.337a1.337 1.337 0 00-2.673 0v.06a3.111 3.111 0 00-2.673 2.94 3.192 3.192 0 003.341 3.014h1.337c.415 0 .668.233.668.334 0 .102-.253.334-.668.334h-3.342a1.337 1.337 0 000 2.673h1.337a1.337 1.337 0 002.673 0v-.06a3.111 3.111 0 002.673-2.94 3.192 3.192 0 00-3.341-3.014z" fill="#fff"/></g><defs><clipPath id="clip0"><path fill="#fff" d="M0 0h80v80H0z"/></clipPath></defs></svg>