<svg width="331" height="463" viewBox="0 0 331 463" fill="none" xmlns="http://www.w3.org/2000/svg">
<rect x="57" y="404" width="2" height="226" rx="1" transform="rotate(-90 57 404)" fill="#00BBD3"/>
<rect x="57" y="244" width="2" height="226" rx="1" transform="rotate(-90 57 244)" fill="#00BBD3"/>
<g filter="url(#filter0_d)">
<rect width="12" height="12" rx="2" transform="matrix(1 0 0 -1 93 379)" stroke="#00BBD3"/>
</g>
<g filter="url(#filter1_d)">
<rect width="12" height="12" rx="2" transform="matrix(1 0 0 -1 93 359)" stroke="#00BBD3"/>
</g>
<g filter="url(#filter2_d)">
<rect width="12" height="12" rx="2" transform="matrix(1 0 0 -1 93 339)" stroke="#00BBD3"/>
</g>
<g filter="url(#filter3_d)">
<rect width="12" height="12" rx="2" transform="matrix(1 0 0 -1 93 319)" stroke="#00BBD3"/>
</g>
<g filter="url(#filter4_d)">
<rect width="12" height="12" rx="2" transform="matrix(1 0 0 -1 93 299)" stroke="#00BBD3"/>
</g>
<g filter="url(#filter5_d)">
<rect width="12" height="12" rx="2" transform="matrix(1 0 0 -1 93 279)" stroke="#00BBD3"/>
</g>
<g filter="url(#filter6_d)">
<rect width="4" height="4" transform="matrix(1 0 0 -1 97 355)" fill="#00BBD3"/>
</g>
<g filter="url(#filter7_d)">
<rect width="4" height="4" transform="matrix(1 0 0 -1 97 295)" fill="#00BBD3"/>
</g>
<g filter="url(#filter8_d)">
<rect width="4" height="4" transform="matrix(1 0 0 -1 97 275)" fill="#00BBD3"/>
</g>
<rect opacity="0.2" width="12" height="75" transform="matrix(7.57361e-08 -1 -1 3.49303e-08 199 299)" fill="#00BBD3"/>
<rect opacity="0.2" width="12" height="50" transform="matrix(7.62095e-08 -1 -1 3.47133e-08 254 299)" fill="#00BBD3"/>
<rect opacity="0.2" width="12" height="142" transform="matrix(7.76295e-08 -1 -1 3.40783e-08 266 279)" fill="#00BBD3"/>
<rect opacity="0.2" width="12" height="134" transform="matrix(7.81029e-08 -1 -1 3.38718e-08 258 379)" fill="#00BBD3"/>
<rect opacity="0.2" width="12" height="115" transform="matrix(7.57361e-08 -1 -1 3.49303e-08 239 319)" fill="#00BBD3"/>
<rect opacity="0.2" width="12" height="160" transform="matrix(7.99963e-08 -1 -1 3.30701e-08 284 339)" fill="#00BBD3"/>
<rect opacity="0.2" width="12" height="53" transform="matrix(8.52125e-09 -1 -1 9.75748e-09 177 359)" fill="#00BBD3"/>
<rect opacity="0.2" width="12" height="95" transform="matrix(9.00056e-09 -1 -1 9.23785e-09 276 359)" fill="#00BBD3"/>
<g filter="url(#filter9_d)">
<rect width="309" height="441" rx="20" transform="matrix(-1 0 0 1 320 11)" stroke="#00BBD3" stroke-width="2"/>
</g>
<rect opacity="0.2" width="7.13205" height="116.999" transform="matrix(4.88144e-08 -1 -1 2.30611e-08 284 118.132)" fill="#00BBD3"/>
<rect opacity="0.2" width="6.58915" height="116.999" transform="matrix(4.88144e-08 -1 -1 2.30611e-08 284 129.45)" fill="#00BBD3"/>
<rect opacity="0.2" width="7.378" height="116.999" transform="matrix(4.88144e-08 -1 -1 2.30611e-08 284 141.988)" fill="#00BBD3"/>
<rect opacity="0.2" width="6.58915" height="97.7781" transform="matrix(-6.44413e-09 -1 -1 -7.55842e-09 264.778 153.171)" fill="#00BBD3"/>
<rect opacity="0.2" width="7.13205" height="116.999" transform="matrix(4.88144e-08 -1 -1 2.30611e-08 284 176.132)" fill="#00BBD3"/>
<rect opacity="0.2" width="6.58915" height="116.999" transform="matrix(4.88144e-08 -1 -1 2.30611e-08 284 187.45)" fill="#00BBD3"/>
<rect opacity="0.2" width="7.378" height="116.999" transform="matrix(4.88144e-08 -1 -1 2.30611e-08 284 199.988)" fill="#00BBD3"/>
<rect opacity="0.2" width="6.58915" height="97.7781" transform="matrix(-6.44413e-09 -1 -1 -7.55842e-09 264.778 211.171)" fill="#00BBD3"/>
<g filter="url(#filter10_d)">
<rect width="31" height="226" rx="4" transform="matrix(0 -1 -1 0 283 80)" stroke="#00BBD3" stroke-width="2" stroke-linejoin="round"/>
</g>
<path opacity="0.3" d="M96.4409 111L104.871 144.118M104.871 144.118L98.8495 211.258M104.871 144.118L57 160.075M104.871 144.118L141 164.591" stroke="#00BBD3" stroke-width="2"/>
<g filter="url(#filter11_d)">
<path d="M57 160.376L89.5161 183.258M57 160.376L96.7419 111M57 160.376L99.1505 211.86M89.5161 183.258L141 165.194M89.5161 183.258L96.7419 111M89.5161 183.258L99.1505 211.86M141 165.194L96.7419 111M141 165.194L99.1505 211.86" stroke="#00BBD3" stroke-width="2" stroke-linejoin="round"/>
</g>
<defs>
<filter id="filter0_d" x="82.5" y="356.5" width="33" height="33" filterUnits="userSpaceOnUse" color-interpolation-filters="sRGB">
<feFlood flood-opacity="0" result="BackgroundImageFix"/>
<feColorMatrix in="SourceAlpha" type="matrix" values="0 0 0 0 0 0 0 0 0 0 0 0 0 0 0 0 0 0 127 0"/>
<feOffset/>
<feGaussianBlur stdDeviation="5"/>
<feColorMatrix type="matrix" values="0 0 0 0 0 0 0 0 0 0.733333 0 0 0 0 0.827451 0 0 0 0.36 0"/>
<feBlend mode="normal" in2="BackgroundImageFix" result="effect1_dropShadow"/>
<feBlend mode="normal" in="SourceGraphic" in2="effect1_dropShadow" result="shape"/>
</filter>
<filter id="filter1_d" x="82.5" y="336.5" width="33" height="33" filterUnits="userSpaceOnUse" color-interpolation-filters="sRGB">
<feFlood flood-opacity="0" result="BackgroundImageFix"/>
<feColorMatrix in="SourceAlpha" type="matrix" values="0 0 0 0 0 0 0 0 0 0 0 0 0 0 0 0 0 0 127 0"/>
<feOffset/>
<feGaussianBlur stdDeviation="5"/>
<feColorMatrix type="matrix" values="0 0 0 0 0 0 0 0 0 0.733333 0 0 0 0 0.827451 0 0 0 0.36 0"/>
<feBlend mode="normal" in2="BackgroundImageFix" result="effect1_dropShadow"/>
<feBlend mode="normal" in="SourceGraphic" in2="effect1_dropShadow" result="shape"/>
</filter>
<filter id="filter2_d" x="82.5" y="316.5" width="33" height="33" filterUnits="userSpaceOnUse" color-interpolation-filters="sRGB">
<feFlood flood-opacity="0" result="BackgroundImageFix"/>
<feColorMatrix in="SourceAlpha" type="matrix" values="0 0 0 0 0 0 0 0 0 0 0 0 0 0 0 0 0 0 127 0"/>
<feOffset/>
<feGaussianBlur stdDeviation="5"/>
<feColorMatrix type="matrix" values="0 0 0 0 0 0 0 0 0 0.733333 0 0 0 0 0.827451 0 0 0 0.36 0"/>
<feBlend mode="normal" in2="BackgroundImageFix" result="effect1_dropShadow"/>
<feBlend mode="normal" in="SourceGraphic" in2="effect1_dropShadow" result="shape"/>
</filter>
<filter id="filter3_d" x="82.5" y="296.5" width="33" height="33" filterUnits="userSpaceOnUse" color-interpolation-filters="sRGB">
<feFlood flood-opacity="0" result="BackgroundImageFix"/>
<feColorMatrix in="SourceAlpha" type="matrix" values="0 0 0 0 0 0 0 0 0 0 0 0 0 0 0 0 0 0 127 0"/>
<feOffset/>
<feGaussianBlur stdDeviation="5"/>
<feColorMatrix type="matrix" values="0 0 0 0 0 0 0 0 0 0.733333 0 0 0 0 0.827451 0 0 0 0.36 0"/>
<feBlend mode="normal" in2="BackgroundImageFix" result="effect1_dropShadow"/>
<feBlend mode="normal" in="SourceGraphic" in2="effect1_dropShadow" result="shape"/>
</filter>
<filter id="filter4_d" x="82.5" y="276.5" width="33" height="33" filterUnits="userSpaceOnUse" color-interpolation-filters="sRGB">
<feFlood flood-opacity="0" result="BackgroundImageFix"/>
<feColorMatrix in="SourceAlpha" type="matrix" values="0 0 0 0 0 0 0 0 0 0 0 0 0 0 0 0 0 0 127 0"/>
<feOffset/>
<feGaussianBlur stdDeviation="5"/>
<feColorMatrix type="matrix" values="0 0 0 0 0 0 0 0 0 0.733333 0 0 0 0 0.827451 0 0 0 0.36 0"/>
<feBlend mode="normal" in2="BackgroundImageFix" result="effect1_dropShadow"/>
<feBlend mode="normal" in="SourceGraphic" in2="effect1_dropShadow" result="shape"/>
</filter>
<filter id="filter5_d" x="82.5" y="256.5" width="33" height="33" filterUnits="userSpaceOnUse" color-interpolation-filters="sRGB">
<feFlood flood-opacity="0" result="BackgroundImageFix"/>
<feColorMatrix in="SourceAlpha" type="matrix" values="0 0 0 0 0 0 0 0 0 0 0 0 0 0 0 0 0 0 127 0"/>
<feOffset/>
<feGaussianBlur stdDeviation="5"/>
<feColorMatrix type="matrix" values="0 0 0 0 0 0 0 0 0 0.733333 0 0 0 0 0.827451 0 0 0 0.36 0"/>
<feBlend mode="normal" in2="BackgroundImageFix" result="effect1_dropShadow"/>
<feBlend mode="normal" in="SourceGraphic" in2="effect1_dropShadow" result="shape"/>
</filter>
<filter id="filter6_d" x="87" y="341" width="24" height="24" filterUnits="userSpaceOnUse" color-interpolation-filters="sRGB">
<feFlood flood-opacity="0" result="BackgroundImageFix"/>
<feColorMatrix in="SourceAlpha" type="matrix" values="0 0 0 0 0 0 0 0 0 0 0 0 0 0 0 0 0 0 127 0"/>
<feOffset/>
<feGaussianBlur stdDeviation="5"/>
<feColorMatrix type="matrix" values="0 0 0 0 0 0 0 0 0 0.733333 0 0 0 0 0.827451 0 0 0 0.36 0"/>
<feBlend mode="normal" in2="BackgroundImageFix" result="effect1_dropShadow"/>
<feBlend mode="normal" in="SourceGraphic" in2="effect1_dropShadow" result="shape"/>
</filter>
<filter id="filter7_d" x="87" y="281" width="24" height="24" filterUnits="userSpaceOnUse" color-interpolation-filters="sRGB">
<feFlood flood-opacity="0" result="BackgroundImageFix"/>
<feColorMatrix in="SourceAlpha" type="matrix" values="0 0 0 0 0 0 0 0 0 0 0 0 0 0 0 0 0 0 127 0"/>
<feOffset/>
<feGaussianBlur stdDeviation="5"/>
<feColorMatrix type="matrix" values="0 0 0 0 0 0 0 0 0 0.733333 0 0 0 0 0.827451 0 0 0 0.36 0"/>
<feBlend mode="normal" in2="BackgroundImageFix" result="effect1_dropShadow"/>
<feBlend mode="normal" in="SourceGraphic" in2="effect1_dropShadow" result="shape"/>
</filter>
<filter id="filter8_d" x="87" y="261" width="24" height="24" filterUnits="userSpaceOnUse" color-interpolation-filters="sRGB">
<feFlood flood-opacity="0" result="BackgroundImageFix"/>
<feColorMatrix in="SourceAlpha" type="matrix" values="0 0 0 0 0 0 0 0 0 0 0 0 0 0 0 0 0 0 127 0"/>
<feOffset/>
<feGaussianBlur stdDeviation="5"/>
<feColorMatrix type="matrix" values="0 0 0 0 0 0 0 0 0 0.733333 0 0 0 0 0.827451 0 0 0 0.36 0"/>
<feBlend mode="normal" in2="BackgroundImageFix" result="effect1_dropShadow"/>
<feBlend mode="normal" in="SourceGraphic" in2="effect1_dropShadow" result="shape"/>
</filter>
<filter id="filter9_d" x="0" y="0" width="331" height="463" filterUnits="userSpaceOnUse" color-interpolation-filters="sRGB">
<feFlood flood-opacity="0" result="BackgroundImageFix"/>
<feColorMatrix in="SourceAlpha" type="matrix" values="0 0 0 0 0 0 0 0 0 0 0 0 0 0 0 0 0 0 127 0"/>
<feOffset/>
<feGaussianBlur stdDeviation="5"/>
<feColorMatrix type="matrix" values="0 0 0 0 0 0 0 0 0 0.733333 0 0 0 0 0.827451 0 0 0 0.36 0"/>
<feBlend mode="normal" in2="BackgroundImageFix" result="effect1_dropShadow"/>
<feBlend mode="normal" in="SourceGraphic" in2="effect1_dropShadow" result="shape"/>
</filter>
<filter id="filter10_d" x="36" y="32" width="268" height="73" filterUnits="userSpaceOnUse" color-interpolation-filters="sRGB">
<feFlood flood-opacity="0" result="BackgroundImageFix"/>
<feColorMatrix in="SourceAlpha" type="matrix" values="0 0 0 0 0 0 0 0 0 0 0 0 0 0 0 0 0 0 127 0"/>
<feOffset dy="4"/>
<feGaussianBlur stdDeviation="10"/>
<feColorMatrix type="matrix" values="0 0 0 0 0 0 0 0 0 0.733333 0 0 0 0 0.827451 0 0 0 0.36 0"/>
<feBlend mode="normal" in2="BackgroundImageFix" result="effect1_dropShadow"/>
<feBlend mode="normal" in="SourceGraphic" in2="effect1_dropShadow" result="shape"/>
</filter>
<filter id="filter11_d" x="46" y="100" width="106" height="122.86" filterUnits="userSpaceOnUse" color-interpolation-filters="sRGB">
<feFlood flood-opacity="0" result="BackgroundImageFix"/>
<feColorMatrix in="SourceAlpha" type="matrix" values="0 0 0 0 0 0 0 0 0 0 0 0 0 0 0 0 0 0 127 0"/>
<feOffset/>
<feGaussianBlur stdDeviation="5"/>
<feColorMatrix type="matrix" values="0 0 0 0 0 0 0 0 0 0.733333 0 0 0 0 0.827451 0 0 0 0.36 0"/>
<feBlend mode="normal" in2="BackgroundImageFix" result="effect1_dropShadow"/>
<feBlend mode="normal" in="SourceGraphic" in2="effect1_dropShadow" result="shape"/>
</filter>
</defs>
</svg>