<svg width="120" height="120" fill="none" xmlns="http://www.w3.org/2000/svg"><g clip-path="url(#clip0)"><path d="M92.374 65.225l-2.737-2.738a3.544 3.544 0 000-5.007c-1.338-1.337-3.669-1.337-5.007 0l-2.738-2.737 1.936-1.936a3.544 3.544 0 000-5.007c-1.337-1.338-3.668-1.338-5.007 0l-1.935 1.936-2.738-2.738 3.872-3.872a3.544 3.544 0 000-5.007 3.544 3.544 0 00-5.007 0l-3.872 3.873-2.737-2.738 1.936-1.936a3.514 3.514 0 001.035-2.503c0-.945-.366-1.834-1.035-2.504a3.544 3.544 0 00-5.007 0l-1.936 1.936-2.738-2.738 1.936-1.935c2.889-2.889 7.593-2.889 10.482 0a7.374 7.374 0 012.067 4.026 7.428 7.428 0 017.613 1.782 7.423 7.423 0 011.78 7.612 7.377 7.377 0 014.028 2.068 7.423 7.423 0 011.78 7.612 7.377 7.377 0 014.028 2.067c2.892 2.89 2.892 7.595.001 10.484zm-29.841 22.43l-5.544 5.543-13.504 5.789-19.598 17.637 2.59 2.877 6.582-5.924c.787.396 1.569.805 2.36 1.159l1.584-3.531c-.282-.128-.563-.283-.846-.417l9.44-8.497 13.6-5.827 6.072-6.073-2.736-2.736z" fill="#043A52"/><path d="M49.857 20.462L20.509 49.81l6.747 6.747 6.633-6.414.023-.023a4.087 4.087 0 015.773 0 4.094 4.094 0 01.511 5.15l-5.692 8.533 35.702 35.702 29.348-29.348-49.697-49.695zm17.219 46.567c-3.89 3.889-10.197 3.889-14.089 0-3.89-3.89-3.89-10.197 0-14.089 3.89-3.89 10.197-3.89 14.089 0 3.889 3.89 3.889 10.197 0 14.089z" fill="#00BBD3"/><path d="M60.032 71.882a11.817 11.817 0 01-8.413-3.487 11.816 11.816 0 01-3.487-8.411c0-3.181 1.239-6.169 3.486-8.414a11.814 11.814 0 018.414-3.487 11.81 11.81 0 018.412 3.487 11.813 11.813 0 013.487 8.413 11.81 11.81 0 01-3.487 8.412 11.806 11.806 0 01-8.412 3.487zm0-19.925a7.982 7.982 0 00-5.676 2.352 7.967 7.967 0 00-2.352 5.677c0 2.14.836 4.156 2.352 5.674a7.976 7.976 0 005.676 2.352 7.981 7.981 0 005.675-2.352 7.966 7.966 0 002.352-5.674 7.982 7.982 0 00-2.352-5.677 7.97 7.97 0 00-5.675-2.352zM31.316 68.589l3.221 2.147 8.88-13.32a7.977 7.977 0 00-.994-10.036c-3.102-3.102-8.15-3.102-11.25 0L19.524 59.027l-3.872 19.36-6.114 6.118c-.165-.34-.35-.668-.507-1.009L5.516 85.12c.354.764.753 1.513 1.142 2.266L.581 93.463 3.32 96.2l15.9-15.902 3.872-19.36 10.819-10.819a4.087 4.087 0 015.773 0 4.094 4.094 0 01.511 5.15l-8.88 13.32zM7.923 39.04L4.33 37.596a60.064 60.064 0 00-2.517 7.746l3.754.94a56.353 56.353 0 012.355-7.242zm7.533-13.199l-3.07-2.36a59.453 59.453 0 00-4.508 6.782l3.36 1.917a56.417 56.417 0 014.218-6.339zM.778 69.582a59.478 59.478 0 001.837 7.932l3.702-1.13A55.822 55.822 0 014.6 68.97l-3.822.611zm3.107-9.599c0-2.073.116-4.162.341-6.21l-3.848-.424a60.609 60.609 0 00-.345 8.129l3.872-.092a68.779 68.779 0 01-.02-1.403zm106.069-33.316a60.96 60.96 0 00-4.966-6.441l-2.9 2.563a56.62 56.62 0 014.648 6.029l3.218-2.151zM26.242 15.138l-2.332-3.09a60.914 60.914 0 00-6.15 5.328l2.727 2.749a57.005 57.005 0 015.756-4.987zm89.876 42.274l3.869-.178a60.324 60.324 0 00-.916-8.083l-3.808.691a56.8 56.8 0 01.855 7.57zm.947-16.152a60.145 60.145 0 00-3.057-7.543l-3.483 1.694a56.247 56.247 0 012.862 7.055l3.678-1.206zM39.487 7.716L38.07 4.113A60.021 60.021 0 0030.72 7.6l1.896 3.376a55.555 55.555 0 016.871-3.26zm22.365-3.848a56.6 56.6 0 017.575.757l.643-3.82A60.534 60.534 0 0061.976 0l-.124 3.868zm26.613 104.541l1.967 3.336a60.5 60.5 0 006.714-4.592l-2.396-3.04a57.003 57.003 0 01-6.285 4.296zm2.111-95.541a56.193 56.193 0 016.091 4.573l2.53-2.935a60.695 60.695 0 00-6.51-4.886l-2.11 3.248zM76.831 6.395a56.113 56.113 0 017.095 2.766l1.65-3.502a59.448 59.448 0 00-7.587-2.958L76.83 6.395zm32.562 80.359l3.403 1.85a60.07 60.07 0 003.392-7.402l-3.622-1.369a55.621 55.621 0 01-3.173 6.921zm5.37-14.212l3.773.862a59.814 59.814 0 001.27-8.039l-3.856-.344a56.006 56.006 0 01-1.187 7.521zm-14.367 26.463l2.785 2.693a60.072 60.072 0 005.25-6.22l-3.119-2.292a56.721 56.721 0 01-4.916 5.82zm-25.941 15.253l.995 3.744a59.34 59.34 0 007.703-2.62l-1.493-3.573a56.011 56.011 0 01-7.205 2.449zm-31.187 3.368a60.96 60.96 0 007.953 1.731l.563-3.831a56.041 56.041 0 01-7.44-1.621l-1.076 3.721zM45.827 1.66l.912 3.761a56.5 56.5 0 017.504-1.287L53.846.28c-2.7.279-5.397.743-8.019 1.378zM60.03 116.128l-.658-.004-.035 3.872.693.004c2.484 0 4.983-.153 7.428-.455l-.476-3.841a57.206 57.206 0 01-6.952.424z" fill="#043A52"/></g><defs><clipPath id="clip0"><path fill="#fff" d="M0 0h120v120H0z"/></clipPath></defs></svg>