<svg width="120" height="120" fill="none" xmlns="http://www.w3.org/2000/svg"><path d="M46.875 46.874v9.375h12.188a4.687 4.687 0 110 9.375H46.874v11.25h22.5v-30h-22.5zM23.141 22.653l1.234 16.721-3.75 3.75-3.75-3.75 1.234-16.723 5.032.002zm78.75 0l1.234 16.721-3.75 3.75-3.75-3.75 1.234-16.723 5.032.002z" fill="#00BBD3"/><path d="M106.305 21.968c2.625-2.062 4.32-5.255 4.32-8.844 0-6.204-5.046-11.25-11.25-11.25-4.097 0-7.68 2.209-9.647 5.492-1.168-1.073-2.71-1.742-4.415-1.742a6.57 6.57 0 00-6.563 6.563v18.009l-6.855.761A13.059 13.059 0 0075 22.5c0-7.237-5.888-13.125-13.125-13.125S48.75 15.261 48.75 22.499c0 3.821 1.65 7.254 4.264 9.654a20.624 20.624 0 00-13.639 8.524v-1.303c0-7.89-4.905-14.644-11.82-17.406 2.625-2.062 4.32-5.255 4.32-8.844 0-6.204-5.046-11.25-11.25-11.25S9.375 6.92 9.375 13.124c0 3.589 1.695 6.782 4.32 8.844-6.915 2.762-11.82 9.516-11.82 17.406v11.25c0 4.136 3.364 7.5 7.5 7.5v30.937a6.57 6.57 0 006.563 6.563 6.535 6.535 0 004.687-1.984 6.535 6.535 0 004.688 1.984 6.57 6.57 0 006.562-6.563V58.124c1.373 0 2.642-.398 3.75-1.043v1.043c0 5.17 4.206 9.375 9.375 9.375h14.063a6.57 6.57 0 006.562-6.562 6.57 6.57 0 00-6.563-6.563H43.126v3.75h15.938a2.816 2.816 0 012.812 2.813 2.816 2.816 0 01-2.813 2.812H45a5.632 5.632 0 01-5.625-5.625v-5.625c0-9.304 7.571-16.875 16.875-16.875h7.5l18.75-2.072V12.187a2.816 2.816 0 012.813-2.813 2.816 2.816 0 012.812 2.813v22.441a5.634 5.634 0 01-4.927 5.582l-10.073 1.258v68.219a4.693 4.693 0 01-4.688 4.687 4.693 4.693 0 01-4.687-4.687V76.874H60v32.813a4.693 4.693 0 01-4.688 4.687 4.693 4.693 0 01-4.687-4.687V76.874h-3.75v32.813c0 4.651 3.786 8.437 8.438 8.437 2.664 0 5.015-1.266 6.562-3.199 1.547 1.933 3.898 3.199 6.563 3.199 4.651 0 8.437-3.786 8.437-8.437V44.78l3.75-.47v6.314c0 4.136 3.364 7.5 7.5 7.5v30.937a6.57 6.57 0 006.563 6.563 6.535 6.535 0 004.687-1.984 6.534 6.534 0 004.687 1.984 6.57 6.57 0 006.563-6.563V58.124c4.136 0 7.5-3.364 7.5-7.5v-11.25c0-7.89-4.905-14.644-11.82-17.406zm-93.18-8.844c0-4.136 3.364-7.5 7.5-7.5s7.5 3.364 7.5 7.5-3.364 7.5-7.5 7.5-7.5-3.364-7.5-7.5zm18.75 41.25V41.249h-3.75v47.812a2.816 2.816 0 01-2.813 2.813 2.816 2.816 0 01-2.812-2.813V52.5h-3.75v36.562a2.816 2.816 0 01-2.813 2.813 2.816 2.816 0 01-2.812-2.813V41.25h-3.75v13.125a3.754 3.754 0 01-3.75-3.75v-11.25c0-8.27 6.73-15 15-15s15 6.73 15 15v11.25a3.754 3.754 0 01-3.75 3.75zM52.5 22.499c0-5.17 4.206-9.375 9.375-9.375 5.17 0 9.375 4.206 9.375 9.375 0 5.17-4.206 9.375-9.375 9.375-5.17 0-9.375-4.206-9.375-9.375zM99.375 5.624c4.136 0 7.5 3.364 7.5 7.5s-3.364 7.5-7.5 7.5-7.5-3.364-7.5-7.5 3.364-7.5 7.5-7.5zm-6.902 16.365c-.199.079-.401.146-.598.232v-.735c.195.175.392.344.598.503zm-8.098 28.635v-6.851a9.288 9.288 0 003.75-1.673v12.274a3.754 3.754 0 01-3.75-3.75zm30 0a3.754 3.754 0 01-3.75 3.75V41.249h-3.75v47.812a2.816 2.816 0 01-2.813 2.813 2.816 2.816 0 01-2.812-2.813V52.5H97.5v36.562a2.816 2.816 0 01-2.813 2.813 2.816 2.816 0 01-2.812-2.813V41.25h-2.792c1.716-1.708 2.792-4.046 2.792-6.62v-8.2c2.276-1.324 4.838-2.055 7.5-2.055 8.271 0 15 6.73 15 15v11.25z" fill="#043A52"/></svg>