<svg width="120" height="120" fill="none" xmlns="http://www.w3.org/2000/svg"><path d="M78.75 106.875h22.5v9.375h-22.5v-9.375zm-60 0h22.5v9.375h-22.5v-9.375zm82.5-88.125l-22.5-7.5 20.625-7.5h1.875v15z" fill="#00BBD3"/><path d="M111.562 65.625A6.57 6.57 0 00105 72.188V85.37c0 2.78-2.076 5.175-4.83 5.568l-1.177.17a11.185 11.185 0 002.257-6.734c0-6.204-5.046-11.25-11.25-11.25s-11.25 5.046-11.25 11.25c0 2.526.847 4.853 2.257 6.733l-1.177-.169C77.076 90.545 75 88.15 75 85.37V72.188a6.57 6.57 0 00-6.563-6.563 6.57 6.57 0 00-6.562 6.563v14.8c0 8.075 5.754 15.044 13.684 16.572l1.316.253v14.312h26.25v-14.312l1.316-.253c7.93-1.528 13.684-8.498 13.684-16.571V72.187a6.57 6.57 0 00-6.563-6.562zM90 76.875c4.136 0 7.5 3.364 7.5 7.5s-3.364 7.5-7.5 7.5-7.5-3.364-7.5-7.5 3.364-7.5 7.5-7.5zm24.375 10.114c0 6.28-4.477 11.7-10.644 12.888l-4.356.839v13.659h-18.75v-13.659l-4.356-.84c-6.166-1.187-10.644-6.608-10.644-12.887V72.187a2.816 2.816 0 012.813-2.812 2.816 2.816 0 012.812 2.813V85.37c0 4.635 3.461 8.625 8.05 9.28l6.684.955 3.823.01c.066 0 .127.009.193.009h1.875v-.006l1.875.006 6.951-.975c4.588-.656 8.049-4.646 8.049-9.281v-13.18a2.816 2.816 0 012.812-2.813 2.816 2.816 0 012.813 2.813v14.8z" fill="#043A52"/><path d="M103.125 39.375V3.75h-3.75v35.625H76.271L56.085 53.91a9.305 9.305 0 00-2.58-4.931l-4.755-4.755V33.409A23.282 23.282 0 0064.564 20.4l4.226-9.272a6.52 6.52 0 00.585-2.728c0-3.596-2.929-6.525-6.619-6.525a6.305 6.305 0 00-5.672 3.506l-3.992 7.988a13.067 13.067 0 01-6.29 6.075 11.183 11.183 0 001.948-6.319c0-6.204-5.046-11.25-11.25-11.25s-11.25 5.046-11.25 11.25a11.19 11.19 0 002.953 7.571c-6.142.362-11.694 4.05-14.316 9.668L6.231 48.915a6.476 6.476 0 00-.606 2.745c0 3.564 2.9 6.465 6.559 6.465a6.297 6.297 0 005.704-3.65L26.25 36.35v37.43c-4.363 1.549-7.5 5.706-7.5 10.594 0 2.526.848 4.853 2.258 6.733l-1.178-.169C17.076 90.545 15 88.15 15 85.37V72.188a6.57 6.57 0 00-6.563-6.563 6.57 6.57 0 00-6.562 6.563v14.8c0 8.075 5.754 15.044 13.684 16.572l1.316.253v14.312h26.25v-14.312l1.316-.253c7.93-1.528 13.684-8.498 13.684-16.571V72.187a6.57 6.57 0 00-6.563-6.562A6.57 6.57 0 0045 72.188V85.37c0 2.78-2.076 5.175-4.83 5.568l-1.178.17a11.188 11.188 0 002.258-6.734c0-4.603-2.782-8.565-6.75-10.305l42.979-30.945h40.646v-3.75h-15zM37.5 5.625c4.136 0 7.5 3.364 7.5 7.5s-3.364 7.5-7.5 7.5-7.5-3.364-7.5-7.5 3.364-7.5 7.5-7.5zM25.05 30L14.482 52.905c-.412.892-1.316 1.47-2.392 1.47a2.721 2.721 0 01-2.715-2.736c0-.392.088-.785.253-1.14l8.657-18.549a13.174 13.174 0 0111.893-7.575h11.177c6.433 0 12.216-3.576 15.092-9.33l3.992-7.987c.44-.884 1.327-1.433 2.411-1.433a2.784 2.784 0 012.775 2.803c0 .398-.084.782-.25 1.146l-4.226 9.272a19.533 19.533 0 01-14.581 11.18l-1.568.26-.002 15.49 5.854 5.854a5.656 5.656 0 011.648 3.977v.883l-5.625 4.05v-5.066l-6.724-6.724h-4.526v19.89L30 72.69V30h-4.95zm18.075 33.24l-3.75 2.7V53.276l3.75 3.75v6.214zm-2.424 31.41c4.588-.656 8.049-4.646 8.049-9.281V72.188a2.816 2.816 0 012.813-2.813 2.816 2.816 0 012.812 2.813v14.8c0 6.28-4.477 11.7-10.644 12.89l-4.356.838v13.659h-18.75v-13.659l-4.356-.84c-6.166-1.187-10.644-6.608-10.644-12.887V72.187a2.816 2.816 0 012.813-2.812 2.816 2.816 0 012.812 2.813V85.37c0 4.635 3.461 8.625 8.05 9.28l6.684.955 3.823.01c.066 0 .127.009.193.009h1.875v-.006l1.875.006 6.95-.975zM37.5 84.375c0 4.136-3.364 7.5-7.5 7.5s-7.5-3.364-7.5-7.5 3.364-7.5 7.5-7.5 7.5 3.364 7.5 7.5z" fill="#043A52"/><path d="M80.625 46.875h3.75v3.75h-3.75v-3.75zm7.5 0h3.75v3.75h-3.75v-3.75zm7.5 0h3.75v3.75h-3.75v-3.75z" fill="#043A52"/></svg>