<svg width="155" height="57" xmlns="http://www.w3.org/2000/svg" fill="#A9B3BC"><path d="M91.8 37.3h3V19.2h-3v18.1zm12.6.3c1.9 0 3.5-.5 4.6-1.4 1.2-1 1.8-2.3 1.8-3.9.1-1.7-.9-3-1.9-3.7-.3-.2-.7-.5-1.3-.7-.6-.2-1-.4-1.3-.5-.3-.1-.8-.3-1.5-.5-2.8-.9-3.7-1.5-3.7-2.8 0-1.4 1.1-2.3 2.8-2.3 1.8 0 3.1.9 3.8 2.5l2.5-1.5c-1.2-2.5-3.4-4-6.3-4-1.6 0-3 .5-4.1 1.4-1.1.9-1.7 2.2-1.7 3.8 0 1.6.6 2.8 1.8 3.7 1.2.8 2.1 1.1 3.8 1.7 1.5.5 2.6.9 3.2 1.3.6.4.9.9.9 1.7 0 1.4-1.1 2.4-3.4 2.4s-3.8-1-4.5-3.1l-2.6 1.5c1.1 2.7 3.6 4.4 7.1 4.4zm9.2-.3h3V19.2h-3v18.1zm6.6-6c0 1.9.6 3.5 1.9 4.6 1.3 1.1 2.9 1.7 4.9 1.7s3.7-.6 4.9-1.7c1.3-1.2 1.9-2.7 1.9-4.6V19.2h-3v11.9c0 2.2-1.3 3.6-3.9 3.6-2.6 0-3.9-1.4-3.9-3.6V19.2h-3v12.1zm31.6-12.1l-5.5 9.1-5.5-9.1h-3.2v18.1h3v-13l5.5 9.1h.4l5.5-9.1v12.9h3v-18h-3.2zM32.2 30.1c7.6 0 13.7-6.1 13.7-13.7S39.8 2.5 32.2 2.5 18.5 8.6 18.5 16.2s6.1 13.9 13.7 13.9zm16.2-13.6c0 8.4-6.3 15.2-14.4 16.2v11.6c10.9.3 19.8 3.3 29.4 10.1.5.5.8 1.3.3 1.8s-1.3.8-1.8.3c-9.6-6.8-18.5-9.9-29.6-9.6-11.1.3-20 2.8-29.9 9.6-.5.3-1.3.3-1.8-.3s-.3-1.2.2-1.8c9.9-7.1 19.2-9.9 30.6-10.1V32.7c-8.6-.3-15.7-7.6-15.7-16.2C15.7 7.4 23 .3 31.9.3c9.4-.3 16.5 7 16.5 16.2zM35.8 20c3.8 0 7.1-3.3 7.1-7.1s-3.3-7.1-7.1-7.1-7.1 3.3-7.1 7.1S32 20 35.8 20z"/></svg>