<svg width="155" height="57" xmlns="http://www.w3.org/2000/svg" fill="#A9B3BC" viewBox="0 0 155 57">
<path d="M91.8,37.3h3V19.2h-3V37.3z"/>
<path d="M104.4,37.6c1.9,0,3.5-0.5,4.6-1.4c1.2-1,1.8-2.3,1.8-3.9c0.1-1.7-0.9-3-1.9-3.7c-0.3-0.2-0.7-0.5-1.3-0.7c-0.6-0.2-1-0.4-1.3-0.5c-0.3-0.1-0.8-0.3-1.5-0.5c-2.8-0.9-3.7-1.5-3.7-2.8c0-1.4,1.1-2.3,2.8-2.3c1.8,0,3.1,0.9,3.8,2.5l2.5-1.5c-1.2-2.5-3.4-4-6.3-4c-1.6,0-3,0.5-4.1,1.4c-1.1,0.9-1.7,2.2-1.7,3.8c0,1.6,0.6,2.8,1.8,3.7c1.2,0.8,2.1,1.1,3.8,1.7c1.5,0.5,2.6,0.9,3.2,1.3c0.6,0.4,0.9,0.9,0.9,1.7c0,1.4-1.1,2.4-3.4,2.4c-2.3,0-3.8-1-4.5-3.1l-2.6,1.5C98.4,35.9,100.9,37.6,104.4,37.6z"/>
<path d="M113.6,37.3h3V19.2h-3V37.3z"/>
<path d="M120.2,31.3c0,1.9,0.6,3.5,1.9,4.6c1.3,1.1,2.9,1.7,4.9,1.7s3.7-0.6,4.9-1.7c1.3-1.2,1.9-2.7,1.9-4.6V19.2h-3v11.9c0,2.2-1.3,3.6-3.9,3.6c-2.6,0-3.9-1.4-3.9-3.6V19.2h-3V31.3z"/>
<path d="M151.8,19.2l-5.5,9.1l-5.5-9.1h-3.2v18.1h3V24.3l5.5,9.1h0.4l5.5-9.1v12.9h3V19.2H151.8z"/>
<path d="M32.2,30.1c7.6,0,13.7-6.1,13.7-13.7S39.8,2.5,32.2,2.5S18.5,8.6,18.5,16.2S24.6,30.1,32.2,30.1z M48.4,16.5c0,8.4-6.3,15.2-14.4,16.2v11.6c10.9,0.3,19.8,3.3,29.4,10.1c0.5,0.5,0.8,1.3,0.3,1.8c-0.5,0.5-1.3,0.8-1.8,0.3c-9.6-6.8-18.5-9.9-29.6-9.6c-11.1,0.3-20,2.8-29.9,9.6c-0.5,0.3-1.3,0.3-1.8-0.3S0.3,55,0.8,54.4c9.9-7.1,19.2-9.9,30.6-10.1V32.7c-8.6-0.3-15.7-7.6-15.7-16.2c0-9.1,7.3-16.2,16.2-16.2C41.3,0,48.4,7.3,48.4,16.5z M35.8,20c3.8,0,7.1-3.3,7.1-7.1s-3.3-7.1-7.1-7.1s-7.1,3.3-7.1,7.1S32,20,35.8,20z"/>
</svg>
